<svg width="643" height="643" viewBox="0 0 643 643" fill="none" xmlns="http://www.w3.org/2000/svg">
<g clip-path="url(#clip0_188_3011)">
<path d="M881.215 -43.6423C876.618 -50.743 871.875 -57.6965 866.866 -64.5026C800.543 -155.103 690.084 -217.125 582.777 -245.203C535.753 -257.519 487.491 -263.972 439.289 -265.622C123.202 -276.288 7.08548 -34.0666 -94.7411 28.367C-196.568 90.83 -352.873 197.489 -333.25 421.56C-318.371 591.949 -214.069 754.854 -23.6157 828.984C-2.63754 837.175 19.4013 844.276 42.4714 850.169C85.4 861.159 131.923 868.024 182.07 870.115C326.06 876.067 443.001 843.804 557.379 762.573C583.955 743.687 610.414 722.385 644.916 720.057C669.989 718.348 693.766 726.745 667.544 749.255C636.725 775.743 672.287 827.806 750.484 791.624C881.097 731.194 934.839 600.847 960.148 468.29C991.232 305.591 976.147 103.264 881.215 -43.6718V-43.6423Z" fill="#F6F6F6"/>
<g opacity="0.1">
<path fill-rule="evenodd" clip-rule="evenodd" d="M447.733 452.891C453.076 468.671 452.996 485.896 453.696 503.345C454.406 521.037 457.962 539.647 451.835 555.142C445.52 571.112 432.489 577.998 420.899 586.284C407.728 595.699 394.801 608.452 380.098 606.426C364.14 604.226 346.29 594.938 338.864 574.977C331.533 555.273 340.968 532.074 344.353 510.347C346.797 494.659 350.581 480.47 355.811 466.189C361.769 449.92 366.176 431.999 376.871 421.557C389.473 409.252 405.288 397.122 419.92 403.592C434.516 410.047 441.161 433.48 447.733 452.891Z" stroke="#B53833" stroke-width="1.5"/>
<path fill-rule="evenodd" clip-rule="evenodd" d="M437.495 454.208C441.264 465.338 441.207 477.489 441.701 489.797C442.202 502.276 444.71 515.403 440.389 526.332C435.934 537.597 426.742 542.455 418.568 548.299C409.277 554.94 400.159 563.935 389.787 562.506C378.531 560.955 365.941 554.403 360.703 540.324C355.532 526.425 362.187 510.061 364.574 494.735C366.298 483.67 368.967 473.661 372.657 463.588C376.859 452.112 379.968 439.472 387.511 432.106C396.4 423.427 407.556 414.871 417.877 419.435C428.172 423.987 432.859 440.516 437.495 454.208Z" stroke="#B53833" stroke-width="1.5"/>
<path fill-rule="evenodd" clip-rule="evenodd" d="M422.76 470.731C425.037 477.457 425.003 484.798 425.301 492.236C425.604 499.777 427.119 507.709 424.508 514.313C421.816 521.12 416.262 524.055 411.322 527.586C405.709 531.599 400.199 537.035 393.932 536.171C387.13 535.234 379.522 531.275 376.357 522.767C373.232 514.369 377.254 504.481 378.696 495.22C379.738 488.534 381.351 482.486 383.58 476.399C386.12 469.464 387.998 461.826 392.556 457.375C397.927 452.131 404.668 446.961 410.905 449.719C417.126 452.47 419.958 462.457 422.76 470.731Z" stroke="#B53833" stroke-width="1.5"/>
<path fill-rule="evenodd" clip-rule="evenodd" d="M265.924 108.454C290.645 109.172 301.424 153.995 321.577 174.124C340.415 192.938 365.937 196.888 380.129 222.518C396.02 251.217 410.475 288.422 404.448 323.785C398.433 359.08 367.759 371.792 350.161 398.359C333.405 423.654 325.667 460.811 303.59 476.041C280.049 492.281 251.823 494.07 226.692 483.537C201.611 473.024 183.424 444.859 165.441 418.139C146.71 390.306 124.798 362.995 120.162 325.247C115.485 287.169 123.271 245.419 140.533 215.34C156.599 187.345 186.89 189.5 208.772 170.847C229.825 152.901 241.306 107.739 265.924 108.454Z" stroke="#B53833" stroke-width="1.5"/>
<path fill-rule="evenodd" clip-rule="evenodd" d="M265.036 152.365C284.085 152.918 292.392 187.43 307.922 202.927C322.438 217.413 342.105 220.454 353.041 240.188C365.287 262.285 376.425 290.931 371.781 318.158C367.146 345.334 343.509 355.121 329.948 375.576C317.036 395.052 311.073 423.661 294.061 435.387C275.921 447.892 254.17 449.269 234.804 441.159C215.477 433.065 201.463 411.379 187.605 390.806C173.171 369.376 156.286 348.348 152.714 319.284C149.11 289.966 155.109 257.821 168.412 234.661C180.792 213.107 204.133 214.766 220.996 200.404C237.219 186.587 246.066 151.814 265.036 152.365Z" stroke="#B53833" stroke-width="1.5"/>
<path fill-rule="evenodd" clip-rule="evenodd" d="M264.228 195.15C277.755 195.542 283.654 220.004 294.682 230.989C304.991 241.257 318.957 243.412 326.723 257.4C335.42 273.062 343.33 293.367 340.032 312.666C336.74 331.929 319.955 338.866 310.324 353.365C301.155 367.17 296.92 387.448 284.839 395.76C271.957 404.623 256.511 405.599 242.758 399.85C229.034 394.114 219.081 378.742 209.24 364.16C198.99 348.97 186.999 334.065 184.462 313.464C181.903 292.683 186.163 269.898 195.61 253.483C204.402 238.205 220.978 239.38 232.952 229.201C244.473 219.407 250.756 194.76 264.228 195.15Z" stroke="#B53833" stroke-width="1.5"/>
<path fill-rule="evenodd" clip-rule="evenodd" d="M263.418 237.935C271.355 238.166 274.816 252.579 281.287 259.051C287.335 265.101 295.53 266.371 300.087 274.612C305.189 283.84 309.83 295.804 307.895 307.174C305.964 318.524 296.115 322.611 290.465 331.153C285.085 339.287 282.6 351.235 275.512 356.132C267.953 361.354 258.891 361.929 250.822 358.542C242.769 355.162 236.929 346.105 231.155 337.514C225.141 328.564 218.106 319.782 216.617 307.644C215.116 295.401 217.615 281.976 223.158 272.304C228.316 263.302 238.042 263.995 245.068 257.997C251.828 252.227 255.514 237.705 263.418 237.935Z" stroke="#B53833" stroke-width="1.5"/>
<path fill-rule="evenodd" clip-rule="evenodd" d="M603.107 -54.297C619.607 -64.8365 638.915 -70.8971 656.055 -62.5908C672.624 -54.5611 680.03 -28.7175 692.273 -11.0848C704.121 5.97917 720.216 17.4526 726.865 39.3888C734.121 63.3315 737.146 91.2989 730.694 115.683C724.268 139.969 708.655 157.31 692.419 169.573C677.686 180.7 660.661 182.449 643.957 181.195C628.939 180.068 615.742 170.474 601.734 162.767C585.775 153.986 565.953 152.538 556.079 132.845C546.094 112.93 549.36 85.8473 551.008 61.5996C552.603 38.1177 556.461 15.2382 565.423 -4.69872C574.806 -25.5711 587.116 -44.0828 603.107 -54.297Z" stroke="#B53833" stroke-width="1.5"/>
<path fill-rule="evenodd" clip-rule="evenodd" d="M610.098 -28.2525C622.989 -36.4868 638.074 -41.2217 651.465 -34.7322C664.41 -28.4588 670.196 -8.2678 679.761 5.5082C689.018 18.8398 701.593 27.8038 706.787 44.942C712.456 63.6478 714.82 85.4981 709.779 104.549C704.758 123.523 692.56 137.071 679.875 146.652C668.365 155.345 655.064 156.712 642.013 155.732C630.28 154.851 619.969 147.356 609.026 141.334C596.557 134.474 581.071 133.343 573.356 117.957C565.555 102.398 568.107 81.2389 569.394 62.2948C570.641 43.949 573.655 26.0737 580.657 10.4975C587.987 -5.80963 597.605 -20.2724 610.098 -28.2525Z" stroke="#B53833" stroke-width="1.5"/>
<path fill-rule="evenodd" clip-rule="evenodd" d="M617.427 -0.953359C626.535 -6.7713 637.193 -10.1168 646.655 -5.53163C655.801 -1.09911 659.889 13.1669 666.648 22.9004C673.188 32.3199 682.073 38.6534 685.743 50.7624C689.748 63.9791 691.418 79.4175 687.857 92.8779C684.309 106.284 675.69 115.857 666.728 122.626C658.596 128.768 649.197 129.734 639.977 129.042C631.686 128.419 624.401 123.123 616.669 118.869C607.859 114.022 596.918 113.222 591.467 102.351C585.955 91.3583 587.758 76.4081 588.667 63.0231C589.548 50.0608 591.677 37.431 596.625 26.4256C601.804 14.9037 608.6 4.68504 617.427 -0.953359Z" stroke="#B53833" stroke-width="1.5"/>
<path fill-rule="evenodd" clip-rule="evenodd" d="M623.955 23.3785C629.692 19.7142 636.405 17.6071 642.364 20.495C648.125 23.2867 650.699 32.2718 654.956 38.4023C659.075 44.3349 664.671 48.324 666.983 55.9506C669.506 64.2748 670.557 73.9984 668.314 82.4761C666.08 90.9197 660.652 96.9487 655.007 101.212C649.885 105.081 643.965 105.689 638.158 105.253C632.936 104.861 628.348 101.525 623.478 98.8459C617.93 95.793 611.038 95.2896 607.605 88.4427C604.133 81.519 605.269 72.103 605.842 63.6727C606.397 55.5087 607.738 47.5541 610.854 40.6225C614.116 33.3657 618.396 26.9297 623.955 23.3785Z" stroke="#B53833" stroke-width="1.5"/>
<path fill-rule="evenodd" clip-rule="evenodd" d="M4.09871 451.933C-16.9467 457.231 -39.7633 449.825 -57.1902 432.421C-74.3134 415.32 -80.2677 384.998 -89.4837 358.472C-98.9607 331.194 -118.313 303.971 -111.886 274.991C-105.298 245.284 -75.574 242.273 -59.1028 221.474C-45.4619 204.249 -39.3057 178.182 -23.9919 164.002C-4.8008 146.231 16.2295 129.401 39.2011 130.448C64.9609 131.623 98.9039 137.08 109.506 170.088C121.017 205.925 95.0263 243.57 87.7288 281.527C83.6152 302.923 81.8133 323.954 75.967 344.539C69.82 366.182 64.0925 387.773 52.7316 404.75C38.9578 425.333 23.8907 446.951 4.09871 451.933Z" stroke="#B53833" stroke-width="1.5"/>
<path fill-rule="evenodd" clip-rule="evenodd" d="M3.30948 423.46C-13.9985 427.816 -32.7632 421.727 -47.0953 407.418C-61.1776 393.359 -66.0745 368.43 -73.6538 346.621C-81.4479 324.195 -97.3634 301.814 -92.0781 277.988C-86.66 253.564 -62.2143 251.089 -48.6682 233.989C-37.4498 219.827 -32.3868 198.396 -19.7926 186.738C-4.00959 172.128 13.286 158.292 32.1781 159.153C53.3633 160.118 81.2784 164.605 89.9979 191.742C99.4648 221.205 78.0894 252.155 72.0879 283.362C68.7049 300.952 67.2229 318.243 62.4149 335.166C57.3595 352.96 52.6491 370.712 43.3057 384.669C31.978 401.591 19.5867 419.364 3.30948 423.46Z" stroke="#B53833" stroke-width="1.5"/>
<path fill-rule="evenodd" clip-rule="evenodd" d="M2.35284 389.475C-10.4693 392.705 -24.3705 388.19 -34.988 377.58C-45.4206 367.154 -49.0483 348.669 -54.6632 332.498C-60.4372 315.868 -72.2277 299.271 -68.3122 281.604C-64.2984 263.493 -46.1885 261.658 -36.1533 248.978C-27.8425 238.477 -24.0917 222.585 -14.7616 213.94C-3.06928 203.107 9.74366 192.846 23.7393 193.485C39.4338 194.201 60.1139 197.528 66.5734 217.65C73.5867 239.498 57.7514 262.448 53.3053 285.589C50.7991 298.633 49.7013 311.454 46.1393 324.003C42.3942 337.198 38.9046 350.361 31.9829 360.711C23.5911 373.259 14.4113 386.438 2.35284 389.475Z" stroke="#B53833" stroke-width="1.5"/>
<path fill-rule="evenodd" clip-rule="evenodd" d="M1.52609 359.948C-7.4083 362.2 -17.0946 359.052 -24.4928 351.655C-31.7621 344.387 -34.2898 331.5 -38.2023 320.226C-42.2256 308.633 -50.4411 297.063 -47.7128 284.746C-44.9161 272.12 -32.2972 270.841 -25.3047 262.001C-19.5138 254.68 -16.9003 243.601 -10.3992 237.575C-2.25201 230.022 6.67595 222.869 16.428 223.314C27.3638 223.813 41.7736 226.133 46.2745 240.161C51.1613 255.392 40.1274 271.392 37.0294 287.524C35.2831 296.618 34.5181 305.556 32.0362 314.304C29.4266 323.503 26.9951 332.68 22.1721 339.895C16.3248 348.643 9.92836 357.83 1.52609 359.948Z" stroke="#B53833" stroke-width="1.5"/>
<path fill-rule="evenodd" clip-rule="evenodd" d="M574.433 199.695C595.261 199.146 615.607 203.466 634.635 215.38C656.13 228.838 677.245 245.243 690.624 272.444C705.403 302.492 724.05 341.864 713.156 375.026C701.47 410.597 658.545 397.576 639.932 426.746C621.876 455.044 634.605 508.889 613.069 531.882C591.644 554.755 559.609 551.991 534.174 539.654C509.163 527.523 490.024 498.051 476.85 465.81C465.017 436.853 468.881 402.031 464.522 369.206C459.921 334.554 439.714 299.302 450.513 267.485C461.335 235.603 492.242 231.335 515.668 218.52C534.777 208.066 553.93 200.237 574.433 199.695Z" stroke="#B53833" stroke-width="1.5"/>
<path fill-rule="evenodd" clip-rule="evenodd" d="M575.924 236.842C592.333 236.409 608.363 239.814 623.353 249.201C640.288 259.805 656.923 272.731 667.463 294.165C679.106 317.841 693.798 348.863 685.214 374.993C676.008 403.021 642.19 392.761 627.526 415.746C613.301 438.043 623.33 480.47 606.363 498.587C589.483 516.61 564.245 514.432 544.207 504.711C524.502 495.152 509.424 471.93 499.045 446.526C489.722 423.709 492.767 396.271 489.333 370.407C485.708 343.103 469.788 315.327 478.296 290.257C486.822 265.136 511.171 261.773 529.627 251.675C544.682 243.438 559.772 237.269 575.924 236.842Z" stroke="#B53833" stroke-width="1.5"/>
<path fill-rule="evenodd" clip-rule="evenodd" d="M577.75 279.618C589.072 279.32 600.132 281.666 610.475 288.135C622.16 295.443 633.638 304.351 640.91 319.122C648.944 335.439 659.08 356.818 653.158 374.826C646.806 394.142 623.473 387.071 613.355 402.911C603.539 418.277 610.459 447.517 598.752 460.002C587.106 472.423 569.692 470.922 555.866 464.223C542.27 457.635 531.867 441.631 524.705 424.124C518.273 408.399 520.373 389.49 518.004 371.666C515.502 352.849 504.518 333.706 510.389 316.429C516.271 299.117 533.072 296.799 545.806 289.84C556.194 284.164 566.605 279.912 577.75 279.618Z" stroke="#B53833" stroke-width="1.5"/>
<path fill-rule="evenodd" clip-rule="evenodd" d="M579.306 316.203C586.285 316.019 593.103 317.46 599.479 321.434C606.682 325.923 613.758 331.395 618.241 340.468C623.193 350.49 629.441 363.622 625.791 374.684C621.875 386.548 607.491 382.205 601.254 391.935C595.204 401.373 599.469 419.333 592.253 427.002C585.073 434.632 574.339 433.71 565.816 429.595C557.435 425.548 551.022 415.718 546.607 404.964C542.642 395.306 543.937 383.691 542.476 372.742C540.934 361.184 534.163 349.426 537.782 338.814C541.408 328.18 551.765 326.756 559.615 322.482C566.018 318.995 572.436 316.383 579.306 316.203Z" stroke="#B53833" stroke-width="1.5"/>
<path fill-rule="evenodd" clip-rule="evenodd" d="M120.733 -158.166C141.345 -156.115 161.466 -160.512 181.338 -152.547C207.328 -142.131 238.928 -137.286 253.229 -105.064C267.52 -72.8647 262.92 -28.1936 251.91 6.45681C241.858 38.0889 213.564 47.169 196.789 72.5554C180.857 96.6642 179.365 144.105 156.457 150.906C133.054 157.854 117.481 114.504 95.071 102.753C75.0472 92.2536 50.5671 104.136 33.3456 86.3507C14.9 67.3017 -3.53107 36.2026 -0.182461 4.38365C3.3199 -28.8963 39.5028 -35.1832 49.3621 -65.8404C59.2917 -96.7166 36.6086 -142.232 54.3489 -165.181C71.0116 -186.736 98.14 -160.414 120.733 -158.166Z" stroke="#B53833" stroke-width="1.5"/>
<path fill-rule="evenodd" clip-rule="evenodd" d="M123.26 -121.983C138.787 -120.436 153.944 -123.753 168.913 -117.743C188.491 -109.883 212.294 -106.226 223.067 -81.9097C233.833 -57.6107 230.367 -23.8996 222.073 2.24931C214.502 26.1205 193.188 32.9728 180.552 52.1306C168.551 70.3244 167.427 106.125 150.17 111.258C132.542 116.501 120.81 83.7873 103.93 74.9196C88.8461 66.9959 70.4056 75.9627 57.433 62.5413C43.5383 48.1659 29.6545 24.697 32.177 0.684801C34.8152 -24.4299 62.0711 -29.1743 69.4979 -52.3098C76.9777 -75.6105 59.891 -109.959 73.2544 -127.277C85.8061 -143.544 106.241 -123.679 123.26 -121.983Z" stroke="#B53833" stroke-width="1.5"/>
<path fill-rule="evenodd" clip-rule="evenodd" d="M126.179 -79.1833C135.734 -78.232 145.061 -80.2714 154.273 -76.5771C166.321 -71.7452 180.969 -69.4978 187.599 -54.5509C194.223 -39.6148 192.091 -18.8933 186.987 -2.82012C182.328 11.853 169.212 16.065 161.435 27.8409C154.05 39.0242 153.358 61.0304 142.739 64.1851C131.891 67.4079 124.671 47.2995 114.283 41.8487C105.001 36.9782 93.6531 42.4899 85.6699 34.2401C77.1193 25.4038 68.5754 10.978 70.1277 -3.78179C71.7513 -19.2193 88.5241 -22.1356 93.0945 -36.3565C97.6974 -50.6789 87.1825 -71.7921 95.4062 -82.4374C103.13 -92.436 115.706 -80.2259 126.179 -79.1833Z" stroke="#B53833" stroke-width="1.5"/>
<path fill-rule="evenodd" clip-rule="evenodd" d="M415.561 -160.093C442.848 -159.384 451.197 -104.797 466.599 -73.1426C476.404 -52.9927 479.429 -28.9963 489.18 -8.79541C501.776 17.2974 532.576 30.4169 531.8 61.9265C531.05 92.3814 500.343 101.348 485.908 124.091C471.764 146.375 468.511 185.853 448.045 193.888C427.541 201.937 409.408 173.406 389.777 161.829C372.687 151.751 354.212 147.223 340.149 130.26C324.588 111.491 314.034 87.0321 305.858 60.6063C295.344 26.625 272.598 -12.7852 286.025 -44.6767C299.949 -77.7522 340.198 -55.2461 363.296 -75.8259C386.153 -96.1914 388.501 -160.796 415.561 -160.093Z" stroke="#B53833" stroke-width="1.5"/>
<path fill-rule="evenodd" clip-rule="evenodd" d="M412.859 -103.796C431.495 -103.312 437.197 -66.0432 447.717 -44.4309C454.414 -30.6736 456.48 -14.29 463.14 -0.497887C471.742 17.317 492.778 26.2743 492.248 47.7875C491.736 68.5805 470.764 74.7027 460.905 90.2305C451.245 105.445 449.023 132.398 435.045 137.884C421.04 143.38 408.656 123.9 395.248 115.996C383.576 109.115 370.958 106.023 361.353 94.4419C350.725 81.6274 343.517 64.9283 337.933 46.8861C330.752 23.6854 315.217 -3.22193 324.387 -24.9958C333.897 -47.5781 361.387 -32.2121 377.162 -46.2629C392.773 -60.1675 394.377 -104.276 412.859 -103.796Z" stroke="#B53833" stroke-width="1.5"/>
<path fill-rule="evenodd" clip-rule="evenodd" d="M409.927 -44.1216C419.376 -43.8757 422.268 -24.9386 427.602 -13.9569C430.997 -6.96654 432.045 1.3583 435.421 8.36637C439.783 17.4185 450.45 21.9699 450.181 32.9012C449.921 43.4665 439.287 46.5773 434.288 54.4673C429.39 62.1981 428.264 75.8938 421.176 78.681C414.075 81.4736 407.796 71.5755 400.998 67.5593C395.079 64.0629 388.681 62.4921 383.811 56.6072C378.422 50.0959 374.767 41.6108 371.936 32.4432C368.295 20.6544 360.418 6.98222 365.068 -4.08153C369.89 -15.5561 383.828 -7.74827 391.827 -14.8878C399.743 -21.953 400.556 -44.3654 409.927 -44.1216Z" stroke="#B53833" stroke-width="1.5"/>
</g>
<path d="M324.837 558.043C430.413 558.043 516 472.456 516 366.88C516 261.303 430.413 175.717 324.837 175.717C219.26 175.717 133.674 261.303 133.674 366.88C133.674 472.456 219.26 558.043 324.837 558.043Z" fill="#263238"/>
<path d="M504.256 567.18C504.256 567.18 499.802 544.958 499.802 539.947C499.802 534.935 493.677 423.219 492.588 382.648C491.5 342.077 474.239 342.077 460.344 334.838C446.449 327.599 397.551 307.605 388.085 303.707C378.645 299.81 375.861 295.38 371.963 292.596C368.065 289.812 355.841 288.699 355.841 288.699C355.841 288.699 279.355 269.514 266.473 272.425C253.59 275.361 215.803 304.796 199.124 316.489C182.445 328.156 125.752 358.73 127.979 386.52C130.206 414.31 165.766 501.577 177.991 521.572C190.215 541.592 215.221 576.595 224.13 581.049" fill="#2AAF74"/>
<path d="M240.201 517.067C246.757 521.116 253.54 525.318 267.004 525.318C280.469 525.318 287.252 521.116 293.807 517.067C300.033 513.22 305.93 509.575 317.927 509.575C329.924 509.575 335.821 513.22 342.047 517.067C348.602 521.116 355.385 525.318 368.85 525.318C382.315 525.318 389.098 521.116 395.653 517.067C401.879 513.22 407.776 509.575 419.798 509.575C431.82 509.575 437.692 513.22 443.943 517.067C450.499 521.116 457.282 525.318 470.746 525.318C484.211 525.318 490.994 521.116 497.549 517.067C497.954 516.814 498.359 516.586 498.739 516.333C498.637 514.511 498.561 512.587 498.46 510.613C497.245 511.322 496.056 512.056 494.892 512.764C488.665 516.611 482.768 520.256 470.746 520.256C458.724 520.256 452.852 516.611 446.601 512.764C440.046 508.715 433.263 504.513 419.798 504.513C406.333 504.513 399.55 508.715 392.995 512.764C386.769 516.611 380.872 520.256 368.85 520.256C356.828 520.256 350.956 516.611 344.73 512.764C338.175 508.715 331.392 504.513 317.927 504.513C304.462 504.513 297.705 508.715 291.124 512.764C284.898 516.611 279.001 520.256 267.004 520.256C255.008 520.256 249.11 516.611 242.884 512.764C236.329 508.715 229.546 504.513 216.081 504.513C202.617 504.513 195.834 508.715 189.279 512.764C185.381 515.169 181.635 517.497 176.421 518.914C176.978 519.901 177.51 520.838 177.991 521.648C178.345 522.23 178.699 522.812 179.079 523.419C184.267 521.825 188.14 519.421 191.911 517.092C198.137 513.245 204.034 509.6 216.031 509.6C228.028 509.6 233.925 513.245 240.151 517.092L240.201 517.067Z" fill="white"/>
<path d="M500.282 544.781C498.359 545.793 496.587 546.907 494.841 547.995C488.615 551.842 482.717 555.487 470.695 555.487C458.673 555.487 452.802 551.842 446.55 547.995C439.995 543.946 433.212 539.744 419.747 539.744C406.283 539.744 399.5 543.946 392.944 547.995C386.718 551.842 380.821 555.487 368.799 555.487C356.777 555.487 350.905 551.842 344.679 547.995C338.124 543.946 331.341 539.744 317.876 539.744C304.412 539.744 297.654 543.946 291.073 547.995C284.847 551.842 278.95 555.487 266.953 555.487C254.957 555.487 249.06 551.842 242.833 547.995C236.278 543.946 229.495 539.744 216.031 539.744C205.527 539.744 199.099 542.3 193.657 545.363C194.644 546.755 195.631 548.122 196.618 549.514C201.478 546.856 207.02 544.806 216.031 544.806C228.053 544.806 233.924 548.451 240.151 552.298C246.706 556.347 253.489 560.549 266.953 560.549C280.418 560.549 287.201 556.347 293.756 552.298C299.982 548.451 305.88 544.806 317.876 544.806C329.873 544.806 335.77 548.451 341.996 552.298C348.551 556.347 355.334 560.549 368.799 560.549C382.264 560.549 389.047 556.347 395.602 552.298C401.828 548.451 407.725 544.806 419.747 544.806C431.769 544.806 437.641 548.451 443.893 552.298C450.448 556.347 457.231 560.549 470.695 560.549C484.16 560.549 490.943 556.347 497.498 552.298C498.688 551.564 499.877 550.83 501.092 550.146C500.763 548.248 500.485 546.401 500.257 544.806L500.282 544.781Z" fill="white"/>
<path d="M165.133 349.163C178.572 349.163 185.381 344.962 191.936 340.912C198.162 337.065 204.059 333.421 216.056 333.421C228.053 333.421 233.95 337.065 240.176 340.912C246.731 344.962 253.514 349.163 266.979 349.163C280.443 349.163 287.226 344.962 293.782 340.912C300.008 337.065 305.905 333.421 317.902 333.421C329.898 333.421 335.795 337.065 342.022 340.912C348.577 344.962 355.36 349.163 368.824 349.163C382.289 349.163 389.072 344.962 395.627 340.912C401.853 337.065 407.751 333.421 419.773 333.421C431.795 333.421 437.666 337.065 443.918 340.912C450.473 344.962 457.256 349.163 470.721 349.163C475.454 349.163 479.351 348.632 482.717 347.771C481.249 346.101 479.655 344.734 478.01 343.545C475.833 343.874 473.454 344.101 470.721 344.101C458.699 344.101 452.827 340.457 446.575 336.61C440.02 332.56 433.237 328.359 419.773 328.359C406.308 328.359 399.525 332.56 392.97 336.61C386.744 340.457 380.846 344.101 368.824 344.101C356.802 344.101 350.931 340.457 344.704 336.61C338.149 332.56 331.366 328.359 317.902 328.359C304.437 328.359 297.679 332.56 291.099 336.61C284.873 340.457 278.976 344.101 266.979 344.101C254.982 344.101 249.085 340.457 242.859 336.61C236.304 332.56 229.521 328.359 216.056 328.359C202.591 328.359 195.808 332.56 189.253 336.61C183.027 340.457 177.13 344.101 165.133 344.101C162.779 344.101 160.729 343.924 158.806 343.671C157.009 345.038 155.237 346.455 153.491 347.872C156.781 348.682 160.552 349.163 165.133 349.163Z" fill="white"/>
<path d="M240.201 305.681C246.757 309.731 253.54 313.932 267.004 313.932C280.469 313.932 287.252 309.731 293.807 305.681C300.033 301.834 305.93 298.19 317.927 298.19C329.924 298.19 335.821 301.834 342.047 305.681C348.602 309.731 355.385 313.932 368.85 313.932C381.53 313.932 388.288 310.212 394.514 306.365C392.033 305.352 390.034 304.517 388.642 303.96C383.707 306.719 378.088 308.87 368.85 308.87C356.828 308.87 350.956 305.226 344.73 301.379C338.175 297.329 331.392 293.128 317.927 293.128C304.462 293.128 297.705 297.329 291.124 301.379C284.898 305.226 279.001 308.87 267.004 308.87C255.007 308.87 249.11 305.226 242.884 301.379C238.885 298.898 234.81 296.393 229.192 294.798C227.344 296.114 225.497 297.456 223.649 298.772C230.887 299.936 235.468 302.745 240.227 305.681H240.201Z" fill="white"/>
<path d="M216.081 474.319C228.103 474.319 233.975 477.963 240.201 481.811C246.756 485.86 253.539 490.061 267.004 490.061C280.469 490.061 287.252 485.86 293.807 481.811C300.033 477.963 305.93 474.319 317.927 474.319C329.924 474.319 335.821 477.963 342.047 481.811C348.602 485.86 355.385 490.061 368.85 490.061C382.314 490.061 389.097 485.86 395.653 481.811C401.879 477.963 407.776 474.319 419.798 474.319C431.82 474.319 437.692 477.963 443.943 481.811C450.498 485.86 457.281 490.061 470.746 490.061C484.211 490.061 490.614 486.088 497.017 482.114C496.916 480.216 496.815 478.293 496.739 476.344C496.106 476.723 495.499 477.103 494.891 477.483C488.665 481.33 482.768 484.974 470.746 484.974C458.724 484.974 452.852 481.33 446.601 477.483C440.046 473.433 433.263 469.232 419.798 469.232C406.333 469.232 399.55 473.433 392.995 477.483C386.769 481.33 380.872 484.974 368.85 484.974C356.828 484.974 350.956 481.33 344.73 477.483C338.175 473.433 331.392 469.232 317.927 469.232C304.462 469.232 297.705 473.433 291.124 477.483C284.898 481.33 279.001 484.974 267.004 484.974C255.007 484.974 249.11 481.33 242.884 477.483C236.329 473.433 229.546 469.232 216.081 469.232C202.617 469.232 195.834 473.433 189.278 477.483C183.052 481.33 177.155 484.974 165.158 484.974C163.488 484.974 161.944 484.898 160.501 484.746C161.261 486.518 161.995 488.264 162.754 489.986C163.539 490.011 164.323 490.036 165.158 490.036C178.598 490.036 185.406 485.835 191.961 481.785C198.187 477.938 204.085 474.294 216.081 474.294V474.319Z" fill="white"/>
<path d="M446.576 371.841C440.02 367.791 433.237 363.59 419.773 363.59C406.308 363.59 399.525 367.791 392.97 371.841C386.744 375.688 380.847 379.332 368.825 379.332C356.803 379.332 350.931 375.688 344.705 371.841C338.149 367.791 331.366 363.59 317.902 363.59C304.437 363.59 297.679 367.791 291.099 371.841C284.873 375.688 278.976 379.332 266.979 379.332C254.982 379.332 249.085 375.688 242.859 371.841C236.304 367.791 229.521 363.59 216.056 363.59C202.591 363.59 195.808 367.791 189.253 371.841C183.027 375.688 177.13 379.332 165.133 379.332C153.137 379.332 147.239 375.688 141.013 371.841C138.837 370.474 136.609 369.107 134.129 367.892C133.142 369.335 132.281 370.803 131.497 372.246C133.927 373.41 136.128 374.751 138.356 376.143C144.911 380.193 151.694 384.394 165.159 384.394C178.623 384.394 185.406 380.193 191.961 376.143C198.188 372.296 204.085 368.652 216.081 368.652C228.078 368.652 233.975 372.296 240.201 376.143C246.757 380.193 253.54 384.394 267.004 384.394C280.469 384.394 287.252 380.193 293.807 376.143C300.033 372.296 305.93 368.652 317.927 368.652C329.924 368.652 335.821 372.296 342.047 376.143C348.602 380.193 355.385 384.394 368.85 384.394C382.315 384.394 389.098 380.193 395.653 376.143C401.879 372.296 407.776 368.652 419.798 368.652C431.82 368.652 437.692 372.296 443.943 376.143C450.499 380.193 457.281 384.394 470.746 384.394C480.845 384.394 487.172 382.04 492.487 379.13C492.386 377.156 492.234 375.308 492.032 373.536C486.716 376.675 480.921 379.307 470.746 379.307C458.724 379.307 452.852 375.662 446.601 371.815L446.576 371.841Z" fill="white"/>
<path d="M446.576 407.071C440.021 403.022 433.238 398.821 419.773 398.821C406.308 398.821 399.525 403.022 392.97 407.071C386.744 410.918 380.847 414.563 368.825 414.563C356.803 414.563 350.931 410.918 344.705 407.071C338.15 403.022 331.367 398.821 317.902 398.821C304.437 398.821 297.68 403.022 291.099 407.071C284.873 410.918 278.976 414.563 266.979 414.563C254.982 414.563 249.085 410.918 242.859 407.071C236.304 403.022 229.521 398.821 216.056 398.821C202.592 398.821 195.809 403.022 189.253 407.071C183.027 410.918 177.13 414.563 165.133 414.563C153.137 414.563 147.24 410.918 141.013 407.071C137.9 405.148 134.711 403.174 130.788 401.655C131.295 403.68 131.851 405.781 132.459 407.983C134.509 409.02 136.407 410.185 138.331 411.374C144.886 415.424 151.669 419.625 165.133 419.625C178.598 419.625 185.381 415.424 191.936 411.374C198.162 407.527 204.06 403.882 216.056 403.882C228.053 403.882 233.95 407.527 240.176 411.374C246.731 415.424 253.514 419.625 266.979 419.625C280.444 419.625 287.227 415.424 293.782 411.374C300.008 407.527 305.905 403.882 317.902 403.882C329.899 403.882 335.796 407.527 342.022 411.374C348.577 415.424 355.36 419.625 368.825 419.625C382.289 419.625 389.072 415.424 395.628 411.374C401.854 407.527 407.751 403.882 419.773 403.882C431.795 403.882 437.667 407.527 443.918 411.374C450.473 415.424 457.256 419.625 470.721 419.625C481.655 419.625 488.185 416.866 493.753 413.652C493.677 411.703 493.576 409.78 493.5 407.907C487.729 411.45 481.857 414.588 470.696 414.588C458.674 414.588 452.802 410.944 446.55 407.097L446.576 407.071Z" fill="white"/>
<path d="M191.936 446.605C198.162 442.758 204.06 439.113 216.056 439.113C228.053 439.113 233.95 442.758 240.176 446.605C246.731 450.655 253.514 454.856 266.979 454.856C280.444 454.856 287.227 450.655 293.782 446.605C300.008 442.758 305.905 439.113 317.902 439.113C329.899 439.113 335.796 442.758 342.022 446.605C348.577 450.655 355.36 454.856 368.825 454.856C382.289 454.856 389.072 450.655 395.628 446.605C401.854 442.758 407.751 439.113 419.773 439.113C431.795 439.113 437.667 442.758 443.918 446.605C450.473 450.655 457.256 454.856 470.721 454.856C482.692 454.856 489.374 451.54 495.322 447.946C495.221 446.023 495.145 444.099 495.044 442.176L494.841 442.302C488.615 446.149 482.718 449.794 470.696 449.794C458.674 449.794 452.802 446.149 446.55 442.302C439.995 438.253 433.212 434.051 419.748 434.051C406.283 434.051 399.5 438.253 392.945 442.302C386.719 446.149 380.822 449.794 368.799 449.794C356.777 449.794 350.906 446.149 344.679 442.302C338.124 438.253 331.341 434.051 317.877 434.051C304.412 434.051 297.654 438.253 291.074 442.302C284.848 446.149 278.951 449.794 266.954 449.794C254.957 449.794 249.06 446.149 242.834 442.302C236.279 438.253 229.496 434.051 216.031 434.051C202.566 434.051 195.783 438.253 189.228 442.302C183.002 446.149 177.105 449.794 165.108 449.794C155.339 449.794 149.619 447.364 144.456 444.378C145.316 446.706 146.177 449.06 147.062 451.414C151.643 453.413 157.237 454.856 165.083 454.856C178.522 454.856 185.33 450.655 191.886 446.605H191.936Z" fill="white"/>
<path d="M504.256 567.18C504.256 567.18 499.802 544.958 499.802 539.947C499.802 534.935 493.677 423.219 492.588 382.648C491.5 342.077 474.239 342.077 460.344 334.838C446.449 327.599 397.551 307.605 388.085 303.707C378.645 299.81 375.861 295.38 371.963 292.596C368.065 289.812 355.841 288.699 355.841 288.699C355.841 288.699 279.355 269.514 266.473 272.425C253.59 275.361 215.803 304.796 199.124 316.489C182.445 328.156 125.752 358.73 127.979 386.52C130.206 414.31 165.766 501.577 177.991 521.572C190.215 541.592 215.221 576.595 224.13 581.049" stroke="#263238" stroke-linejoin="round"/>
<path d="M445.336 567.18L454.245 381.559" stroke="#263238" stroke-linejoin="round"/>
<path d="M374.19 300.974C374.19 300.974 373.633 318.766 366.42 333.775" stroke="#263238" stroke-linejoin="round"/>
<path d="M381.429 306.517C381.429 306.517 385.883 331.522 380.315 353.213" stroke="#263238" stroke-linejoin="round"/>
<path d="M238.582 388.773C238.582 388.773 223.016 361.54 206.337 351.542" stroke="#263238" stroke-linejoin="round"/>
<path d="M212.462 338.761C212.462 338.761 229.141 355.44 233.039 368.778" stroke="#263238" stroke-linejoin="round"/>
<path d="M213.019 457.134C213.019 457.134 186.343 479.356 180.775 496.591" stroke="#263238" stroke-linejoin="round"/>
<path d="M202.465 459.361C202.465 459.361 183.002 466.574 179.13 478.267" stroke="#263238" stroke-linejoin="round"/>
<path d="M364.294 275.259C364.294 275.259 362.422 312.515 356.853 319.045C351.26 325.575 322.382 326.967 308.411 316.261C294.44 305.555 266.498 272.475 266.498 272.475L268.827 218.439C268.827 218.439 290.264 237.067 309.347 257.112C328.456 277.132 364.32 275.285 364.32 275.285L364.294 275.259Z" fill="white" stroke="#263238" stroke-linejoin="round"/>
<path d="M384.694 142.916C384.694 142.916 389.098 155.545 387.984 174.78C386.896 194.016 392.388 207.202 388.541 220.92C384.694 234.638 372.622 272.551 368.774 276.955C364.927 281.359 333.619 286.294 324.28 282.447C314.941 278.6 266.6 224.767 266.6 224.767C266.6 224.767 246.276 214.871 242.429 203.33C238.582 191.788 239.139 189.055 239.139 189.055C239.139 189.055 247.39 167.618 249.035 161.594C250.68 155.57 260.019 117.1 291.884 107.761C323.749 98.4215 348.476 106.672 357.259 109.963C366.041 113.253 375.937 122.592 375.937 122.592L384.72 142.916H384.694Z" fill="white" stroke="#263238" stroke-linejoin="round"/>
<path d="M367.686 195.104C367.686 195.104 378.113 212.137 373.735 215.427C369.331 218.718 348.476 222.008 342.427 218.718C336.378 215.428 339.668 207.177 339.668 207.177C339.668 207.177 324.837 208.265 318.231 214.871" stroke="#263238" stroke-linejoin="round"/>
<path d="M368.218 228.082C368.218 228.082 340.757 232.486 314.384 223.147C314.384 223.147 322.635 240.737 341.845 243.47C361.055 246.204 368.218 228.082 368.218 228.082Z" fill="white" stroke="#263238" stroke-linejoin="round"/>
<path d="M369.686 177.868C369.686 181.386 371.558 184.221 373.887 184.221C376.215 184.221 378.088 181.361 378.088 177.868C378.088 174.375 376.215 171.516 373.887 171.516C371.558 171.516 369.686 174.375 369.686 177.868Z" fill="#263238"/>
<path d="M328.659 189.941C330.979 189.941 332.86 187.097 332.86 183.588C332.86 180.08 330.979 177.235 328.659 177.235C326.338 177.235 324.457 180.08 324.457 183.588C324.457 187.097 326.338 189.941 328.659 189.941Z" fill="#263238"/>
<path d="M367.686 184.12C367.686 184.12 370.976 188.524 381.429 191.257" stroke="#263238" stroke-linejoin="round"/>
<path d="M331.468 192.927C331.468 192.927 323.647 197.989 315.801 197.534" stroke="#263238" stroke-linejoin="round"/>
<path d="M340.706 158.835C340.706 158.835 327.469 156.709 320.762 158.911C314.055 161.113 307.12 168.883 308.462 172.452C309.803 175.995 315.346 167.922 323.42 165.568C331.493 163.214 339.415 163.644 342.579 162.809C345.717 161.974 340.706 158.861 340.706 158.861V158.835Z" fill="#263238" stroke="#263238" stroke-linecap="round" stroke-linejoin="round"/>
<path d="M360.397 156.836C360.397 156.836 370.191 152.457 375.608 153.596C381.049 154.735 387.503 161.619 386.997 165.492C386.491 169.364 381.075 161.974 374.57 160.885C368.065 159.797 362.067 161.569 359.561 161.215C357.031 160.86 360.397 156.836 360.397 156.836Z" fill="#263238" stroke="#263238" stroke-linecap="round" stroke-linejoin="round"/>
<path d="M279.229 85.2352C279.229 85.2352 309.449 66.5567 339.111 70.9606C368.774 75.3644 396.792 93.4861 397.349 99.5351C397.905 105.584 383.606 106.672 383.606 106.672C383.606 106.672 397.88 119.302 395.147 130.843C392.388 142.384 384.719 142.941 384.719 142.941L375.937 122.617C375.937 122.617 343.515 124.263 329.797 122.061C316.08 119.859 307.829 117.125 307.829 117.125L283.101 130.312C283.101 130.312 309.474 136.361 305.627 140.208C301.78 144.055 289.707 143.498 289.707 143.498C289.707 143.498 302.337 161.088 299.046 166.023C295.756 170.959 281.456 180.855 281.456 180.855C281.456 180.855 285.86 195.686 283.101 198.976C280.343 202.267 272.674 198.976 271.003 196.774C269.358 194.572 258.374 183.031 258.374 183.031L239.139 189.08C239.139 189.08 224.307 157.772 225.395 144.586C226.484 131.4 234.178 114.923 242.429 111.633C250.68 108.343 256.172 103.939 256.172 103.939C256.172 103.939 261.664 84.1721 267.156 78.1231C272.648 72.0742 278.697 78.1232 279.254 85.2605L279.229 85.2352Z" fill="#263238" stroke="#263238" stroke-linecap="round" stroke-linejoin="round"/>
<path d="M254.451 174.78L315.194 270.552C316.485 272.602 315.953 275.31 313.979 276.702L272.497 305.934C270.269 307.504 267.182 306.77 265.891 304.365L214.361 208.29C213.373 206.443 213.778 204.165 215.322 202.773L247.592 173.869C249.693 171.996 252.958 172.452 254.451 174.831V174.78Z" fill="#2AAF74" stroke="#263238" stroke-linejoin="round"/>
<path d="M307.93 271.539C307.93 271.539 309.803 282.726 313.523 283.181C317.244 283.637 320.509 274.804 320.509 274.804C320.509 274.804 313.979 254.784 312.587 253.847C311.195 252.911 301.4 236.612 298.616 233.828C295.832 231.044 291.175 230.107 291.175 230.107C291.175 230.107 280.469 217.984 277.66 217.528C274.875 217.073 263.689 224.058 263.689 224.058C263.689 224.058 255.665 202.216 251.945 197.559C248.224 192.902 238.531 186.802 238.075 192.396C237.62 197.989 244.909 209.91 248.174 224.337C251.439 238.763 252.046 248.76 250.654 259.011C249.262 269.261 247.87 282.776 250.199 291.154C252.527 299.531 268.371 339.596 268.371 339.596L269.307 347.518L305.171 354.048C305.171 354.048 314.029 333.547 313.548 327.043C313.093 320.513 301.45 278.145 301.45 278.145L303.323 270.704L307.98 271.64L307.93 271.539Z" fill="white" stroke="#263238" stroke-linejoin="round"/>
<path d="M312.587 253.847C312.587 253.847 306.057 246.406 301.881 249.19C297.679 251.974 288.846 267.818 287.91 269.21C286.974 270.602 284.645 278.524 284.645 281.308" stroke="#263238" stroke-linejoin="round"/>
<path d="M291.175 230.082C291.175 230.082 275.812 256.631 273.939 260.352C272.066 264.072 267.89 272.45 268.346 277.132" stroke="#263238" stroke-linejoin="round"/>
<path d="M285.101 240.332L277.66 235.219L273.939 240.788V260.352L285.101 240.332Z" fill="#2AAF74" stroke="#263238" stroke-linejoin="round"/>
<path d="M263.689 224.033C263.689 224.033 258.576 224.033 257.64 231.018C256.703 238.004 255.311 267.337 255.311 267.337" stroke="#263238" stroke-linejoin="round"/>
<path d="M200.794 559.967C200.794 559.967 216.917 576.089 228.028 584.972C239.138 593.856 265.258 587.2 275.837 582.745C286.417 578.291 295.3 530.506 295.3 530.506C295.3 530.506 324.204 427.673 324.761 423.801C325.317 419.903 326.431 408.793 321.42 402.693C316.408 396.568 271.965 376.017 269.181 375.46L251.945 382.142C251.945 382.142 236.38 386.039 231.925 397.15C227.471 408.261 189.684 525.546 189.127 529.418" fill="#2AAF74"/>
<path d="M317.902 434.026C304.463 434.026 297.68 438.227 291.099 442.277C284.873 446.124 278.976 449.769 266.979 449.769C254.982 449.769 249.085 446.124 242.859 442.277C236.861 438.556 230.685 434.76 219.397 434.127C218.866 435.772 218.309 437.443 217.752 439.164C228.584 439.493 234.279 442.935 240.176 446.605C246.731 450.655 253.514 454.856 266.979 454.856C280.444 454.856 287.227 450.655 293.782 446.605C300.008 442.758 305.905 439.113 317.902 439.113C318.889 439.113 319.775 439.164 320.686 439.215C321.167 437.418 321.622 435.747 322.053 434.203C320.737 434.102 319.37 434.051 317.927 434.051L317.902 434.026Z" fill="white"/>
<path d="M266.979 384.394C273.914 384.394 279.077 383.28 283.354 381.635C280.772 380.421 278.368 379.332 276.318 378.396C273.635 378.953 270.623 379.332 267.004 379.332C264.524 379.332 262.347 379.155 260.322 378.851L251.945 382.091C255.969 383.458 260.753 384.369 267.004 384.369L266.979 384.394Z" fill="white"/>
<path d="M291.124 512.739C284.898 516.586 279.001 520.231 267.004 520.231C255.007 520.231 249.11 516.586 242.884 512.739C236.329 508.689 229.546 504.488 216.081 504.488C206.54 504.488 200.364 506.614 195.226 509.271C194.416 511.853 193.657 514.232 192.999 516.409C198.871 512.789 204.743 509.55 216.081 509.55C228.103 509.55 233.975 513.194 240.201 517.041C246.757 521.091 253.539 525.292 267.004 525.292C280.469 525.292 287.252 521.091 293.807 517.041C295.857 515.776 297.882 514.536 300.084 513.448C300.641 511.448 301.223 509.347 301.855 507.12C297.705 508.664 294.389 510.714 291.15 512.739H291.124Z" fill="white"/>
<path d="M216.081 544.781C228.103 544.781 233.975 548.425 240.201 552.272C246.756 556.322 253.539 560.523 267.004 560.523C277.634 560.523 284.088 557.916 289.555 554.803C290.238 552.399 290.846 550.045 291.428 547.767L291.124 547.944C284.898 551.792 279.001 555.436 267.004 555.436C255.007 555.436 249.11 551.792 242.884 547.944C236.329 543.895 229.546 539.694 216.081 539.694C206.362 539.694 200.136 541.895 194.948 544.629L196.77 549.387C201.604 546.755 207.147 544.756 216.081 544.756V544.781Z" fill="white"/>
<path d="M266.979 419.625C280.418 419.625 287.226 415.424 293.782 411.374C300.008 407.527 305.905 403.882 317.902 403.882C319.496 403.882 320.964 403.958 322.356 404.085C322.052 403.604 321.749 403.123 321.394 402.693C320.61 401.731 318.838 400.415 316.408 398.846C303.956 399.15 297.426 403.174 291.124 407.071C284.898 410.918 279.001 414.563 267.004 414.563C255.007 414.563 249.11 410.918 242.884 407.071C239.214 404.794 235.494 402.49 230.558 400.896C230.077 402.237 229.521 403.857 228.888 405.73C233.317 407.147 236.734 409.223 240.227 411.374C246.782 415.424 253.565 419.625 267.029 419.625H266.979Z" fill="white"/>
<path d="M240.201 481.836C246.757 485.885 253.539 490.087 267.004 490.087C280.469 490.087 287.252 485.885 293.807 481.836C298.666 478.824 303.349 475.964 310.866 474.85C311.372 473.079 311.853 471.307 312.334 469.535C302.463 470.523 296.718 474.066 291.124 477.508C284.898 481.355 279.001 485 267.004 485C255.007 485 249.11 481.355 242.884 477.508C236.329 473.458 229.546 469.257 216.081 469.257C212.994 469.257 210.26 469.485 207.805 469.89C207.198 471.737 206.616 473.585 206.033 475.433C208.893 474.775 212.133 474.344 216.081 474.344C228.103 474.344 233.975 477.989 240.201 481.836Z" fill="white"/>
<path d="M200.794 559.967C200.794 559.967 216.917 576.089 228.028 584.972C239.138 593.856 265.258 587.2 275.837 582.745C286.417 578.291 295.3 530.506 295.3 530.506C295.3 530.506 324.204 427.673 324.761 423.801C325.317 419.903 326.431 408.793 321.42 402.693C316.408 396.568 271.965 376.017 269.181 375.46L251.945 382.142C251.945 382.142 236.38 386.039 231.925 397.15C227.471 408.261 189.684 525.546 189.127 529.418" stroke="#263238" stroke-linejoin="round"/>
<path d="M251.919 382.116C251.919 382.116 256.931 330.991 262.474 329.877C268.042 328.764 307.499 336.002 316.94 344.329C326.38 352.656 323.065 357.11 321.951 362.122C320.837 367.133 312.131 396.872 312.131 396.872C312.131 396.872 258.019 382.142 251.919 382.142V382.116Z" fill="#2AAF74" stroke="#263238" stroke-linejoin="round"/>
</g>
<defs>
<clipPath id="clip0_188_3011">
<rect width="643" height="643" rx="22" fill="white"/>
</clipPath>
</defs>
</svg>
