<svg width="615" height="219" viewBox="0 0 615 219" fill="none" xmlns="http://www.w3.org/2000/svg">
<path opacity="0.1" d="M21.8296 137.579H9.91016V64.0503H51.4019V74.2095H21.8296V97.1934H49.541V107.403H21.8296V137.579ZM75.291 137.579H63.4722V81.9546H75.291V137.579ZM62.7681 67.2188C62.7681 65.1064 63.3381 63.4803 64.478 62.3403C65.6515 61.2004 67.3112 60.6304 69.457 60.6304C71.5358 60.6304 73.1452 61.2004 74.2852 62.3403C75.4587 63.4803 76.0454 65.1064 76.0454 67.2188C76.0454 69.2305 75.4587 70.8231 74.2852 71.9966C73.1452 73.1366 71.5358 73.7065 69.457 73.7065C67.3112 73.7065 65.6515 73.1366 64.478 71.9966C63.3381 70.8231 62.7681 69.2305 62.7681 67.2188ZM112.96 129.029C115.844 129.029 118.727 128.576 121.611 127.671V136.573C120.303 137.143 118.61 137.612 116.531 137.981C114.486 138.383 112.357 138.584 110.144 138.584C98.9455 138.584 93.3462 132.683 93.3462 120.881V90.9067H85.752V85.6763L93.8994 81.3511L97.9229 69.5825H105.215V81.9546H121.058V90.9067H105.215V120.68C105.215 123.53 105.919 125.642 107.328 127.017C108.769 128.358 110.647 129.029 112.96 129.029ZM181.711 137.579H169.842V103.379C169.842 99.0877 168.97 95.8857 167.227 93.7734C165.517 91.6611 162.784 90.605 159.029 90.605C154.033 90.605 150.378 92.0802 148.065 95.0308C145.751 97.9813 144.595 102.927 144.595 109.867V137.579H132.776V81.9546H142.03L143.689 89.2471H144.293C145.969 86.5983 148.35 84.5531 151.435 83.1113C154.519 81.6696 157.939 80.9487 161.694 80.9487C175.039 80.9487 181.711 87.7383 181.711 101.317V137.579ZM222.448 138.584C213.798 138.584 207.025 136.07 202.13 131.041C197.268 125.978 194.837 119.021 194.837 110.169C194.837 101.083 197.101 93.9411 201.627 88.7441C206.153 83.5472 212.373 80.9487 220.286 80.9487C227.628 80.9487 233.429 83.1784 237.687 87.6377C241.945 92.097 244.074 98.2327 244.074 106.045V112.432H207.008C207.176 117.83 208.634 121.988 211.384 124.905C214.133 127.788 218.006 129.23 223.001 129.23C226.287 129.23 229.338 128.928 232.155 128.325C235.005 127.688 238.056 126.648 241.308 125.207V134.812C238.425 136.187 235.508 137.16 232.557 137.729C229.607 138.299 226.237 138.584 222.448 138.584ZM220.286 89.9009C216.53 89.9009 213.513 91.0911 211.233 93.4717C208.986 95.8522 207.645 99.3224 207.209 103.882H232.457C232.389 99.2889 231.283 95.8187 229.137 93.4717C226.991 91.0911 224.041 89.9009 220.286 89.9009ZM294.87 121.736C294.87 127.168 292.892 131.342 288.936 134.259C284.979 137.143 279.313 138.584 271.937 138.584C264.527 138.584 258.575 137.461 254.083 135.215V125.005C260.621 128.023 266.706 129.532 272.339 129.532C279.615 129.532 283.252 127.336 283.252 122.943C283.252 121.535 282.85 120.362 282.045 119.423C281.241 118.484 279.916 117.512 278.072 116.506C276.228 115.5 273.663 114.36 270.377 113.086C263.973 110.605 259.632 108.124 257.352 105.643C255.105 103.161 253.982 99.9427 253.982 95.9863C253.982 91.2253 255.893 87.5371 259.715 84.9219C263.571 82.2731 268.802 80.9487 275.407 80.9487C281.945 80.9487 288.131 82.2731 293.965 84.9219L290.143 93.8237C284.141 91.3426 279.095 90.1021 275.004 90.1021C268.768 90.1021 265.65 91.8791 265.65 95.4331C265.65 97.1766 266.455 98.6519 268.064 99.8589C269.707 101.066 273.261 102.726 278.726 104.838C283.319 106.615 286.656 108.241 288.734 109.716C290.813 111.192 292.355 112.902 293.361 114.846C294.367 116.757 294.87 119.054 294.87 121.736ZM345.062 121.736C345.062 127.168 343.084 131.342 339.128 134.259C335.172 137.143 329.505 138.584 322.129 138.584C314.719 138.584 308.768 137.461 304.275 135.215V125.005C310.813 128.023 316.898 129.532 322.531 129.532C329.807 129.532 333.445 127.336 333.445 122.943C333.445 121.535 333.042 120.362 332.238 119.423C331.433 118.484 330.109 117.512 328.265 116.506C326.421 115.5 323.856 114.36 320.57 113.086C314.166 110.605 309.824 108.124 307.544 105.643C305.298 103.161 304.174 99.9427 304.174 95.9863C304.174 91.2253 306.085 87.5371 309.908 84.9219C313.764 82.2731 318.994 80.9487 325.599 80.9487C332.137 80.9487 338.323 82.2731 344.157 84.9219L340.335 93.8237C334.333 91.3426 329.287 90.1021 325.197 90.1021C318.96 90.1021 315.842 91.8791 315.842 95.4331C315.842 97.1766 316.647 98.6519 318.256 99.8589C319.899 101.066 323.453 102.726 328.918 104.838C333.512 106.615 336.848 108.241 338.927 109.716C341.006 111.192 342.548 112.902 343.554 114.846C344.56 116.757 345.062 119.054 345.062 121.736ZM417.183 73.3042C410.276 73.3042 404.844 75.7518 400.888 80.647C396.931 85.5422 394.953 92.2982 394.953 100.915C394.953 109.934 396.847 116.757 400.636 121.384C404.458 126.011 409.974 128.325 417.183 128.325C420.301 128.325 423.318 128.023 426.235 127.419C429.152 126.782 432.187 125.978 435.338 125.005V135.315C429.571 137.495 423.033 138.584 415.724 138.584C404.961 138.584 396.697 135.332 390.93 128.828C385.163 122.29 382.279 112.952 382.279 100.814C382.279 93.1699 383.671 86.481 386.454 80.7476C389.27 75.0142 393.327 70.6219 398.625 67.5708C403.922 64.5197 410.142 62.9941 417.283 62.9941C424.794 62.9941 431.734 64.57 438.104 67.7217L433.779 77.73C431.298 76.5565 428.666 75.5339 425.883 74.6621C423.134 73.7568 420.234 73.3042 417.183 73.3042ZM461.742 137.579H449.923V59.3228H461.742V137.579ZM517.919 137.579L516.26 130.286H515.656C514.013 132.868 511.666 134.896 508.615 136.372C505.598 137.847 502.144 138.584 498.255 138.584C491.516 138.584 486.486 136.908 483.167 133.555C479.848 130.202 478.188 125.123 478.188 118.316V81.9546H490.107V116.254C490.107 120.513 490.979 123.715 492.723 125.86C494.466 127.973 497.199 129.029 500.92 129.029C505.883 129.029 509.521 127.554 511.834 124.603C514.181 121.619 515.354 116.64 515.354 109.666V81.9546H527.224V137.579H517.919ZM572.487 80.9487C579.428 80.9487 584.826 83.4634 588.682 88.4927C592.571 93.522 594.516 100.58 594.516 109.666C594.516 118.786 592.554 125.894 588.631 130.99C584.708 136.053 579.26 138.584 572.286 138.584C565.245 138.584 559.78 136.053 555.891 130.99H555.086L552.923 137.579H544.072V59.3228H555.891V77.9312C555.891 79.3058 555.824 81.3511 555.689 84.0669C555.555 86.7827 555.455 88.5094 555.388 89.2471H555.891C559.646 83.7148 565.178 80.9487 572.487 80.9487ZM569.419 90.605C564.658 90.605 561.222 92.0132 559.109 94.8296C557.031 97.6125 555.958 102.29 555.891 108.861V109.666C555.891 116.439 556.964 121.351 559.109 124.402C561.255 127.419 564.759 128.928 569.621 128.928C573.812 128.928 576.98 127.269 579.126 123.949C581.305 120.63 582.395 115.835 582.395 109.565C582.395 96.9251 578.07 90.605 569.419 90.605Z" fill="black"/>
<g filter="url(#filter0_d_3_690)">
<rect x="410.982" y="97.7363" width="95" height="95" rx="47.5" transform="rotate(18.9334 410.982 97.7363)" fill="white" shape-rendering="crispEdges"/>
<path d="M406.929 174.272L457.062 191.469L474.259 141.337L424.126 124.14L406.929 174.272Z" fill="black"/>
</g>
<rect x="24" y="146.579" width="215" height="46" rx="18" fill="#41ADFB"/>
<g filter="url(#filter1_d_3_690)">
<rect x="35" y="154.579" width="30" height="30" rx="15" fill="white" shape-rendering="crispEdges"/>
<path d="M42 177.699H58V161.699H42V177.699Z" fill="black"/>
</g>
<path d="M82.1101 176.349C80.8141 176.349 79.7041 176.067 78.7801 175.503C77.8561 174.933 77.1451 174.141 76.6471 173.127C76.1551 172.113 75.9091 170.937 75.9091 169.599C75.9091 168.261 76.1551 167.085 76.6471 166.071C77.1451 165.057 77.8561 164.268 78.7801 163.704C79.7041 163.134 80.8141 162.849 82.1101 162.849C83.6041 162.849 84.8491 163.224 85.8451 163.974C86.8411 164.718 87.5401 165.723 87.9421 166.989L85.7551 167.592C85.5031 166.746 85.0741 166.086 84.4681 165.612C83.8621 165.132 83.0761 164.892 82.1101 164.892C81.2401 164.892 80.5141 165.087 79.9321 165.477C79.3561 165.867 78.9211 166.416 78.6271 167.124C78.3391 167.826 78.1921 168.651 78.1861 169.599C78.1861 170.547 78.3301 171.375 78.6181 172.083C78.9121 172.785 79.3501 173.331 79.9321 173.721C80.5141 174.111 81.2401 174.306 82.1101 174.306C83.0761 174.306 83.8621 174.066 84.4681 173.586C85.0741 173.106 85.5031 172.446 85.7551 171.606L87.9421 172.209C87.5401 173.475 86.8411 174.483 85.8451 175.233C84.8491 175.977 83.6041 176.349 82.1101 176.349ZM96.6412 176.079V171.399C96.6412 171.093 96.6202 170.754 96.5782 170.382C96.5362 170.01 96.4372 169.653 96.2812 169.311C96.1312 168.963 95.9032 168.678 95.5972 168.456C95.2972 168.234 94.8892 168.123 94.3732 168.123C94.0972 168.123 93.8242 168.168 93.5542 168.258C93.2842 168.348 93.0382 168.504 92.8162 168.726C92.6002 168.942 92.4262 169.242 92.2942 169.626C92.1622 170.004 92.0962 170.49 92.0962 171.084L90.8092 170.535C90.8092 169.707 90.9682 168.957 91.2862 168.285C91.6102 167.613 92.0842 167.079 92.7082 166.683C93.3322 166.281 94.1002 166.08 95.0122 166.08C95.7322 166.08 96.3262 166.2 96.7942 166.44C97.2622 166.68 97.6342 166.986 97.9102 167.358C98.1862 167.73 98.3902 168.126 98.5222 168.546C98.6542 168.966 98.7382 169.365 98.7742 169.743C98.8162 170.115 98.8372 170.418 98.8372 170.652V176.079H96.6412ZM89.9002 176.079V163.119H91.8352V169.941H92.0962V176.079H89.9002ZM105.605 176.349C104.621 176.349 103.757 176.136 103.013 175.71C102.269 175.284 101.687 174.693 101.267 173.937C100.853 173.181 100.646 172.311 100.646 171.327C100.646 170.265 100.85 169.344 101.258 168.564C101.666 167.778 102.233 167.169 102.959 166.737C103.685 166.305 104.525 166.089 105.479 166.089C106.487 166.089 107.342 166.326 108.044 166.8C108.752 167.268 109.277 167.931 109.619 168.789C109.961 169.647 110.09 170.658 110.006 171.822H107.855V171.03C107.849 169.974 107.663 169.203 107.297 168.717C106.931 168.231 106.355 167.988 105.569 167.988C104.681 167.988 104.021 168.264 103.589 168.816C103.157 169.362 102.941 170.163 102.941 171.219C102.941 172.203 103.157 172.965 103.589 173.505C104.021 174.045 104.651 174.315 105.479 174.315C106.013 174.315 106.472 174.198 106.856 173.964C107.246 173.724 107.546 173.379 107.756 172.929L109.898 173.577C109.526 174.453 108.95 175.134 108.17 175.62C107.396 176.106 106.541 176.349 105.605 176.349ZM102.257 171.822V170.184H108.944V171.822H102.257ZM115.767 176.349C114.567 176.349 113.592 176.079 112.842 175.539C112.092 174.999 111.636 174.24 111.474 173.262L113.688 172.92C113.802 173.4 114.054 173.778 114.444 174.054C114.834 174.33 115.326 174.468 115.92 174.468C116.442 174.468 116.844 174.366 117.126 174.162C117.414 173.952 117.558 173.667 117.558 173.307C117.558 173.085 117.504 172.908 117.396 172.776C117.294 172.638 117.066 172.506 116.712 172.38C116.358 172.254 115.815 172.095 115.083 171.903C114.267 171.687 113.619 171.456 113.139 171.21C112.659 170.958 112.314 170.661 112.104 170.319C111.894 169.977 111.789 169.563 111.789 169.077C111.789 168.471 111.948 167.943 112.266 167.493C112.584 167.043 113.028 166.698 113.598 166.458C114.168 166.212 114.84 166.089 115.614 166.089C116.37 166.089 117.039 166.206 117.621 166.44C118.209 166.674 118.683 167.007 119.043 167.439C119.403 167.871 119.625 168.378 119.709 168.96L117.495 169.356C117.441 168.942 117.252 168.615 116.928 168.375C116.61 168.135 116.184 168 115.65 167.97C115.14 167.94 114.729 168.018 114.417 168.204C114.105 168.384 113.949 168.639 113.949 168.969C113.949 169.155 114.012 169.314 114.138 169.446C114.264 169.578 114.516 169.71 114.894 169.842C115.278 169.974 115.848 170.136 116.604 170.328C117.378 170.526 117.996 170.754 118.458 171.012C118.926 171.264 119.262 171.567 119.466 171.921C119.676 172.275 119.781 172.704 119.781 173.208C119.781 174.186 119.424 174.954 118.71 175.512C118.002 176.07 117.021 176.349 115.767 176.349ZM127.449 176.079C126.807 176.199 126.177 176.25 125.559 176.232C124.947 176.22 124.398 176.109 123.912 175.899C123.426 175.683 123.057 175.344 122.805 174.882C122.583 174.462 122.466 174.033 122.454 173.595C122.442 173.157 122.436 172.662 122.436 172.11V163.659H124.596V171.984C124.596 172.374 124.599 172.716 124.605 173.01C124.617 173.304 124.68 173.544 124.794 173.73C125.01 174.09 125.355 174.291 125.829 174.333C126.303 174.375 126.843 174.351 127.449 174.261V176.079ZM120.672 168.06V166.359H127.449V168.06H120.672ZM137.04 176.349C136.146 176.349 135.366 176.124 134.7 175.674C134.034 175.224 133.518 174.612 133.152 173.838C132.786 173.064 132.603 172.191 132.603 171.219C132.603 170.235 132.786 169.359 133.152 168.591C133.524 167.817 134.049 167.208 134.727 166.764C135.405 166.314 136.203 166.089 137.121 166.089C138.045 166.089 138.819 166.314 139.443 166.764C140.073 167.208 140.55 167.817 140.874 168.591C141.198 169.365 141.36 170.241 141.36 171.219C141.36 172.185 141.198 173.058 140.874 173.838C140.55 174.612 140.067 175.224 139.425 175.674C138.783 176.124 137.988 176.349 137.04 176.349ZM137.373 174.405C137.955 174.405 138.423 174.273 138.777 174.009C139.137 173.739 139.398 173.364 139.56 172.884C139.728 172.404 139.812 171.849 139.812 171.219C139.812 170.583 139.728 170.028 139.56 169.554C139.398 169.074 139.143 168.702 138.795 168.438C138.447 168.168 137.997 168.033 137.445 168.033C136.863 168.033 136.383 168.177 136.005 168.465C135.627 168.747 135.348 169.131 135.168 169.617C134.988 170.097 134.898 170.631 134.898 171.219C134.898 171.813 134.985 172.353 135.159 172.839C135.339 173.319 135.612 173.7 135.978 173.982C136.344 174.264 136.809 174.405 137.373 174.405ZM139.812 176.079V169.257H139.542V163.119H141.729V176.079H139.812ZM146.97 176.349C146.268 176.349 145.674 176.217 145.188 175.953C144.702 175.683 144.333 175.326 144.081 174.882C143.835 174.438 143.712 173.949 143.712 173.415C143.712 172.947 143.79 172.527 143.946 172.155C144.102 171.777 144.342 171.453 144.666 171.183C144.99 170.907 145.41 170.682 145.926 170.508C146.316 170.382 146.772 170.268 147.294 170.166C147.822 170.064 148.392 169.971 149.004 169.887C149.622 169.797 150.267 169.701 150.939 169.599L150.165 170.04C150.171 169.368 150.021 168.873 149.715 168.555C149.409 168.237 148.893 168.078 148.167 168.078C147.729 168.078 147.306 168.18 146.898 168.384C146.49 168.588 146.205 168.939 146.043 169.437L144.063 168.816C144.303 167.994 144.759 167.334 145.431 166.836C146.109 166.338 147.021 166.089 148.167 166.089C149.031 166.089 149.79 166.23 150.444 166.512C151.104 166.794 151.593 167.256 151.911 167.898C152.085 168.24 152.19 168.591 152.226 168.951C152.262 169.305 152.28 169.692 152.28 170.112V176.079H150.381V173.973L150.696 174.315C150.258 175.017 149.745 175.533 149.157 175.863C148.575 176.187 147.846 176.349 146.97 176.349ZM147.402 174.621C147.894 174.621 148.314 174.534 148.662 174.36C149.01 174.186 149.286 173.973 149.49 173.721C149.7 173.469 149.841 173.232 149.913 173.01C150.027 172.734 150.09 172.419 150.102 172.065C150.12 171.705 150.129 171.414 150.129 171.192L150.795 171.39C150.141 171.492 149.58 171.582 149.112 171.66C148.644 171.738 148.242 171.813 147.906 171.885C147.57 171.951 147.273 172.026 147.015 172.11C146.763 172.2 146.55 172.305 146.376 172.425C146.202 172.545 146.067 172.683 145.971 172.839C145.881 172.995 145.836 173.178 145.836 173.388C145.836 173.628 145.896 173.841 146.016 174.027C146.136 174.207 146.31 174.351 146.538 174.459C146.772 174.567 147.06 174.621 147.402 174.621ZM155.356 180.399L157.228 175.26L157.264 176.772L153.025 166.359H155.284L158.29 174.063H157.714L160.639 166.359H162.808L157.39 180.399H155.356ZM172.425 176.349C171.477 176.349 170.682 176.124 170.04 175.674C169.398 175.224 168.915 174.612 168.591 173.838C168.267 173.058 168.105 172.185 168.105 171.219C168.105 170.241 168.267 169.365 168.591 168.591C168.915 167.817 169.389 167.208 170.013 166.764C170.643 166.314 171.42 166.089 172.344 166.089C173.262 166.089 174.057 166.314 174.729 166.764C175.407 167.208 175.932 167.817 176.304 168.591C176.676 169.359 176.862 170.235 176.862 171.219C176.862 172.191 176.679 173.064 176.313 173.838C175.947 174.612 175.431 175.224 174.765 175.674C174.099 176.124 173.319 176.349 172.425 176.349ZM167.736 176.079V163.119H169.923V169.257H169.653V176.079H167.736ZM172.092 174.405C172.656 174.405 173.121 174.264 173.487 173.982C173.853 173.7 174.123 173.319 174.297 172.839C174.477 172.353 174.567 171.813 174.567 171.219C174.567 170.631 174.477 170.097 174.297 169.617C174.117 169.131 173.838 168.747 173.46 168.465C173.082 168.177 172.602 168.033 172.02 168.033C171.468 168.033 171.018 168.168 170.67 168.438C170.322 168.702 170.064 169.074 169.896 169.554C169.734 170.028 169.653 170.583 169.653 171.219C169.653 171.849 169.734 172.404 169.896 172.884C170.064 173.364 170.325 173.739 170.679 174.009C171.039 174.273 171.51 174.405 172.092 174.405ZM182.491 176.358C181.771 176.358 181.177 176.238 180.709 175.998C180.241 175.758 179.869 175.452 179.593 175.08C179.317 174.708 179.113 174.312 178.981 173.892C178.849 173.472 178.762 173.076 178.72 172.704C178.684 172.326 178.666 172.02 178.666 171.786V166.359H180.862V171.039C180.862 171.339 180.883 171.678 180.925 172.056C180.967 172.428 181.063 172.788 181.213 173.136C181.369 173.478 181.597 173.76 181.897 173.982C182.203 174.204 182.614 174.315 183.13 174.315C183.406 174.315 183.679 174.27 183.949 174.18C184.219 174.09 184.462 173.937 184.678 173.721C184.9 173.499 185.077 173.196 185.209 172.812C185.341 172.428 185.407 171.942 185.407 171.354L186.694 171.903C186.694 172.731 186.532 173.481 186.208 174.153C185.89 174.825 185.419 175.362 184.795 175.764C184.171 176.16 183.403 176.358 182.491 176.358ZM185.668 176.079V173.064H185.407V166.359H187.585V176.079H185.668ZM194.011 176.349C193.117 176.349 192.337 176.124 191.671 175.674C191.005 175.224 190.489 174.612 190.123 173.838C189.757 173.064 189.574 172.191 189.574 171.219C189.574 170.235 189.757 169.359 190.123 168.591C190.495 167.817 191.02 167.208 191.698 166.764C192.376 166.314 193.174 166.089 194.092 166.089C195.016 166.089 195.79 166.314 196.414 166.764C197.044 167.208 197.521 167.817 197.845 168.591C198.169 169.365 198.331 170.241 198.331 171.219C198.331 172.185 198.169 173.058 197.845 173.838C197.521 174.612 197.038 175.224 196.396 175.674C195.754 176.124 194.959 176.349 194.011 176.349ZM194.344 174.405C194.926 174.405 195.394 174.273 195.748 174.009C196.108 173.739 196.369 173.364 196.531 172.884C196.699 172.404 196.783 171.849 196.783 171.219C196.783 170.583 196.699 170.028 196.531 169.554C196.369 169.074 196.114 168.702 195.766 168.438C195.418 168.168 194.968 168.033 194.416 168.033C193.834 168.033 193.354 168.177 192.976 168.465C192.598 168.747 192.319 169.131 192.139 169.617C191.959 170.097 191.869 170.631 191.869 171.219C191.869 171.813 191.956 172.353 192.13 172.839C192.31 173.319 192.583 173.7 192.949 173.982C193.315 174.264 193.78 174.405 194.344 174.405ZM196.783 176.079V169.257H196.513V163.119H198.7V176.079H196.783ZM205.12 176.349C204.226 176.349 203.446 176.124 202.78 175.674C202.114 175.224 201.598 174.612 201.232 173.838C200.866 173.064 200.683 172.191 200.683 171.219C200.683 170.235 200.866 169.359 201.232 168.591C201.604 167.817 202.129 167.208 202.807 166.764C203.485 166.314 204.283 166.089 205.201 166.089C206.125 166.089 206.899 166.314 207.523 166.764C208.153 167.208 208.63 167.817 208.954 168.591C209.278 169.365 209.44 170.241 209.44 171.219C209.44 172.185 209.278 173.058 208.954 173.838C208.63 174.612 208.147 175.224 207.505 175.674C206.863 176.124 206.068 176.349 205.12 176.349ZM205.453 174.405C206.035 174.405 206.503 174.273 206.857 174.009C207.217 173.739 207.478 173.364 207.64 172.884C207.808 172.404 207.892 171.849 207.892 171.219C207.892 170.583 207.808 170.028 207.64 169.554C207.478 169.074 207.223 168.702 206.875 168.438C206.527 168.168 206.077 168.033 205.525 168.033C204.943 168.033 204.463 168.177 204.085 168.465C203.707 168.747 203.428 169.131 203.248 169.617C203.068 170.097 202.978 170.631 202.978 171.219C202.978 171.813 203.065 172.353 203.239 172.839C203.419 173.319 203.692 173.7 204.058 173.982C204.424 174.264 204.889 174.405 205.453 174.405ZM207.892 176.079V169.257H207.622V163.119H209.809V176.079H207.892ZM213.61 180.399L215.482 175.26L215.518 176.772L211.279 166.359H213.538L216.544 174.063H215.968L218.893 166.359H221.062L215.644 180.399H213.61ZM223.305 176.079V174.09H225.474V176.079H223.305ZM223.305 172.839V163.119H225.474V172.839H223.305Z" fill="white"/>
<rect x="482" y="4.57861" width="133" height="44" rx="18" fill="#FDF3E7"/>
<g filter="url(#filter2_d_3_690)">
<rect x="493" y="11.5786" width="30" height="30" rx="15" fill="white" shape-rendering="crispEdges"/>
<path d="M500 34.6986H516V18.6986H500V34.6986Z" fill="black"/>
</g>
<path d="M534.203 32.5786V21.7786H535.831L539.566 29.4286L543.301 21.7786H544.928V32.5786H543.241V25.6561L539.926 32.5786H539.206L535.898 25.6561V32.5786H534.203ZM550.718 32.8036C549.898 32.8036 549.178 32.6261 548.558 32.2711C547.938 31.9161 547.453 31.4236 547.103 30.7936C546.758 30.1636 546.585 29.4386 546.585 28.6186C546.585 27.7336 546.755 26.9661 547.095 26.3161C547.435 25.6611 547.908 25.1536 548.513 24.7936C549.118 24.4336 549.818 24.2536 550.613 24.2536C551.453 24.2536 552.165 24.4511 552.75 24.8461C553.34 25.2361 553.778 25.7886 554.063 26.5036C554.348 27.2186 554.455 28.0611 554.385 29.0311H552.593V28.3711C552.588 27.4911 552.433 26.8486 552.128 26.4436C551.823 26.0386 551.343 25.8361 550.688 25.8361C549.948 25.8361 549.398 26.0661 549.038 26.5261C548.678 26.9811 548.498 27.6486 548.498 28.5286C548.498 29.3486 548.678 29.9836 549.038 30.4336C549.398 30.8836 549.923 31.1086 550.613 31.1086C551.058 31.1086 551.44 31.0111 551.76 30.8161C552.085 30.6161 552.335 30.3286 552.51 29.9536L554.295 30.4936C553.985 31.2236 553.505 31.7911 552.855 32.1961C552.21 32.6011 551.498 32.8036 550.718 32.8036ZM547.928 29.0311V27.6661H553.5V29.0311H547.928ZM558.177 32.8036C557.592 32.8036 557.097 32.6936 556.692 32.4736C556.287 32.2486 555.98 31.9511 555.77 31.5811C555.565 31.2111 555.462 30.8036 555.462 30.3586C555.462 29.9686 555.527 29.6186 555.657 29.3086C555.787 28.9936 555.987 28.7236 556.257 28.4986C556.527 28.2686 556.877 28.0811 557.307 27.9361C557.632 27.8311 558.012 27.7361 558.447 27.6511C558.887 27.5661 559.362 27.4886 559.872 27.4186C560.387 27.3436 560.925 27.2636 561.485 27.1786L560.84 27.5461C560.845 26.9861 560.72 26.5736 560.465 26.3086C560.21 26.0436 559.78 25.9111 559.175 25.9111C558.81 25.9111 558.457 25.9961 558.117 26.1661C557.777 26.3361 557.54 26.6286 557.405 27.0436L555.755 26.5261C555.955 25.8411 556.335 25.2911 556.895 24.8761C557.46 24.4611 558.22 24.2536 559.175 24.2536C559.895 24.2536 560.527 24.3711 561.072 24.6061C561.622 24.8411 562.03 25.2261 562.295 25.7611C562.44 26.0461 562.527 26.3386 562.557 26.6386C562.587 26.9336 562.602 27.2561 562.602 27.6061V32.5786H561.02V30.8236L561.282 31.1086C560.917 31.6936 560.49 32.1236 560 32.3986C559.515 32.6686 558.907 32.8036 558.177 32.8036ZM558.537 31.3636C558.947 31.3636 559.297 31.2911 559.587 31.1461C559.877 31.0011 560.107 30.8236 560.277 30.6136C560.452 30.4036 560.57 30.2061 560.63 30.0211C560.725 29.7911 560.777 29.5286 560.787 29.2336C560.802 28.9336 560.81 28.6911 560.81 28.5061L561.365 28.6711C560.82 28.7561 560.352 28.8311 559.962 28.8961C559.572 28.9611 559.237 29.0236 558.957 29.0836C558.677 29.1386 558.43 29.2011 558.215 29.2711C558.005 29.3461 557.827 29.4336 557.682 29.5336C557.537 29.6336 557.425 29.7486 557.345 29.8786C557.27 30.0086 557.232 30.1611 557.232 30.3361C557.232 30.5361 557.282 30.7136 557.382 30.8686C557.482 31.0186 557.627 31.1386 557.817 31.2286C558.012 31.3186 558.252 31.3636 558.537 31.3636ZM564.705 32.5786V21.5536H566.512V32.5786H564.705ZM575.654 32.8036C574.864 32.8036 574.202 32.6161 573.667 32.2411C573.132 31.8661 572.729 31.3561 572.459 30.7111C572.189 30.0611 572.054 29.3336 572.054 28.5286C572.054 27.7136 572.189 26.9836 572.459 26.3386C572.729 25.6936 573.124 25.1861 573.644 24.8161C574.169 24.4411 574.817 24.2536 575.587 24.2536C576.352 24.2536 577.014 24.4411 577.574 24.8161C578.139 25.1861 578.577 25.6936 578.887 26.3386C579.197 26.9786 579.352 27.7086 579.352 28.5286C579.352 29.3386 579.199 30.0661 578.894 30.7111C578.589 31.3561 578.159 31.8661 577.604 32.2411C577.049 32.6161 576.399 32.8036 575.654 32.8036ZM571.747 36.1786V24.4786H573.344V30.1636H573.569V36.1786H571.747ZM575.377 31.1836C575.847 31.1836 576.234 31.0661 576.539 30.8311C576.844 30.5961 577.069 30.2786 577.214 29.8786C577.364 29.4736 577.439 29.0236 577.439 28.5286C577.439 28.0386 577.364 27.5936 577.214 27.1936C577.064 26.7886 576.832 26.4686 576.517 26.2336C576.202 25.9936 575.802 25.8736 575.317 25.8736C574.857 25.8736 574.482 25.9861 574.192 26.2111C573.902 26.4311 573.687 26.7411 573.547 27.1411C573.412 27.5361 573.344 27.9986 573.344 28.5286C573.344 29.0536 573.412 29.5161 573.547 29.9161C573.687 30.3161 573.904 30.6286 574.199 30.8536C574.499 31.0736 574.892 31.1836 575.377 31.1836ZM581.005 32.5786V24.4786H582.603V26.4511L582.408 26.1961C582.508 25.9261 582.64 25.6811 582.805 25.4611C582.975 25.2361 583.178 25.0511 583.413 24.9061C583.613 24.7711 583.833 24.6661 584.073 24.5911C584.318 24.5111 584.568 24.4636 584.823 24.4486C585.078 24.4286 585.325 24.4386 585.565 24.4786V26.1661C585.325 26.0961 585.048 26.0736 584.733 26.0986C584.423 26.1236 584.143 26.2111 583.893 26.3611C583.643 26.4961 583.438 26.6686 583.278 26.8786C583.123 27.0886 583.008 27.3286 582.933 27.5986C582.858 27.8636 582.82 28.1511 582.82 28.4611V32.5786H581.005ZM590.532 32.8036C589.712 32.8036 588.992 32.6261 588.372 32.2711C587.752 31.9161 587.267 31.4236 586.917 30.7936C586.572 30.1636 586.4 29.4386 586.4 28.6186C586.4 27.7336 586.57 26.9661 586.91 26.3161C587.25 25.6611 587.722 25.1536 588.327 24.7936C588.932 24.4336 589.632 24.2536 590.427 24.2536C591.267 24.2536 591.98 24.4511 592.565 24.8461C593.155 25.2361 593.592 25.7886 593.877 26.5036C594.162 27.2186 594.27 28.0611 594.2 29.0311H592.407V28.3711C592.402 27.4911 592.247 26.8486 591.942 26.4436C591.637 26.0386 591.157 25.8361 590.502 25.8361C589.762 25.8361 589.212 26.0661 588.852 26.5261C588.492 26.9811 588.312 27.6486 588.312 28.5286C588.312 29.3486 588.492 29.9836 588.852 30.4336C589.212 30.8836 589.737 31.1086 590.427 31.1086C590.872 31.1086 591.255 31.0111 591.575 30.8161C591.9 30.6161 592.15 30.3286 592.325 29.9536L594.11 30.4936C593.8 31.2236 593.32 31.7911 592.67 32.1961C592.025 32.6011 591.312 32.8036 590.532 32.8036ZM587.742 29.0311V27.6661H593.315V29.0311H587.742ZM599.546 32.8036C598.756 32.8036 598.094 32.6161 597.559 32.2411C597.024 31.8661 596.621 31.3561 596.351 30.7111C596.081 30.0611 595.946 29.3336 595.946 28.5286C595.946 27.7136 596.081 26.9836 596.351 26.3386C596.621 25.6936 597.016 25.1861 597.536 24.8161C598.061 24.4411 598.709 24.2536 599.479 24.2536C600.244 24.2536 600.906 24.4411 601.466 24.8161C602.031 25.1861 602.469 25.6936 602.779 26.3386C603.089 26.9786 603.244 27.7086 603.244 28.5286C603.244 29.3386 603.091 30.0661 602.786 30.7111C602.481 31.3561 602.051 31.8661 601.496 32.2411C600.941 32.6161 600.291 32.8036 599.546 32.8036ZM595.639 36.1786V24.4786H597.236V30.1636H597.461V36.1786H595.639ZM599.269 31.1836C599.739 31.1836 600.126 31.0661 600.431 30.8311C600.736 30.5961 600.961 30.2786 601.106 29.8786C601.256 29.4736 601.331 29.0236 601.331 28.5286C601.331 28.0386 601.256 27.5936 601.106 27.1936C600.956 26.7886 600.724 26.4686 600.409 26.2336C600.094 25.9936 599.694 25.8736 599.209 25.8736C598.749 25.8736 598.374 25.9861 598.084 26.2111C597.794 26.4311 597.579 26.7411 597.439 27.1411C597.304 27.5361 597.236 27.9986 597.236 28.5286C597.236 29.0536 597.304 29.5161 597.439 29.9161C597.579 30.3161 597.796 30.6286 598.091 30.8536C598.391 31.0736 598.784 31.1836 599.269 31.1836Z" fill="black"/>
<path d="M0 48.9386H48V0.938613H0V48.9386Z" fill="black"/>
<defs>
<filter id="filter0_d_3_690" x="376.158" y="97.7363" width="128.685" height="128.685" filterUnits="userSpaceOnUse" color-interpolation-filters="sRGB">
<feFlood flood-opacity="0" result="BackgroundImageFix"/>
<feColorMatrix in="SourceAlpha" type="matrix" values="0 0 0 0 0 0 0 0 0 0 0 0 0 0 0 0 0 0 127 0" result="hardAlpha"/>
<feOffset dy="4"/>
<feGaussianBlur stdDeviation="2"/>
<feComposite in2="hardAlpha" operator="out"/>
<feColorMatrix type="matrix" values="0 0 0 0 0 0 0 0 0 0 0 0 0 0 0 0 0 0 0.05 0"/>
<feBlend mode="normal" in2="BackgroundImageFix" result="effect1_dropShadow_3_690"/>
<feBlend mode="normal" in="SourceGraphic" in2="effect1_dropShadow_3_690" result="shape"/>
</filter>
<filter id="filter1_d_3_690" x="31" y="154.579" width="38" height="38" filterUnits="userSpaceOnUse" color-interpolation-filters="sRGB">
<feFlood flood-opacity="0" result="BackgroundImageFix"/>
<feColorMatrix in="SourceAlpha" type="matrix" values="0 0 0 0 0 0 0 0 0 0 0 0 0 0 0 0 0 0 127 0" result="hardAlpha"/>
<feOffset dy="4"/>
<feGaussianBlur stdDeviation="2"/>
<feComposite in2="hardAlpha" operator="out"/>
<feColorMatrix type="matrix" values="0 0 0 0 0 0 0 0 0 0 0 0 0 0 0 0 0 0 0.05 0"/>
<feBlend mode="normal" in2="BackgroundImageFix" result="effect1_dropShadow_3_690"/>
<feBlend mode="normal" in="SourceGraphic" in2="effect1_dropShadow_3_690" result="shape"/>
</filter>
<filter id="filter2_d_3_690" x="489" y="11.5786" width="38" height="38" filterUnits="userSpaceOnUse" color-interpolation-filters="sRGB">
<feFlood flood-opacity="0" result="BackgroundImageFix"/>
<feColorMatrix in="SourceAlpha" type="matrix" values="0 0 0 0 0 0 0 0 0 0 0 0 0 0 0 0 0 0 127 0" result="hardAlpha"/>
<feOffset dy="4"/>
<feGaussianBlur stdDeviation="2"/>
<feComposite in2="hardAlpha" operator="out"/>
<feColorMatrix type="matrix" values="0 0 0 0 0 0 0 0 0 0 0 0 0 0 0 0 0 0 0.05 0"/>
<feBlend mode="normal" in2="BackgroundImageFix" result="effect1_dropShadow_3_690"/>
<feBlend mode="normal" in="SourceGraphic" in2="effect1_dropShadow_3_690" result="shape"/>
</filter>
</defs>
</svg>
