<svg width="138" height="40" viewBox="0 0 138 40" fill="none" xmlns="http://www.w3.org/2000/svg">
<g clip-path="url(#clip0_3_170)">
<path d="M12.2131 8.4989C14.8281 8.4989 17.3206 9.3774 19.1184 10.8892V8.96879H24.3485V27.3355C24.3485 35.4666 20.2012 39.5935 12.0292 39.5935C8.04533 39.5935 4.73566 38.0612 1.9163 34.9354L1.3034 34.2408L5.512 30.9311L6.06361 31.6053C8.14748 34.2204 10.4969 34.772 12.1109 34.772C16.5851 34.772 18.8733 32.8924 19.098 29.0311C17.2593 30.6043 15.1346 31.258 12.0905 31.258C5.1034 31.258 0.772217 25.3129 0.772217 19.8172C0.772217 13.5656 5.90017 8.4989 12.2131 8.4989ZM62.7163 8.96879L68.641 23.229L74.627 8.96879H80.2862L67.0679 39.5731H61.5109L65.6582 29.8279L56.8324 8.96879H62.7163ZM47.8636 8.4989C54.0948 8.4989 58.1195 11.543 58.1604 16.2623V30.9924H53.1346V29.8484C51.5614 30.9516 49.7636 31.4623 47.5367 31.4623C41.8163 31.4623 37.812 28.1118 37.812 23.3107C37.812 19.5312 40.8561 15.4656 47.4958 15.4656C49.4776 15.4656 51.3163 15.9763 52.8894 16.9161V16.5484C52.8894 13.8924 50.0496 13.3408 47.6797 13.3408C45.9432 13.3408 44.2883 13.7494 42.4496 14.6484L41.6733 15.0161L39.3238 10.5011L40.2023 10.1333C42.8174 9.03008 45.3303 8.4989 47.8636 8.4989ZM39.0582 8.4989V14.1785L37.9959 13.9129C37.4851 13.8107 37.0152 13.7494 36.5862 13.7494C34.0324 13.7494 32.5819 15.5269 32.5819 18.6118V31.0129H27.3313V8.96879H32.5819V10.1537C34.1346 8.64191 35.8507 8.4989 38.1797 8.4989H39.0582ZM48.1292 20.2871C45.0442 20.2871 43.2668 21.4516 43.2668 23.4742C43.2668 25.4967 45.0442 26.6613 48.1292 26.6613C51.2141 26.6613 52.9915 25.4967 52.9915 23.4742C52.9915 21.4516 51.2141 20.2871 48.1292 20.2871ZM12.8055 13.5247C8.69909 13.5247 6.24748 16.7322 6.24748 19.8172C6.24748 24.1075 9.57759 26.4161 12.7034 26.4161C16.2378 26.4161 19.1184 23.5355 19.0982 20.0215C19.0982 16.4871 16.2174 13.5247 12.8055 13.5247Z" fill="#CECECE"/>
<path d="M125.518 9.21397C128.644 9.21397 131.831 10.5215 133.568 13.0344H133.65V9.72473H137.307V27.9892C137.307 35.7935 133.568 39.8591 125.355 39.8591C121.616 39.8591 118.327 38.4699 115.467 35.3032L118.388 32.9946C120.636 35.7935 123.23 36.6516 125.416 36.6516C131.116 36.6516 133.629 33.8118 133.629 29.0925V27.5806H133.568C131.566 29.9709 129.502 31.1559 125.396 31.1559C118.286 31.1559 114.486 25.0473 114.486 20.1236C114.486 13.9742 119.532 9.21397 125.518 9.21397ZM100.532 9.2344C107.193 9.2344 111.994 14.3624 111.994 20.3279C111.994 26.3957 107.438 31.4011 100.532 31.4011C93.627 31.4011 89.071 26.3957 89.071 20.3279C89.0507 14.3624 93.8517 9.2344 100.532 9.2344ZM84.9238 0V24.2914C84.9238 26.6817 86.1087 27.4989 87.2732 27.4989H88.3765V30.9107H86.8646C83.4937 30.9107 81.2464 28.9903 81.2464 24.557V0H84.9238ZM100.512 12.6462C96.4668 12.6462 92.9528 15.9355 92.9528 20.3279C92.9528 24.3935 96.4464 27.9688 100.512 27.9688C104.578 27.9688 108.071 24.3935 108.071 20.3279C108.071 15.9355 104.578 12.6462 100.512 12.6462ZM126.172 12.6462C121.208 12.6462 118.409 16.5892 118.409 20.1236C118.409 25.0064 122.229 27.9279 126.05 27.9279C130.238 27.9279 133.65 24.557 133.65 20.3279C133.65 16.0581 130.156 12.6462 126.172 12.6462Z" fill="#CECECE"/>
<path d="M95.6905 19.715C95.9969 19.715 96.2625 19.8785 96.4055 20.1441H97.0797L98.1421 17.5903C98.1829 17.4677 98.3055 17.3656 98.4281 17.3247C98.6528 17.2838 98.8775 17.4064 98.9184 17.6312L100.042 22.5752L101.186 15.915C101.207 15.7516 101.329 15.629 101.493 15.5881C101.717 15.5269 101.942 15.6699 102.003 15.8946L103.229 20.9L103.862 19.0408C103.883 18.9591 103.944 18.8774 104.026 18.8161C104.21 18.6935 104.475 18.7344 104.598 18.9183L105.129 19.6742C105.15 19.858 105.15 20.0419 105.15 20.2258C105.15 20.4709 105.129 20.7161 105.109 20.9408C105.027 20.9204 104.966 20.8591 104.904 20.7978L104.373 20.0623L103.556 22.5344C103.474 22.7591 103.25 22.8613 103.025 22.8C102.882 22.7591 102.78 22.6365 102.759 22.514L101.656 18.0602L100.492 24.8226C100.451 25.0473 100.246 25.1903 100.022 25.1699C99.8378 25.1494 99.7152 25.0064 99.6743 24.8226L98.4281 19.1021L97.7539 20.7161C97.6926 20.8795 97.5292 20.9817 97.3657 20.9817H96.4055C96.2625 21.2269 95.9969 21.3903 95.6905 21.3903C95.241 21.3903 94.8528 21.0226 94.8528 20.5527C94.8732 20.1032 95.241 19.715 95.6905 19.715Z" fill="#CECECE"/>
</g>
<defs>
<clipPath id="clip0_3_170">
<rect width="136.533" height="40" fill="white" transform="translate(0.772217)"/>
</clipPath>
</defs>
</svg>
