<svg width="202" height="40" viewBox="0 0 202 40" fill="none" xmlns="http://www.w3.org/2000/svg">
<g clip-path="url(#clip0_3_175)">
<path d="M55.658 7.52925L55.5863 7.55315V18.2375H45.4517V7.55315L45.38 7.52925C43.8741 7.21852 42.3922 7.21852 40.9102 7.52925L40.8385 7.55315V32.1249L40.9102 32.1488C41.6512 32.2922 42.3922 32.3878 43.1331 32.3878C43.8741 32.3878 44.6151 32.3161 45.38 32.1488L45.4517 32.1249V22.1576H55.5863V32.1249L55.658 32.1488C57.14 32.4595 58.6458 32.4595 60.1278 32.1488L60.1995 32.1249V7.55315L60.1278 7.52925C58.6219 7.24242 57.14 7.24242 55.658 7.52925ZM71.3619 14.4371C66.0556 14.4371 62.9005 17.7834 62.9005 23.4005C62.9005 26.3166 63.5697 28.6351 64.9083 30.2366C66.3663 31.9815 68.5414 32.8658 71.4336 32.8658C76.3336 32.8658 78.8434 29.9497 79.1541 27.0576V26.9858L79.0824 26.9619C77.8395 26.5556 76.6922 26.46 75.3297 26.6512H75.2819V26.699C74.9951 28.42 73.561 29.4478 71.4814 29.4478C68.5653 29.4478 67.1312 27.8463 67.0834 24.5478H79.4171V24.4761C79.7756 21.2254 79.1302 18.5961 77.5527 16.8034C76.0946 15.2736 73.9673 14.4371 71.3619 14.4371ZM71.3141 17.6161C72.5332 17.6161 73.561 17.9985 74.2541 18.7395C74.9712 19.5044 75.3297 20.6517 75.258 22.0141H67.0834C67.1551 19.2176 68.7088 17.6161 71.3141 17.6161ZM82.4049 7.52925L82.3332 7.55315V32.1249L82.4049 32.1488C83.098 32.2922 83.7912 32.3878 84.5083 32.3878C85.2015 32.3878 85.9185 32.3161 86.6117 32.1488L86.6834 32.1249V7.55315L86.6117 7.52925C85.2254 7.21852 83.8151 7.24242 82.4049 7.52925ZM98.778 14.4371C96.9375 14.4371 95.0014 15.1541 93.161 16.5166L92.898 15.2258L92.8502 15.2019C91.7985 14.8912 90.938 14.8912 89.9102 15.2019L89.8624 15.2258V39.678L89.9341 39.7019C90.6273 39.8454 91.3205 39.941 92.0376 39.941C92.7546 39.941 93.4478 39.8693 94.141 39.7019L94.2127 39.678V31.5034C95.6707 32.4356 97.2244 32.8658 98.9693 32.8658C103.798 32.8658 106.69 29.4478 106.69 23.6873C106.666 17.8312 103.798 14.4371 98.778 14.4371ZM94.141 19.2893C95.4317 18.4049 96.6268 17.9985 97.9175 17.9985C100.858 17.9985 102.459 20.0302 102.459 23.759C102.459 27.4161 100.881 29.3522 97.8698 29.3522C96.579 29.3522 95.36 28.9458 94.141 28.0854V19.2893ZM125.119 18.9068C124.378 18.62 123.708 18.381 123.063 18.1658C119.717 16.9707 117.709 16.2536 117.661 14.4371C117.637 13.6005 117.9 12.8834 118.474 12.2858C119.31 11.4254 120.721 10.9712 122.441 10.9712C124.139 10.9712 125.453 11.4254 126.242 12.2619C126.911 12.979 127.198 13.959 127.126 15.178V15.2497L127.198 15.2736C128.656 15.5605 130.114 15.5366 131.692 15.178L131.763 15.1541V15.0824C131.859 13.0268 131.238 11.2341 129.971 9.89559C128.393 8.22242 125.86 7.33803 122.657 7.31413H122.561C116.609 7.31413 113.024 9.9673 112.976 14.4132C112.952 18.8351 117.016 20.3171 119.454 21.1776L119.812 21.321C120.625 21.6078 121.39 21.8707 122.059 22.1097C125.358 23.2571 127.341 23.9502 127.413 25.6951C127.437 26.6034 127.174 27.3444 126.624 27.918C125.836 28.7307 124.449 29.1371 122.609 29.1132C120.577 29.1132 119.023 28.5873 118.139 27.6312C117.494 26.9141 117.231 26.0058 117.326 24.9063V24.8346L117.255 24.8107C115.773 24.5239 114.267 24.5478 112.785 24.8824L112.737 24.9063V24.978C112.618 26.9619 113.215 28.7307 114.506 30.0932C116.227 31.9337 119.047 32.8898 122.68 32.8658C126.242 32.8658 132.098 31.9097 132.146 25.6951C132.074 21.56 128.537 20.2215 125.119 18.9068ZM142.83 17.9985C145.77 17.9985 146.463 19.9107 146.607 21.0341V21.1058H146.679C148.041 21.321 149.332 21.2254 150.575 20.8668L150.646 20.8429V20.7712C150.527 19.0502 149.786 17.4966 148.567 16.3732C147.181 15.1063 145.197 14.4132 142.854 14.4132C137.261 14.4132 134.178 17.6878 134.178 23.6395C134.178 29.5673 137.237 32.8419 142.782 32.8419C145.173 32.8419 147.181 32.1488 148.591 30.8341C149.762 29.7346 150.479 28.2527 150.622 26.6512V26.5795L150.551 26.5556C149.38 26.1493 148.089 26.0776 146.679 26.3166H146.631V26.3644C146.248 29.0415 143.643 29.2327 142.854 29.2327C139.842 29.2327 138.432 27.44 138.432 23.5917C138.408 19.7912 139.819 17.9985 142.83 17.9985ZM161.235 14.4371C155.738 14.4371 152.702 17.7117 152.702 23.6634C152.702 29.5912 155.738 32.8658 161.235 32.8658C166.733 32.8658 169.768 29.5912 169.768 23.6634C169.768 17.7117 166.733 14.4371 161.235 14.4371ZM165.609 23.6873C165.609 27.4878 164.175 29.3283 161.235 29.3283C158.295 29.3283 156.861 27.4878 156.861 23.6873C156.861 19.8151 158.247 17.9985 161.235 17.9985C164.175 17.9985 165.609 19.8629 165.609 23.6873ZM183.536 15.2258L183.464 15.2497V27.4878C182.078 28.6829 180.811 29.2088 179.353 29.2088C177.298 29.2088 176.413 28.0376 176.413 25.2649V15.2258L176.342 15.2019C174.955 14.8673 173.545 14.8673 172.135 15.2019L172.063 15.2258V26.2449C172.063 30.4278 174.31 32.8419 178.254 32.8419C180.357 32.8419 182.198 32.0293 184.182 30.2127L184.588 32.1249L184.636 32.1488C185.64 32.4117 186.691 32.4117 187.695 32.1488L187.767 32.1249V15.2258L187.695 15.2019C186.357 14.8673 184.946 14.8673 183.536 15.2258ZM201.009 28.8502L200.985 28.7785L200.913 28.8024C199.24 29.1849 198.26 29.161 197.686 28.7068C197.208 28.3244 196.993 27.6551 196.993 26.6034V18.7634H200.387L200.411 18.6917C200.65 17.5444 200.65 16.3732 200.411 15.2019L200.387 15.1302H196.993V10.4932L196.922 10.4693C195.535 10.1585 194.125 10.1585 192.739 10.4693L192.667 10.4932L192.691 15.1302H190.54L190.516 15.2019C190.253 16.3493 190.253 17.5444 190.516 18.6917L190.54 18.7634H192.691L192.715 26.2927C192.715 28.3961 192.834 30.5234 194.292 31.7424C195.081 32.3878 196.228 32.7224 197.71 32.7224C198.619 32.7224 199.67 32.6029 200.889 32.3639H200.937L200.961 32.3161C201.296 31.1927 201.32 30.0215 201.009 28.8502Z" fill="#CECECE"/>
<path d="M2.8097 23.2332L14.4263 11.6166C15.9321 10.1346 16.8643 8.05513 16.8643 5.78439C16.8643 3.53756 15.956 1.48195 14.498 0L2.88141 11.6166C1.37555 13.0985 0.443359 15.1781 0.443359 17.4488C0.443359 19.7195 1.35165 21.7512 2.8097 23.2332ZM30.9429 16.4449L19.3263 28.0615C17.8204 29.5434 16.8882 31.6229 16.8882 33.8937C16.8882 36.1405 17.7965 38.1961 19.2546 39.6781L30.8712 28.0615C32.377 26.5795 33.3092 24.5 33.3092 22.2293C33.3092 19.9585 32.4009 17.9268 30.9429 16.4449ZM30.8712 11.6405C32.377 10.1585 33.3092 8.07903 33.3092 5.8083C33.3092 3.56147 32.4009 1.50585 30.9429 0.0239024L2.88141 28.0615C1.37555 29.5673 0.443359 31.6229 0.443359 33.9176C0.443359 36.1644 1.35165 38.22 2.8097 39.702L30.8712 11.6405Z" fill="#CECECE"/>
</g>
<defs>
<clipPath id="clip0_3_175">
<rect width="200.784" height="40" fill="white" transform="translate(0.443359)"/>
</clipPath>
</defs>
</svg>
