<svg width="377" height="190" viewBox="0 0 377 190" fill="none" xmlns="http://www.w3.org/2000/svg">
<g clip-path="url(#clip0_93_2466)">
<path d="M374.582 161.66C372.645 161.447 370.692 161.305 368.738 161.199H209.542H209.187H208.654L147.636 161.057H147.281C146.428 161.057 145.505 161.181 144.723 161.287C144.368 161.404 144.058 161.63 143.839 161.933C143.62 162.236 143.501 162.601 143.501 162.975C143.501 163.349 143.62 163.714 143.839 164.017C144.058 164.32 144.368 164.546 144.723 164.662L147.281 164.893H147.601H208.636H209.275H209.613L368.844 164.805C370.798 164.805 372.734 164.556 374.671 164.343C374.955 164.245 375.2 164.059 375.371 163.812C375.541 163.565 375.628 163.269 375.618 162.969C375.608 162.668 375.502 162.379 375.316 162.144C375.129 161.908 374.872 161.739 374.582 161.66Z" fill="#BFBFBF"/>
<path d="M214.924 138.319H229.757C229.757 137.415 230.116 136.547 230.756 135.908C231.395 135.268 232.263 134.909 233.167 134.909C234.072 134.909 234.939 135.268 235.579 135.908C236.218 136.547 236.578 137.415 236.578 138.319V142.742C236.578 143.647 236.218 144.514 235.579 145.154C234.939 145.794 234.072 146.153 233.167 146.153C232.263 146.153 231.395 145.794 230.756 145.154C230.116 144.514 229.757 143.647 229.757 142.742H214.924C214.924 143.647 214.565 144.514 213.925 145.154C213.286 145.794 212.418 146.153 211.514 146.153C210.609 146.153 209.742 145.794 209.102 145.154C208.462 144.514 208.103 143.647 208.103 142.742V138.319C208.103 137.415 208.462 136.547 209.102 135.908C209.742 135.268 210.609 134.909 211.514 134.909C212.418 134.909 213.286 135.268 213.925 135.908C214.565 136.547 214.924 137.415 214.924 138.319Z" fill="#8695C2"/>
<path d="M245.016 138.319H259.848C259.848 137.415 260.207 136.547 260.847 135.908C261.487 135.268 262.354 134.909 263.259 134.909C264.163 134.909 265.031 135.268 265.67 135.908C266.31 136.547 266.669 137.415 266.669 138.319V142.742C266.669 143.647 266.31 144.514 265.67 145.154C265.031 145.794 264.163 146.153 263.259 146.153C262.354 146.153 261.487 145.794 260.847 145.154C260.207 144.514 259.848 143.647 259.848 142.742H245.016C245.016 143.647 244.656 144.514 244.017 145.154C243.377 145.794 242.509 146.153 241.605 146.153C240.7 146.153 239.833 145.794 239.193 145.154C238.554 144.514 238.194 143.647 238.194 142.742V138.319C238.192 137.872 238.278 137.429 238.448 137.015C238.617 136.602 238.867 136.226 239.182 135.909C239.497 135.592 239.872 135.34 240.285 135.169C240.698 134.997 241.14 134.909 241.587 134.909C242.492 134.913 243.359 135.274 244 135.912C244.641 136.55 245.006 137.415 245.016 138.319Z" fill="#8695C2"/>
<path d="M214.924 153.507H229.756C229.756 152.603 230.116 151.735 230.755 151.095C231.395 150.456 232.262 150.097 233.167 150.097C234.072 150.097 234.939 150.456 235.579 151.095C236.218 151.735 236.578 152.603 236.578 153.507V157.912C236.578 158.817 236.218 159.684 235.579 160.324C234.939 160.964 234.072 161.323 233.167 161.323C232.262 161.323 231.395 160.964 230.755 160.324C230.116 159.684 229.756 158.817 229.756 157.912H214.924C214.933 158.809 214.587 159.673 213.962 160.316C213.336 160.958 212.481 161.327 211.584 161.341C211.126 161.355 210.669 161.278 210.241 161.113C209.813 160.948 209.422 160.7 209.091 160.382C208.76 160.065 208.496 159.684 208.314 159.263C208.132 158.842 208.036 158.389 208.032 157.93V153.525C208.032 152.62 208.391 151.753 209.031 151.113C209.67 150.474 210.538 150.114 211.442 150.114C212.347 150.114 213.214 150.474 213.854 151.113C214.494 151.753 214.853 152.62 214.853 153.525L214.924 153.507Z" fill="#8695C2"/>
<path d="M245.015 153.507H259.848C259.848 152.603 260.207 151.735 260.847 151.095C261.486 150.456 262.354 150.097 263.259 150.097C264.163 150.097 265.031 150.456 265.67 151.095C266.31 151.735 266.669 152.603 266.669 153.507V157.912C266.669 158.817 266.31 159.684 265.67 160.324C265.031 160.964 264.163 161.323 263.259 161.323C262.354 161.323 261.486 160.964 260.847 160.324C260.207 159.684 259.848 158.817 259.848 157.912H245.015C245.015 158.817 244.656 159.684 244.017 160.324C243.377 160.964 242.509 161.323 241.605 161.323C240.7 161.323 239.833 160.964 239.193 160.324C238.554 159.684 238.194 158.817 238.194 157.912V153.507C238.194 152.603 238.554 151.735 239.193 151.095C239.833 150.456 240.7 150.097 241.605 150.097C242.509 150.097 243.377 150.456 244.017 151.095C244.656 151.735 245.015 152.603 245.015 153.507Z" fill="#8695C2"/>
<path d="M265.159 149.262H209.613C209.213 149.262 208.829 149.103 208.545 148.819C208.262 148.536 208.103 148.152 208.103 147.752C208.094 147.547 208.126 147.342 208.197 147.149C208.268 146.957 208.378 146.781 208.519 146.632C208.66 146.483 208.829 146.363 209.017 146.281C209.205 146.199 209.408 146.155 209.613 146.153H265.159C265.561 146.153 265.947 146.312 266.233 146.594C266.519 146.877 266.682 147.261 266.687 147.663C266.694 147.869 266.66 148.074 266.587 148.267C266.513 148.459 266.402 148.635 266.26 148.784C266.117 148.933 265.947 149.052 265.758 149.134C265.569 149.216 265.365 149.259 265.159 149.262Z" fill="#C6C6C6"/>
<path d="M233.718 19.9085C234.091 16.64 233.416 13.6202 234.731 10.3873C236.88 5.05827 244.607 3.81483 249.723 4.73853C252.014 5.14708 254.501 6.31947 255.052 8.55766C255.149 9.20948 255.304 9.85144 255.514 10.4761C256.011 11.4886 257.29 11.9505 257.965 12.8031C258.494 13.6501 258.775 14.6287 258.775 15.6275C258.775 16.6263 258.494 17.6049 257.965 18.4519C256.886 20.8229 255.238 22.8912 253.169 24.4737C252.153 25.0819 251.294 25.9219 250.664 26.925C249.989 28.3283 250.291 30.3711 248.888 31.1172C248.304 31.296 247.673 31.2379 247.131 30.9554C246.589 30.6729 246.18 30.1887 245.993 29.6073C245.646 28.4001 245.646 27.1197 245.993 25.9125C242.777 25.2908 233.15 25.1132 233.718 19.9085Z" fill="#3B2645"/>
<path d="M334.738 147.716C333.321 148.197 331.785 148.197 330.368 147.716C325.253 146.633 320.119 145.727 314.985 144.767C312.694 144.341 301.787 142.192 298.821 141.552C291.706 140.253 284.69 138.461 277.824 136.188C271.199 133.488 257.858 118.424 248.284 106.665C244.346 102.021 240.658 97.1703 237.235 92.1345C237.434 89.3867 238.455 86.7625 240.166 84.6028C242.528 81.7429 244.855 72.1684 252.6 73.7671C269.529 77.1066 280.524 120.467 286.972 121.942C295.748 123.949 303.759 128.532 312.161 131.534C314.186 132.28 316.14 132.99 317.952 133.683C321.504 134.98 325.057 136.188 328.343 137.715C330.967 138.663 333.359 140.159 335.36 142.103C336.027 142.83 336.396 143.781 336.396 144.767C336.396 145.754 336.027 146.705 335.36 147.432C335.166 147.553 334.957 147.648 334.738 147.716Z" fill="#F5A784"/>
<path d="M314.985 144.821C312.694 144.394 301.787 142.245 298.821 141.606C291.705 140.289 284.689 138.479 277.824 136.188C271.199 133.488 257.858 118.424 248.284 106.665C244.346 102.021 240.658 97.1703 237.235 92.1344C237.434 89.3867 238.455 86.7624 240.166 84.6027C242.493 81.7961 244.784 72.5236 252.298 73.7138H252.654C258.32 74.8329 263.312 80.4461 267.735 87.4804C276.439 101.407 282.745 120.911 287.026 121.888C295.801 123.895 303.812 128.478 312.214 131.48C314.239 132.226 316.193 132.937 318.005 133.63C318.076 137.57 317.029 141.451 314.985 144.821Z" fill="#8695C2"/>
<path d="M260.274 87.2851C257.904 91.4193 254.319 94.7247 250.007 96.753C248.351 97.5902 246.635 98.3027 244.873 98.8846C242.155 99.8261 239.349 100.537 236.56 101.229C230.929 102.597 225.298 103.858 219.614 104.995C214.444 106.043 209.24 107.606 204.053 108.37C203.616 108.419 203.213 108.627 202.921 108.955C202.629 109.283 202.469 109.707 202.472 110.147C202.472 113.699 200.909 120.165 198.919 127.288C198.564 128.496 198.209 129.722 197.818 130.965C193.661 144.252 188.492 158.197 188.492 158.197C185.277 159.973 181.245 156.296 181.245 156.296C181.245 156.296 182.595 140.309 184.3 125.139C184.3 124.57 184.424 124.002 184.478 123.363C185.259 116.595 185.987 109.72 187.426 103.041C188.705 97.1438 192.329 95.705 197.516 92.9872C211.384 85.4915 225.753 78.9627 240.521 73.4474C244.29 71.9422 248.371 71.3871 252.405 71.8309C254.216 72.2288 255.871 73.149 257.165 74.4777C260.274 77.5685 262.352 83.0929 260.274 87.2851Z" fill="#F5A784"/>
<path d="M189.664 158.641C189.664 158.854 189.664 159.049 189.664 159.245C189.658 159.497 189.622 159.747 189.558 159.991C189.568 160.032 189.568 160.074 189.558 160.115C189.385 160.574 189.105 160.985 188.74 161.313C188.375 161.64 187.937 161.875 187.462 161.998C186.514 162.224 185.539 162.308 184.566 162.247C180.694 162.247 176.999 162.904 173.073 162.371C170.711 162.051 165.968 161.216 166.181 157.948C166.177 157.889 166.177 157.829 166.181 157.77C166.23 157.525 166.307 157.287 166.412 157.06C166.545 156.744 166.724 156.451 166.945 156.189C167.545 155.537 168.29 155.036 169.121 154.727C169.951 154.419 170.843 154.311 171.723 154.413H172.345C172.812 154.449 173.281 154.449 173.748 154.413H174.157L174.992 154.271L175.223 154.182L175.898 153.951L176.466 153.667H176.573L177.07 153.329C177.25 153.197 177.422 153.055 177.585 152.903C177.585 152.903 177.585 152.903 177.674 152.903C177.994 152.619 178.26 152.352 178.527 152.086C179.379 151.198 180.037 150.452 181.049 150.594C183.465 150.949 186.378 152.797 185.579 155.088C185.579 155.088 188.439 155.905 189.327 154.377C189.913 153.4 190.126 154.377 190.126 155.07C190.126 156.118 189.629 157.149 189.629 158.232C189.647 158.356 189.664 158.499 189.664 158.641Z" fill="#1E1E1E"/>
<path d="M339.801 162.247H339.481C338.925 162.219 338.384 162.06 337.9 161.785C336.799 161.216 335.591 159.831 335.289 156.758C335.256 156.411 335.202 156.067 335.129 155.727C335.085 155.474 335.02 155.224 334.934 154.981C334.934 154.733 334.774 154.52 334.685 154.289V154.182L334.578 153.969C334.38 153.569 334.135 153.194 333.85 152.85V152.743C333.621 152.469 333.358 152.224 333.068 152.015L332.944 151.891C332.607 151.624 332.305 151.411 331.985 151.198C330.955 150.505 330.102 149.99 330.066 148.96C330.023 148.564 330.023 148.165 330.066 147.769C330.351 145.602 331.594 143.329 333.619 143.719C333.619 143.719 333.921 140.771 332.269 140.167C331.594 139.918 331.754 139.669 332.091 139.492C332.316 139.384 332.555 139.312 332.802 139.279C333.85 139.083 334.934 139.385 336.017 139.172H336.444C336.882 139.043 337.337 138.983 337.794 138.994H337.918H338.309C339.084 139.27 339.721 139.837 340.085 140.575L340.405 141.304C340.627 142.005 340.788 142.724 340.884 143.453C341.524 147.29 342.892 150.789 343.052 154.75C343.034 157.042 343.034 161.909 339.801 162.247Z" fill="#1E1E1E"/>
<path d="M260.594 87.4804C257.936 91.4704 254.255 94.6729 249.936 96.7529C248.303 97.5869 246.611 98.2994 244.873 98.8845C244.216 99.0977 243.559 99.3286 242.884 99.524C240.806 100.163 238.674 100.714 236.56 101.3C230.929 102.668 225.298 103.929 219.614 105.066C217.571 105.493 215.51 105.99 213.45 106.487C210.324 107.233 207.179 107.979 204.053 108.441C203.617 108.49 203.213 108.698 202.921 109.026C202.63 109.354 202.469 109.778 202.472 110.218C202.472 113.77 200.909 120.236 198.919 127.359C198.564 128.567 198.209 129.793 197.818 131.036C193.189 129.401 188.678 127.448 184.318 125.192C184.318 124.624 184.442 124.055 184.496 123.416C185.277 116.648 186.005 109.774 187.444 103.094C188.723 97.197 192.347 95.7582 197.534 93.0404C211.402 85.5447 225.771 79.0159 240.539 73.5006C245.868 71.5999 254.164 70.6407 259.013 74.3533C263.418 77.7283 263.276 82.8975 260.594 87.4804Z" fill="#8695C2"/>
<path d="M232.208 50.5503C231.853 44.5818 231.16 38.4179 229.739 38.9686C227.021 40.0166 223.362 47.0509 220.022 57.4248C216.683 67.7986 212.579 70.6052 212.579 70.6052L196.29 69.8414C192.134 69.646 188.03 70.2144 184.797 67.1413C183.811 66.0464 182.661 65.1115 181.387 64.3703C180.737 64.0109 179.995 63.8529 179.255 63.9161C178.515 63.9794 177.81 64.2611 177.23 64.7255C175.01 66.8749 175.454 71.8309 178.261 73.0033C183.003 74.7833 187.896 76.1328 192.88 77.0356C199.958 78.6547 207.149 79.7296 214.391 80.2507C217.003 80.4639 221.497 75.9342 225.245 71.2269C228.993 66.5196 232.546 61.2794 232.546 61.2794C232.546 61.2794 232.51 55.9859 232.208 50.5503ZM186.414 69.7348H186.521H186.414Z" fill="#F5A784"/>
<path d="M232.528 61.2794C232.528 61.2794 229.206 66.342 225.227 71.2269C226.328 65.476 226.68 59.6068 226.275 53.7655C226.151 49.7154 230.236 50.2128 232.208 50.5503C232.51 55.9859 232.528 61.2794 232.528 61.2794Z" fill="#E0855C"/>
<path d="M256.171 63.0913C256.142 67.0132 256.403 70.9318 256.952 74.8152C256.952 74.9573 257.059 75.0283 257.112 75.0461C253.8 75.9837 250.421 76.6667 247.005 77.0889C243.365 77.56 239.685 77.6433 236.027 77.3376C233.434 76.2718 233.078 75.5612 233.078 75.5612C232.657 74.6855 232.347 73.7606 232.155 72.8079C231.888 71.0316 230.911 69.2552 230.592 67.4789C229.917 63.9262 230.236 60.2314 228.122 57.034C227.596 56.3661 227.121 55.6595 226.701 54.9201C225.867 52.7842 225.867 50.4126 226.701 48.2766C226.701 48.1523 226.701 48.0279 226.843 47.8858C227.386 45.5457 227.772 43.172 227.998 40.7805C228.318 39.0041 230.005 38.5778 231.657 38.2936L233.434 37.9738C234.446 37.7784 235.494 37.6363 236.382 37.5298C237.715 37.3521 238.692 37.2633 238.692 37.2633L239.935 28.9678C240.202 25.0421 249.154 24.3315 249.154 24.3315L248.089 37.0857C248.089 37.0857 248.568 37.21 249.456 37.2278H249.616H251.588C251.634 37.2115 251.684 37.2115 251.73 37.2278H252.298H253.418C254.211 37.2305 255.003 37.3138 255.78 37.4765C256.32 37.5441 256.837 37.7408 257.285 38.05C257.733 38.3592 258.101 38.7717 258.356 39.2528C258.438 39.4465 258.498 39.6492 258.533 39.8568C258.81 42.8517 258.484 45.8717 257.574 48.7385C257.183 50.5148 256.935 52.2912 256.722 54.0675L256.562 55.8438C256.384 57.8511 256.277 59.8761 256.171 61.9012C256.171 62.2031 256.171 62.4696 256.171 62.7716V63.0913Z" fill="#F5A784"/>
<path d="M248.888 28.6126C247.797 30.1698 246.367 31.4587 244.705 32.3819C243.044 33.3051 241.194 33.8384 239.295 33.9416L240.006 29.0922C240.272 25.1665 249.225 24.4559 249.225 24.4559L248.888 28.6126Z" fill="#E0855C"/>
<path d="M253.471 19.6065C253.471 17.1374 251.694 17.9545 250.7 18.6473C250.91 16.7148 250.711 14.7596 250.113 12.9097C248.337 8.41555 239.207 6.95895 234.855 12.6255C233.771 14.6815 233.233 16.9811 233.292 19.3045C232.688 28.1862 236.844 31.5257 239.722 31.6146C241.869 31.7853 244.011 31.2328 245.807 30.0449C247.603 28.857 248.951 27.1021 249.634 25.0599C250.966 24.2783 253.524 22.2177 253.471 19.6065Z" fill="#F5A784"/>
<path d="M237.36 20.015C237.36 20.015 236.578 20.2815 236.738 18.9315C236.898 17.5815 237.431 17.9012 237.431 17.9012C237.431 17.9012 237.964 17.9012 237.839 18.9848C237.715 20.0683 237.36 20.015 237.36 20.015Z" fill="#3B2645"/>
<path d="M244.571 20.4591C244.571 20.4591 243.79 20.7256 243.967 19.3756C244.145 18.0255 244.642 18.3453 244.642 18.3453C244.642 18.3453 245.175 18.3453 245.051 19.4289C244.926 20.5124 244.571 20.4591 244.571 20.4591Z" fill="#3B2645"/>
<path d="M241.196 23.0881C240.823 23.0881 239.917 23.2124 239.757 22.7861C239.858 21.8498 240.079 20.9304 240.415 20.0506C240.521 19.6775 240.628 19.34 240.734 19.0025C240.734 19.0025 240.734 19.0025 240.734 18.9137H240.486C240.077 20.2992 239.757 21.7736 239.384 23.0881C239.372 23.1163 239.367 23.1473 239.37 23.178C239.373 23.2086 239.384 23.238 239.402 23.2631C239.42 23.2881 239.444 23.3081 239.472 23.3211C239.5 23.334 239.531 23.3394 239.562 23.3368C240.113 23.3368 240.663 23.4789 241.232 23.5144C241.338 23.4256 241.392 23.1236 241.196 23.0881Z" fill="#E0855C"/>
<path d="M238.336 15.9472C237.803 15.6452 236.773 15.5386 236.364 16.0893C236.349 16.1155 236.341 16.1451 236.34 16.1753C236.34 16.2055 236.347 16.2354 236.361 16.2621C236.375 16.2888 236.396 16.3114 236.422 16.3278C236.447 16.3442 236.476 16.3538 236.506 16.3558C236.773 16.3558 237.022 16.2314 237.288 16.2136C237.58 16.2134 237.869 16.2677 238.141 16.3735C238.197 16.3994 238.262 16.4018 238.32 16.3802C238.378 16.3585 238.426 16.3146 238.452 16.2581C238.477 16.2015 238.48 16.137 238.458 16.0787C238.437 16.0204 238.393 15.9731 238.336 15.9472Z" fill="#3B2645"/>
<path d="M245.832 17.0663C245.548 16.2847 244.198 16.1604 243.612 16.6222C243.583 16.6417 243.559 16.6681 243.542 16.6991C243.525 16.7301 243.517 16.7647 243.517 16.7999C243.517 16.835 243.525 16.8697 243.542 16.9007C243.559 16.9317 243.583 16.9581 243.612 16.9775C243.96 17.0221 244.312 17.0221 244.66 16.9775C244.952 17.0354 245.233 17.1373 245.495 17.2795C245.529 17.3057 245.571 17.3207 245.615 17.3226C245.658 17.3244 245.701 17.313 245.737 17.2898C245.774 17.2667 245.803 17.2329 245.82 17.1929C245.837 17.153 245.841 17.1088 245.832 17.0663Z" fill="#3B2645"/>
<path d="M242.049 25.2197C241.566 25.523 241.018 25.7058 240.45 25.7526C239.971 25.7526 239.438 25.5039 238.976 25.7526C238.964 25.7642 238.955 25.778 238.948 25.7933C238.942 25.8085 238.938 25.8249 238.938 25.8414C238.938 25.858 238.942 25.8744 238.948 25.8896C238.955 25.9049 238.964 25.9187 238.976 25.9303C239.313 26.4809 240.237 26.552 240.752 26.5342C241.091 26.5562 241.43 26.4949 241.74 26.3555C242.049 26.2162 242.32 26.0031 242.528 25.7349C242.562 25.7034 242.59 25.6655 242.609 25.6235C242.628 25.5814 242.639 25.536 242.64 25.4898C242.642 25.4437 242.635 25.3976 242.618 25.3543C242.602 25.311 242.578 25.2713 242.546 25.2375C242.515 25.2037 242.477 25.1764 242.435 25.1572C242.393 25.138 242.347 25.1272 242.301 25.1256C242.255 25.1239 242.209 25.1314 242.166 25.1475C242.122 25.1637 242.083 25.1882 242.049 25.2197Z" fill="#E0855C"/>
<path d="M252.156 11.8439C253.577 13.6203 252.156 16.0894 251.126 17.7591C251.037 17.9013 250.895 18.0789 250.735 18.0078C250.735 17.4216 250.735 16.8177 250.629 16.2315C250.602 15.9355 250.514 15.6483 250.371 15.3883C250.227 15.1283 250.03 14.9012 249.794 14.7216C249.044 14.4325 248.272 14.2067 247.484 14.0466C245.708 13.3538 245.975 10.8669 244.394 10.1386C242.813 9.41034 240.29 10.6893 239.065 11.7906C237.824 13.2398 236.339 14.4602 234.677 15.3966C233.466 15.8053 232.182 15.9506 230.911 15.8229C229.684 15.8279 228.47 15.5609 227.358 15.0413C226.453 14.544 224.765 12.8387 225.937 12.1992C226.488 11.8972 227.714 12.1992 228.442 12.0749C229.224 12.0275 229.995 11.8721 230.734 11.613C232.634 10.9202 233.256 9.44587 234.624 8.1669C235.975 6.91038 237.668 6.08273 239.489 5.78867C241.31 5.49461 243.178 5.74734 244.855 6.5149C246.66 7.40639 248.334 8.54206 249.829 9.88995C250.67 10.4595 251.45 11.1143 252.156 11.8439Z" fill="#3B2645"/>
<path d="M253.364 43.3562C252.405 45.6552 252.267 48.2147 252.973 50.6036C253.252 51.7396 253.707 52.8246 254.323 53.8188C254.537 54.1386 256.597 55.9682 256.597 56.057C256.597 56.6077 256.597 57.1761 256.473 57.8334C256.366 59.29 256.171 63.1624 256.171 63.1624C256.171 63.1624 256.171 63.7663 256.171 64.317C256.171 65.8802 256.384 67.4434 256.526 69.0065C256.526 69.8947 256.917 71.0493 256.97 72.0796C257.015 72.4216 257.015 72.768 256.97 73.1099L256.864 73.4296C256.793 73.6385 256.704 73.8407 256.597 74.0336C255.212 76.4494 251.162 78.1369 248.799 78.7764C246.54 79.3709 244.205 79.6223 241.871 79.5225C240.788 79.5225 239.704 79.5225 238.621 79.3448C237.334 79.2598 236.069 78.9721 234.873 78.4922C230.645 76.5737 231.32 71.3868 230.592 67.5855C229.917 64.0328 230.236 60.338 228.122 57.1406C227.596 56.4727 227.121 55.7661 226.701 55.0267C225.867 52.8908 225.867 50.5192 226.701 48.3832L231.711 38.489C232.03 38.489 232.35 38.3824 232.688 38.3114L233.469 38.1693C234.482 37.9739 235.53 37.8318 236.418 37.7252C235.175 41.2779 233.292 48.9517 238.194 49.7865C242.031 50.4615 244.944 46.9266 246.685 43.9957C247.822 42.0772 248.462 39.4482 249.687 37.4232H251.659C251.705 37.4069 251.755 37.4069 251.801 37.4232H252.369H253.489C254.282 37.4259 255.074 37.5092 255.851 37.6719C256.392 37.7395 256.908 37.9362 257.356 38.2454C257.804 38.5546 258.172 38.9672 258.427 39.4482C258.069 39.4693 257.712 39.5168 257.361 39.5903C256.437 39.8426 255.59 40.3179 254.893 40.9746C254.196 41.6312 253.671 42.4491 253.364 43.3562Z" fill="#FFD08A"/>
<path d="M256.224 64.246C250.238 58.7215 252.441 47.4773 252.441 46.8911C252.6 50.5859 253.613 54.2274 256.562 56.057C256.402 58.0821 256.277 60.0893 256.171 62.1144V62.9848C256.153 63.1269 256.171 63.5887 256.224 64.246Z" fill="#5D5D5D"/>
<path d="M181.12 61.0841L178.669 75.7922C177.802 75.7058 176.936 75.9523 176.244 76.4818C175.553 77.0112 175.089 77.7839 174.947 78.6429C174.804 79.5019 174.994 80.3829 175.477 81.1071C175.961 81.8313 176.702 82.3444 177.55 82.5423L181.92 83.2706C182.376 83.3771 182.85 83.3889 183.311 83.305C183.773 83.2212 184.212 83.0436 184.602 82.7832C184.992 82.5229 185.325 82.1852 185.579 81.7912C185.833 81.3973 186.004 80.9553 186.081 80.4926C186.157 80.03 186.138 79.5566 186.025 79.1016C185.911 78.6466 185.706 78.2197 185.42 77.8474C185.135 77.4751 184.777 77.1653 184.367 76.937C183.957 76.7088 183.505 76.567 183.039 76.5205L185.49 61.8301C186.388 61.9785 187.307 61.7644 188.047 61.2347C188.786 60.705 189.285 59.9032 189.434 59.0058C189.582 58.1083 189.368 57.1886 188.838 56.4491C188.308 55.7095 187.507 55.2107 186.609 55.0623L182.239 54.3518C181.796 54.2755 181.342 54.2877 180.903 54.3876C180.465 54.4876 180.05 54.6734 179.683 54.9343C179.317 55.1951 179.006 55.526 178.767 55.9077C178.529 56.2894 178.369 56.7145 178.296 57.1584C178.157 58.0525 178.375 58.9654 178.904 59.6999C179.432 60.4344 180.228 60.9316 181.12 61.0841Z" fill="#191919"/>
<path d="M221.799 83.5725L226.133 97.7833C225.3 98.0768 224.613 98.6804 224.214 99.4682C223.815 100.256 223.736 101.167 223.992 102.012C224.249 102.857 224.821 103.571 225.591 104.004C226.36 104.437 227.267 104.557 228.123 104.338L232.368 103.041C233.235 102.777 233.961 102.18 234.388 101.381C234.814 100.581 234.906 99.6449 234.642 98.778C234.378 97.9112 233.781 97.1846 232.981 96.7582C232.182 96.3318 231.245 96.2405 230.379 96.5043L226.044 82.2936C226.495 82.1816 226.919 81.9786 227.288 81.6971C227.658 81.4156 227.966 81.0615 228.194 80.6566C228.422 80.2516 228.565 79.8044 228.614 79.3423C228.663 78.8802 228.617 78.413 228.478 77.9693C228.34 77.5257 228.113 77.1149 227.81 76.7623C227.508 76.4097 227.136 76.1227 226.718 75.9188C226.301 75.7149 225.846 75.5985 225.382 75.5767C224.918 75.555 224.454 75.6283 224.019 75.7922L219.792 77.0711C218.959 77.3647 218.271 77.9682 217.873 78.7561C217.474 79.5439 217.394 80.4552 217.651 81.3002C217.907 82.1452 218.48 82.8586 219.249 83.2918C220.019 83.725 220.926 83.8447 221.781 83.6258L221.799 83.5725Z" fill="#191919"/>
<path d="M185.668 69.7703C185.856 69.1981 185.928 68.5943 185.881 67.994C185.704 67.1854 185.297 66.4452 184.709 65.8624C183.815 64.7763 182.677 63.9178 181.387 63.3577C180.744 63.0552 180.028 62.9462 179.324 63.044C178.621 63.1418 177.961 63.4421 177.426 63.9084C175.418 65.9512 175.649 69.717 178.527 70.4986C181.014 71.067 184.815 73.1453 185.668 69.7703Z" fill="#F5A784"/>
<path d="M337.172 149.706C336.746 150.487 335.662 150.914 335.005 151.482C334.556 151.854 334.134 152.257 333.743 152.69C333.514 152.416 333.252 152.171 332.962 151.962C333.042 151.826 333.131 151.695 333.228 151.571C333.74 150.903 334.337 150.306 335.005 149.795C335.475 149.301 336.104 148.987 336.781 148.906C336.873 148.907 336.964 148.934 337.042 148.983C337.12 149.032 337.183 149.102 337.223 149.185C337.264 149.268 337.281 149.361 337.272 149.453C337.262 149.545 337.228 149.632 337.172 149.706Z" fill="white"/>
<path d="M338.38 152.512C337.265 153.467 336.226 154.506 335.271 155.621L335.165 155.728C335.12 155.474 335.055 155.224 334.969 154.981C334.969 154.733 334.809 154.52 334.72 154.289C335.497 153.106 336.689 152.257 338.06 151.908C338.136 151.892 338.214 151.901 338.284 151.934C338.354 151.967 338.412 152.021 338.448 152.09C338.484 152.158 338.497 152.236 338.485 152.312C338.472 152.389 338.436 152.459 338.38 152.512Z" fill="white"/>
<path d="M175.738 158.658C175.717 158.743 175.675 158.82 175.614 158.881C175.553 158.943 175.477 158.987 175.393 159.009C175.309 159.031 175.221 159.03 175.138 159.005C175.055 158.981 174.98 158.935 174.921 158.872C174.193 158.001 173.837 156.793 173.322 156.314C172.75 155.763 172.222 155.169 171.741 154.537H172.363C172.83 154.573 173.299 154.573 173.766 154.537C174.368 155.045 174.855 155.676 175.195 156.386C175.535 157.097 175.72 157.871 175.738 158.658Z" fill="white"/>
<path d="M178.793 157.344C178.794 157.426 178.768 157.506 178.719 157.571C178.669 157.637 178.6 157.684 178.521 157.706C178.443 157.729 178.359 157.724 178.283 157.694C178.207 157.664 178.143 157.61 178.1 157.539C177.283 156.367 176.75 155.124 175.916 153.987L176.484 153.702H176.591L177.088 153.365C177.635 153.872 178.069 154.488 178.363 155.174C178.657 155.859 178.803 156.598 178.793 157.344Z" fill="white"/>
<path d="M267.735 87.4804C257.776 86.4595 247.714 87.3151 238.07 90.0028L252.281 73.6072H252.636C258.32 74.8329 263.347 80.4461 267.735 87.4804Z" fill="#6B779C"/>
<path d="M257.023 72.0085V73.0388L256.917 73.3586C256.846 73.5675 256.757 73.7696 256.65 73.9625C255.265 76.3783 251.215 78.0659 248.852 78.7053C246.593 79.2998 244.258 79.5513 241.924 79.4514C251.25 71.1737 250.522 49.6444 250.522 49.6444L256.526 57.7445C256.419 59.2011 256.224 63.0735 256.224 63.0735C256.224 63.0735 256.224 63.6775 256.224 64.2282C256.224 65.7913 256.437 67.3545 256.579 68.9177C256.65 69.8236 256.97 70.9783 257.023 72.0085Z" fill="#5D5D5D"/>
<path d="M251.037 42.4325C250.895 43.3029 250.824 44.2088 250.7 45.168C250.405 47.6693 250.393 50.1958 250.664 52.6997C251.108 57.6912 252.281 62.594 252.973 67.5499C252.973 68.0473 253.968 72.5592 253.329 72.879L239.295 81.1922C235.743 83.3239 232.616 86.0417 228.211 85.2601C226.482 84.738 224.65 84.6586 222.882 85.0291C222.29 85.1828 221.752 85.496 221.326 85.9345C220.9 86.373 220.603 86.9201 220.466 87.516C219.898 90.518 222.9 94.3372 225.902 93.7687C230.842 92.647 235.67 91.0773 240.326 89.0792C247.161 86.6256 253.766 83.5701 260.061 79.9488C262.814 78.2613 263.756 74.7086 264.164 71.7243C264.715 66.3928 264.506 61.01 263.543 55.7373C263.152 53.1083 262.654 50.4971 262.104 47.8858C261.692 45.1941 260.884 42.5782 259.706 40.1232C259.158 39.1445 258.315 38.3635 257.298 37.8914C256.281 37.4194 255.14 37.2804 254.039 37.4943C253.749 37.5681 253.474 37.6881 253.222 37.8495C252.876 38.1132 252.581 38.4384 252.352 38.8087C251.641 39.8996 251.191 41.1396 251.037 42.4325ZM230.964 86.6101H230.858H230.964Z" fill="#F5A784"/>
<path d="M247.005 56.1458C245.645 57.2419 243.937 57.8152 242.191 57.7623C240.752 57.6557 239.651 56.6787 238.283 56.5899C238.798 58.0642 241.143 58.5261 242.529 58.5794C243.463 58.6854 244.408 58.5425 245.269 58.165C246.131 57.7875 246.876 57.1889 247.431 56.43C247.502 56.2524 247.218 55.9859 247.005 56.1458Z" fill="#5D5D5D"/>
<path d="M293.989 56.6965C291.112 55.5674 288.14 54.6994 285.107 54.1031C282.567 53.4636 279.388 52.0958 276.776 52.3268C276.718 52.3279 276.661 52.342 276.609 52.3681C276.557 52.3942 276.511 52.4316 276.475 52.4775C276.44 52.5235 276.415 52.5769 276.402 52.6338C276.39 52.6907 276.39 52.7496 276.403 52.8064V53.0195C276.42 53.0274 276.438 53.0315 276.457 53.0315C276.475 53.0315 276.493 53.0274 276.51 53.0195C277.822 53.1852 279.107 53.5257 280.329 54.032L285.285 55.3643C288.034 56.2035 290.851 56.7979 293.705 57.1406C293.759 57.1438 293.812 57.1327 293.86 57.1083C293.908 57.0839 293.948 57.0472 293.977 57.002C294.006 56.9567 294.023 56.9046 294.025 56.8509C294.027 56.7972 294.014 56.7439 293.989 56.6965Z" fill="#C1CAE3"/>
<path d="M319.142 37.4232C311.423 36.5466 303.659 36.1137 295.89 36.1265C287.803 35.6558 279.698 35.6202 271.607 36.0199C271.537 36.0199 271.469 36.0479 271.419 36.0979C271.369 36.1479 271.341 36.2157 271.341 36.2863C271.341 36.357 271.369 36.4248 271.419 36.4747C271.469 36.5247 271.537 36.5528 271.607 36.5528C279.423 37.3877 287.452 37.2456 295.321 37.5653C303.191 37.885 311.149 38.6844 319 38.4002C319.533 38.3824 319.711 37.512 319.142 37.4232Z" fill="#C1CAE3"/>
<path d="M288.997 17.1729C285.942 17.7236 282.94 18.594 279.885 19.2157C277.153 19.4884 274.464 20.0847 271.874 20.992C271.874 20.992 271.874 20.992 271.874 21.0986C274.482 21.4321 277.13 21.2572 279.672 20.5835C282.934 20.0931 286.132 19.2472 289.211 18.0611C289.328 18.0328 289.43 17.9589 289.493 17.8556C289.557 17.7524 289.576 17.6282 289.548 17.5104C289.52 17.3926 289.446 17.2909 289.343 17.2276C289.239 17.1643 289.115 17.1446 288.997 17.1729Z" fill="#C1CAE3"/>
</g>
<g clip-path="url(#clip1_93_2466)">
<path d="M87.4861 148.42C80.7471 148.274 74.0368 147.515 67.4424 146.152C64.7571 145.765 62.1411 145.01 59.6717 143.91C56.4888 142.173 53.8381 139.638 51.9929 136.568C49.0133 131.955 47.2806 126.675 45.6136 121.563C44.4259 117.591 42.9386 113.711 41.1638 109.954C39.2918 106.456 37.1642 103.094 34.7976 99.895C33.7213 98.3574 32.5924 96.7685 31.5554 95.1668C25.0671 85.0192 20.414 73.8583 17.7992 62.1717C16.9655 59.1814 16.6461 56.0767 16.8541 52.9843C16.9681 51.3978 17.4318 49.8541 18.2134 48.4586C18.995 47.0632 20.076 45.8489 21.3826 44.8989C22.0337 44.4366 22.775 44.1094 23.5606 43.9375C24.3462 43.7656 25.1596 43.7527 25.9506 43.8995C28.6546 44.5658 30.2035 47.3592 30.5447 52.2283L29.6653 52.2924C29.3502 47.8333 28.0376 45.2962 25.7274 44.7324C25.0565 44.6121 24.3673 44.6286 23.7032 44.7808C23.0391 44.9329 22.4144 45.2174 21.8683 45.6165C20.6635 46.4918 19.6675 47.6119 18.9492 48.8994C18.2308 50.1869 17.8071 51.6112 17.7073 53.074C17.5033 56.0937 17.8183 59.1254 18.6393 62.0436C21.2285 73.6352 25.8418 84.7054 32.2774 94.7695C33.3143 96.3584 34.4301 97.9345 35.5064 99.4722C37.896 102.705 40.0455 106.101 41.9382 109.633C43.7299 113.433 45.2347 117.356 46.4405 121.371C48.0944 126.419 49.8008 131.622 52.728 136.17C54.482 139.112 57.0111 141.541 60.0524 143.205C62.4432 144.279 64.9811 145.009 67.5868 145.371C76.1188 146.959 85.9634 148.523 95.5455 147.062C105.705 145.499 114.277 140.296 118.49 133.172C121.115 128.738 122.165 123.549 123.189 118.552C123.909 114.071 125.178 109.692 126.97 105.507C128.543 102.478 130.397 99.5958 132.509 96.8966C133.821 95.0899 135.2 93.2319 136.447 91.3099C139.991 85.3978 141.99 78.7255 142.27 71.8811C142.549 65.0367 141.099 58.2302 138.048 52.0618C136.119 48.2818 133.926 46.1162 131.354 45.4243C130.46 45.2293 129.531 45.2512 128.647 45.488C127.764 45.7247 126.954 46.1692 126.287 46.7826C125.823 47.1649 125.472 47.6606 125.269 48.2189C125.066 48.7773 125.019 49.3782 125.132 49.9603L124.279 50.1397C124.135 49.4136 124.19 48.6635 124.436 47.9642C124.683 47.265 125.113 46.6411 125.683 46.1547C126.457 45.44 127.401 44.9241 128.43 44.6535C129.458 44.3829 130.54 44.3659 131.577 44.6042C134.412 45.3602 136.827 47.6667 138.823 51.6774C141.924 57.9667 143.397 64.9028 143.113 71.8773C142.83 78.8519 140.797 85.652 137.195 91.6815C136 93.6291 134.57 95.5256 133.257 97.3067C131.172 99.97 129.339 102.814 127.783 105.802C126.027 109.914 124.78 114.215 124.069 118.616C123.032 123.741 121.969 128.867 119.278 133.492C114.933 140.847 106.152 146.191 95.7162 147.792C92.9939 148.212 90.2421 148.422 87.4861 148.42Z" fill="#6B779C"/>
<path d="M124.922 53.3944C125.377 52.5557 125.675 51.6444 125.801 50.7035C125.828 50.5766 125.828 50.446 125.801 50.3191C125.719 50.1306 125.576 49.9732 125.395 49.8706C124.935 49.5375 124.318 49.2043 123.833 49.499C123.555 49.7158 123.372 50.0271 123.321 50.3703C123.071 51.2032 122.848 52.0361 122.651 52.9331C122.638 52.9612 122.631 52.9918 122.631 53.0228C122.631 53.0537 122.638 53.0843 122.651 53.1125C122.651 53.1893 122.743 53.2278 122.796 53.279C123.443 53.6803 124.212 53.8522 124.974 53.7659L124.922 53.3944Z" fill="#3B2645"/>
<path d="M85.4516 51.5492C85.4516 51.5492 88.0768 55.1242 91.0696 58.5711C94.0624 62.0179 97.357 65.0548 99.2866 64.8497C104.601 64.3125 109.867 63.383 115.038 62.0692C118.705 61.3167 122.295 60.2402 125.762 58.853C127.849 57.956 128.02 54.3682 126.327 52.8562C125.89 52.5378 125.367 52.3522 124.823 52.3226C124.279 52.293 123.738 52.4206 123.268 52.6896C122.333 53.2483 121.496 53.9491 120.787 54.7654C118.464 57.0462 115.419 56.7259 112.36 56.9565L100.35 57.8535C100.35 57.8535 97.2258 55.9058 94.548 48.5124C91.8703 41.1189 89.0088 36.096 86.9742 35.4041C85.9241 35.0325 85.5303 39.4916 85.4122 43.8098C85.3466 47.7436 85.4516 51.5492 85.4516 51.5492ZM119.685 56.6746H119.763H119.685Z" fill="#F5A784"/>
<path d="M85.4512 51.5492C85.4512 51.5492 88.0765 55.1242 91.0692 58.5711C90.1288 54.4474 89.7405 50.2221 89.9141 46.0009C89.9141 43.0794 86.9082 43.4382 85.4643 43.8098C85.3462 47.7436 85.4512 51.5492 85.4512 51.5492Z" fill="#E0855C"/>
<path d="M29.1007 53.3944C28.6458 52.5557 28.348 51.6444 28.2213 50.7035C28.1951 50.5766 28.1951 50.446 28.2213 50.3191C28.3037 50.1306 28.4465 49.9732 28.6282 49.8706C29.0876 49.5375 29.7045 49.2043 30.1902 49.499C30.4676 49.7158 30.6505 50.0271 30.7021 50.3703C30.9515 51.2032 31.1747 52.0361 31.3716 52.9331C31.3716 52.9331 31.3716 53.0612 31.3716 53.1125C31.3716 53.1637 31.2797 53.2278 31.2272 53.279C30.5795 53.6803 29.8103 53.8522 29.0482 53.7659L29.1007 53.3944Z" fill="#3B2645"/>
<path d="M66.6547 43.1947C66.9719 44.4626 67.2216 45.7456 67.4029 47.0387C67.6654 48.8839 67.8229 50.7291 67.9804 52.5999C67.9804 52.8177 67.9804 53.0227 67.9804 53.2277C67.9804 53.8043 68.0854 61.9538 67.5341 61.9538C72.6295 63.2648 77.9245 63.6728 83.1674 63.1583C84.2175 62.712 85.2274 62.1805 86.1864 61.5694C86.3833 61.4413 86.3702 60.0446 86.4096 59.8267C86.5802 58.5454 86.7771 57.264 86.974 55.9827C87.3809 53.4199 87.0659 50.7547 88.5623 48.4098C88.9359 47.9078 89.2737 47.3812 89.573 46.8337C90.1387 45.172 90.0355 43.3624 89.2842 41.7723C88.8477 40.1143 88.5102 38.4329 88.2735 36.7366C87.9322 35.2759 86.2258 35.1477 84.7951 34.9299L84.1913 34.8274C82.8878 34.6192 81.5729 34.4865 80.2534 34.4301L79.1508 28.4718C78.8752 25.6528 72.9684 26.4601 72.9684 26.4601L73.3096 34.507C72.4439 34.6624 71.5647 34.7354 70.6844 34.7249H70.5663H70.1463C69.2867 34.768 68.4313 34.8707 67.5867 35.0324C67.1077 35.0804 66.657 35.2767 66.3004 35.5925C65.9439 35.9084 65.7 36.3272 65.6046 36.7878C65.4077 38.9534 66.169 41.1829 66.6547 43.1947Z" fill="#F5A784"/>
<path d="M125.071 164.557C123.364 164.729 121.657 164.843 119.918 164.929L21.5917 165H21.2941H20.7929L19.0541 164.843C18.7463 164.746 18.4794 164.563 18.2905 164.322C18.1015 164.08 18 163.79 18 163.493C18 163.196 18.1015 162.906 18.2905 162.664C18.4794 162.422 18.7463 162.24 19.0541 162.143C19.6337 162.143 20.2133 162.029 20.7929 162H21.2941H21.6074H119.918C121.641 162.086 123.364 162.2 125.071 162.371C125.337 162.434 125.573 162.575 125.741 162.773C125.909 162.971 126 163.214 126 163.464C126 163.715 125.909 163.958 125.741 164.156C125.573 164.353 125.337 164.495 125.071 164.557Z" fill="#BFBFBF"/>
<path d="M76.434 74.1652C77.7246 77.737 79.2369 81.2288 80.9625 84.6211C85.596 94.1672 91.7916 105.392 91.7916 105.392C91.8835 112.311 93.4324 123.331 95.06 133.044C96.9108 144.153 98.8666 153.648 98.8666 153.648C102.306 155.775 103.526 152.533 103.526 152.533C103.526 152.533 103.658 143.154 103.618 132.429C103.618 120.896 103.356 107.827 102.555 103.175C100.599 91.643 86.6199 60.6853 86.6199 60.6853C86.388 60.4657 86.1425 60.2603 85.8848 60.0702C82.0913 57.1103 79.2036 58.4301 77.4709 61.4541C77.2211 61.9007 77.0019 62.363 76.8146 62.8379C75.4736 66.4812 75.3404 70.444 76.434 74.1652Z" fill="#F5A784"/>
<path d="M38.5386 129.828L39.8512 133.736C45.5055 132.27 51.0492 130.425 56.4427 128.213C71.2621 121.998 75.9219 115.925 75.9219 115.925C81.1724 107.98 81.6318 94.9489 80.9624 84.6852C80.6254 79.5122 79.9635 74.3643 78.9803 69.2705C78.4725 67.0418 77.7336 64.8694 76.7751 62.7868C76.552 62.2998 76.3026 61.8386 76.0401 61.3901C74.2811 58.4173 71.7215 56.4953 68.3612 59.9421C68.1775 60.1343 67.9937 60.3266 67.81 60.5444C60.3674 69.2705 71.2096 105.93 67.2455 108.954C63.2814 111.978 56.9283 116.642 51.0609 120.807C44.3928 125.65 38.5386 129.828 38.5386 129.828Z" fill="#F5A784"/>
<path d="M97.7637 154.353C97.7637 154.596 97.8424 154.827 97.8818 155.032C98.21 156.544 98.8794 156.852 101.19 157.838C103.815 158.953 110.955 161.054 111.691 158.069C111.688 158.035 111.688 158 111.691 157.966C111.691 157.505 111.691 155.621 108.58 154.942C108.033 154.831 107.51 154.632 107.031 154.353C106.72 154.171 106.441 153.942 106.204 153.674C106.007 153.472 105.835 153.249 105.692 153.007C105.548 152.79 105.443 152.585 105.324 152.38C104.97 151.688 104.721 151.098 104.091 151.034C102.568 150.804 100.428 151.355 100.52 152.854C100.52 152.854 98.6562 152.854 98.3937 151.752C98.1312 150.65 97.4618 152.251 97.7637 154.353Z" fill="black"/>
<path d="M39.7067 142.68C39.8372 142.654 39.9648 142.615 40.0873 142.564C40.7567 142.282 41.9906 141.398 41.5575 138.72C41.4325 138.061 41.4594 137.382 41.6362 136.734C41.6836 136.555 41.7451 136.379 41.82 136.209C41.9612 135.919 42.1327 135.644 42.3319 135.389C42.4719 135.209 42.6163 135.043 42.7651 134.889C43.3032 134.3 43.7889 133.838 43.6314 133.198C43.2901 131.737 41.9775 129.994 40.5861 130.635C40.5861 130.635 39.9429 128.931 40.8618 128.303C41.7806 127.675 40.0479 127.649 38.1446 128.7C37.6875 128.929 37.2674 129.223 36.8977 129.571C36.202 130.263 36.1495 131.122 36.097 133.095C35.992 135.901 36.5958 143.128 39.7067 142.68Z" fill="black"/>
<path d="M66.4054 35.955C64.384 36.6469 62.6382 41.0804 59.9605 48.538C57.2827 55.9955 54.1587 57.8791 54.1587 57.8791L42.1483 56.9949C39.0768 56.7643 36.0315 57.0846 33.7213 54.8038C33.0091 53.9909 32.1723 53.2907 31.2404 52.728C30.7709 52.4574 30.2297 52.3287 29.6853 52.3584C29.1409 52.3881 28.6178 52.5746 28.182 52.8946C26.4888 54.4066 26.6594 58.02 28.7464 58.8913C32.2139 60.2786 35.8033 61.3551 39.4705 62.1076C44.6405 63.4233 49.9065 64.3486 55.2219 64.8753C59.1598 65.311 69.0569 51.5876 69.0569 51.5876C69.0569 51.5876 68.4794 35.2118 66.4054 35.955ZM34.9026 56.713H34.9814H34.9026Z" fill="#F5A784"/>
<path d="M73.0732 26.4858L73.1783 28.8307C73.8155 30.0899 74.8013 31.1498 76.0238 31.8903C77.2464 32.6309 78.657 33.0225 80.0958 33.0207L79.2557 28.4975C78.98 25.7041 73.0732 26.4858 73.0732 26.4858Z" fill="#E0855C"/>
<path d="M69.7921 12.5318C70.2207 13.0707 70.768 13.5087 71.3935 13.8131C71.9292 14.0638 72.5077 14.2158 73.0999 14.2616C75.1607 14.441 77.4971 13.5312 77.9303 11.5195C78.3635 9.50776 77.5103 6.50937 75.2132 5.71493C74.6362 5.53733 74.0328 5.45507 73.428 5.47149H72.8505C72.223 5.43338 71.5948 5.53412 71.0128 5.7662C70.6613 5.94451 70.3456 6.18325 70.0809 6.47095C69.3415 7.3023 68.9108 8.35268 68.8584 9.45242C68.806 10.5522 69.135 11.637 69.7921 12.5318Z" fill="#3B2645"/>
<path d="M69.7921 12.5318C70.2207 13.0707 70.768 13.5087 71.3935 13.8131C71.9292 14.0638 72.5077 14.2158 73.0999 14.2616L75.5938 12.6215C75.5938 12.6215 72.4961 12.5446 71.8004 10.3791C71.236 8.62362 71.2228 6.6119 72.8505 5.47149C72.223 5.43338 71.5948 5.53412 71.0128 5.7662C70.6613 5.94451 70.3456 6.18325 70.0809 6.47095C69.3415 7.3023 68.9108 8.35268 68.8584 9.45242C68.806 10.5522 69.135 11.637 69.7921 12.5318Z" fill="#25182B"/>
<path d="M84.3487 22.8467C84.3659 22.0713 84.4229 21.2972 84.5194 20.5274C84.5981 19.8739 84.8475 19.2461 84.9132 18.6182C85.0772 17.271 84.6957 15.9147 83.8499 14.8382C82.9356 13.7846 81.7198 13.0217 80.3584 12.647C79.2684 12.3371 78.1296 12.2242 76.9981 12.3139C75.9165 12.4 74.8474 12.5976 73.8084 12.9033C72.2814 13.3323 70.9371 14.2311 69.9756 15.466C69.3222 16.459 68.9227 17.5907 68.8107 18.7659C68.6988 19.941 68.8777 21.1252 69.3324 22.2188C69.5204 22.7334 69.7717 23.2239 70.0806 23.6796C70.7697 24.442 71.6889 24.9714 72.7058 25.1916C74.1322 25.6023 75.6043 25.8433 77.0899 25.9091C78.5558 26.004 80.028 25.8918 81.461 25.576C81.9873 25.5026 82.4923 25.3236 82.9442 25.0501C83.396 24.7766 83.7849 24.4147 84.0862 23.9871C84.2358 23.6705 84.3034 23.3229 84.2831 22.9748L84.3487 22.8467Z" fill="#3B2645"/>
<path d="M70.0414 21.5269C70.514 20.7965 71.1965 21.0144 71.7478 21.4116C71.6531 20.2384 71.7959 19.0585 72.1679 17.9391C73.4805 14.6716 80.1748 13.544 83.4433 17.6059C84.2612 19.0801 84.677 20.7348 84.6509 22.411C85.1759 28.7538 82.1438 31.2396 80.0173 31.3806C78.3424 31.5308 76.6669 31.0991 75.2861 30.1614C73.9053 29.2238 72.9079 27.8404 72.4698 26.2551C70.8946 25.3454 69.3064 22.6801 70.0414 21.5269Z" fill="#F5A784"/>
<path d="M81.6056 22.962C81.6056 22.962 82.1831 23.1286 82.0518 22.1676C81.9206 21.2066 81.5399 21.4244 81.5399 21.4244C81.5399 21.4244 81.1461 21.4244 81.238 22.206C81.3299 22.9877 81.6056 22.962 81.6056 22.962Z" fill="#3B2645"/>
<path d="M76.3551 23.3336C76.3551 23.3336 76.9326 23.513 76.8013 22.5392C76.6701 21.5653 76.2894 21.8088 76.2894 21.8088C76.2894 21.8088 75.8956 21.8088 75.9875 22.5904C76.0794 23.3721 76.3551 23.3336 76.3551 23.3336Z" fill="#3B2645"/>
<path d="M78.8488 25.1916C79.1245 25.1916 79.7939 25.2813 79.9121 24.9738C79.8222 24.2985 79.6504 23.6361 79.4002 23.0005L79.1508 22.2445H79.2164C79.2723 22.2081 79.3346 22.1821 79.4002 22.1676C79.7152 23.1671 79.9646 24.2178 80.2533 25.166C80.2625 25.1863 80.2662 25.2087 80.2638 25.2308C80.2615 25.2529 80.2533 25.2741 80.2401 25.2922C80.2268 25.3103 80.209 25.3247 80.1883 25.334C80.1676 25.3434 80.1448 25.3473 80.1221 25.3454C79.7152 25.3454 79.3083 25.4735 78.8882 25.4863C78.8482 25.4914 78.8077 25.4808 78.7757 25.4568C78.7437 25.4327 78.7228 25.3973 78.7176 25.3582C78.7124 25.3191 78.7233 25.2796 78.7479 25.2484C78.7725 25.2171 78.8088 25.1967 78.8488 25.1916Z" fill="#E0855C"/>
<path d="M80.8964 20.0277C81.2902 19.8099 82.0384 19.7202 82.3534 20.1174C82.4191 20.1815 82.3534 20.2968 82.2615 20.2968C82.1697 20.2968 81.8809 20.2199 81.6709 20.2071C81.4588 20.2114 81.2494 20.2549 81.0539 20.3352C81.015 20.3419 80.9748 20.3362 80.9395 20.3188C80.9041 20.3014 80.8755 20.2733 80.8578 20.2388C80.8401 20.2042 80.8343 20.165 80.8412 20.127C80.8482 20.089 80.8676 20.0542 80.8964 20.0277Z" fill="#3B2645"/>
<path d="M75.3705 20.899C75.5674 20.3223 76.565 20.2326 77.0113 20.553C77.1163 20.6299 77.0113 20.7836 77.0113 20.8221C76.7538 20.8476 76.4943 20.8476 76.2368 20.8221C76.0246 20.8755 75.818 20.9484 75.6199 21.0399C75.5995 21.0697 75.5683 21.0908 75.5326 21.0989C75.4968 21.107 75.4593 21.1015 75.4275 21.0836C75.3958 21.0656 75.3722 21.0366 75.3616 21.0023C75.351 20.968 75.3542 20.931 75.3705 20.899Z" fill="#3B2645"/>
<path d="M78.2319 26.742C78.5913 26.9527 78.9955 27.0799 79.4133 27.1136C79.7808 27.1136 80.1615 26.9342 80.5159 27.0367C80.5299 27.0392 80.5431 27.0449 80.5545 27.0532C80.5658 27.0616 80.5751 27.0724 80.5814 27.0848C80.5878 27.0972 80.5911 27.1109 80.5911 27.1248C80.5911 27.1387 80.5879 27.1524 80.5815 27.1648C80.3321 27.5621 79.6496 27.6261 79.2689 27.6133C79.0195 27.6318 78.7693 27.59 78.5404 27.4917C78.3114 27.3934 78.1108 27.2415 77.9563 27.0495C77.9345 27.0104 77.9255 26.9657 77.9306 26.9215C77.9356 26.8772 77.9544 26.8356 77.9844 26.8021C78.0144 26.7686 78.0543 26.7448 78.0985 26.7341C78.1428 26.7234 78.1893 26.7261 78.2319 26.742Z" fill="#E0855C"/>
<path d="M71.8788 21.514V21.5909C71.9234 21.6889 71.9761 21.7832 72.0363 21.8728C72.067 21.9196 72.11 21.9573 72.1608 21.9822C72.2117 22.007 72.2684 22.0179 72.3251 22.0138C72.4784 21.9416 72.6131 21.8364 72.7189 21.7063C73.2757 20.9412 73.502 19.9931 73.349 19.0667C73.1652 16.5039 75.1079 16.6961 76.4205 16.1067C77.7331 15.5173 77.6281 14.9919 77.6281 14.9919C78.2455 15.437 78.9874 15.6873 79.7545 15.7095C81.0671 15.7095 81.7891 16.2348 81.8285 17.2984C81.8678 18.3619 83.7711 17.9006 84.0074 18.8104C84.2437 19.7201 83.9287 17.1959 83.9287 17.1959L80.8965 13.9797L76.7093 13.6465L72.9552 15.2097L70.5925 17.1959C70.3693 18.2722 69.5292 20.2071 70.855 20.899C71.065 21.0143 71.3013 21.0656 71.4982 21.1937C71.6476 21.2719 71.7775 21.3813 71.8788 21.514Z" fill="#3B2645"/>
<path d="M67.5869 62.005C72.6823 63.3161 77.9772 63.724 83.2202 63.2095C84.3713 62.705 85.4591 62.073 86.4623 61.3259C86.6461 61.1978 86.8299 57.3024 87.0268 56.0083C87.4337 53.4455 87.1187 50.7803 88.615 48.4354C88.9887 47.9334 89.3264 47.4068 89.6258 46.8593C90.1915 45.1976 90.0882 43.3881 89.337 41.798C88.9005 40.1399 88.563 38.4585 88.3263 36.7622C87.985 35.3015 86.2786 35.1733 84.8478 34.9555C80.5162 37.5182 74.7932 36.2369 70.7241 34.7633H70.304C69.4444 34.8064 68.5891 34.9092 67.7444 35.0708C68.4637 37.0451 68.9053 39.1055 69.057 41.1957C69.3568 45.0364 68.9749 48.8988 67.9282 52.6127C67.9282 52.8305 67.9282 53.0355 67.9282 53.2405C67.9282 53.4456 67.9282 55.7007 67.9282 57.815C67.9282 59.9292 67.8626 62.005 67.5869 62.005Z" fill="#FFD08A"/>
<path d="M68.0329 53.2791C68.0329 53.561 68.0329 55.7393 68.0329 57.8535C72.4827 52.0361 69.2143 41.6187 69.0961 41.1958C69.3959 45.0365 69.014 48.8989 67.9673 52.6127C68.0067 52.869 68.0198 53.074 68.0329 53.2791Z" fill="#25182B"/>
<path d="M51.1001 120.858C52.3153 123.639 54.1386 126.128 56.4425 128.149C71.2619 121.934 75.9217 115.861 75.9217 115.861C81.1722 107.916 81.6316 94.8848 80.9621 84.6211C85.5957 94.1673 91.7912 105.392 91.7912 105.392C92.1008 112.451 92.8415 119.485 94.0096 126.458C94.3509 128.713 94.7053 130.904 95.0597 133.044C97.9275 133.314 100.822 133.106 103.618 132.429C103.618 120.896 103.355 107.827 102.555 103.175C100.599 91.643 86.6195 60.6853 86.6195 60.6853C86.6195 60.6853 80.8178 63.9527 67.8491 60.5956C63.6619 65.516 65.2239 79.2522 66.7596 90.887C67.7704 98.8058 68.7286 105.738 67.7966 108.224C67.7027 108.525 67.5256 108.796 67.2847 109.005C65.0926 110.684 52.0714 120.153 51.1001 120.858Z" fill="#8695C2"/>
<path d="M80.9624 84.6467C85.5828 94.1929 91.7915 105.418 91.7915 105.418C92.101 112.476 92.8418 119.511 94.0098 126.483C93.6423 119.846 94.7055 105.981 93.4848 102.765C92.2641 99.549 81.3037 85.0824 80.9624 84.6467Z" fill="#6B779C"/>
<path d="M54.0405 118.693C58.4202 116.094 63.0073 113.844 67.7574 111.965C68.2061 111.8 68.6 111.518 68.8962 111.15C69.1924 110.782 69.3796 110.341 69.4375 109.877C70.2907 102.804 66.891 91.502 66.7073 90.887C67.718 98.8058 68.6762 105.738 67.7443 108.224C67.6503 108.525 67.4732 108.796 67.2323 109.005C65.0928 110.684 55.6025 117.603 54.0405 118.693Z" fill="#6B779C"/>
<path d="M122.296 63.9529C122.252 64.1114 122.155 64.2511 122.021 64.3501C121.881 64.4012 121.727 64.4012 121.588 64.3501C121.1 64.3011 120.641 64.1039 120.275 63.7863C119.619 63.12 119.894 62.0052 120.275 61.121L122.152 55.9956C122.375 55.3933 123.622 55.7521 123.976 56.0725C124.58 56.5978 124.423 57.0591 124.278 57.8023C123.781 59.8992 123.118 61.9555 122.296 63.9529Z" fill="#3B2645"/>
<path d="M31.8702 63.9527C31.9096 64.1135 32.0076 64.2547 32.1459 64.35C32.2855 64.4011 32.4394 64.4011 32.5791 64.35C33.0663 64.301 33.5255 64.1038 33.8917 63.7861C34.548 63.1198 34.2723 62.0051 33.8917 61.1209L32.0146 55.9955C31.7915 55.3932 30.5445 55.752 30.1901 56.0723C29.5732 56.5977 29.7438 57.059 29.8882 57.8022C30.3857 59.8991 31.0484 61.9554 31.8702 63.9527Z" fill="#3B2645"/>
<path d="M74.0445 47.6282C75.1078 47.6282 76.1053 48.0767 77.1817 48.1023C78.2043 48.0509 79.2071 47.8073 80.1351 47.3848C80.4895 47.2566 80.6732 47.7179 80.4764 47.9486C79.0325 49.6015 75.5278 49.3068 73.9133 48.1408C73.7295 47.987 73.7295 47.6154 74.0445 47.6282Z" fill="#25182B"/>
<path d="M39.8115 134.479C40.6191 134.501 41.403 134.75 42.0692 135.196C42.1624 135.258 42.2502 135.326 42.3318 135.401C42.4657 135.227 42.6104 135.06 42.7649 134.902C42.5943 134.748 42.4236 134.633 42.2924 134.53C41.9214 134.256 41.4985 134.055 41.0479 133.941C40.5974 133.827 40.1281 133.801 39.6671 133.864C39.339 133.915 39.4965 134.44 39.8115 134.479Z" fill="#6B779C"/>
<path d="M40.0613 136.081C40.5131 136.209 40.9523 136.376 41.3739 136.58L41.6364 136.747C41.6839 136.568 41.7453 136.392 41.8202 136.222C41.5885 136.006 41.3103 135.843 41.006 135.746C40.7017 135.648 40.379 135.618 40.0613 135.658C39.8119 135.709 39.8775 136.017 40.0613 136.081Z" fill="#6B779C"/>
<path d="M39.7067 142.68C39.8372 142.654 39.9648 142.615 40.0873 142.564C36.4645 139.297 36.622 134.146 36.8977 129.571C36.202 130.263 36.1495 131.122 36.097 133.095C35.992 135.901 36.5958 143.128 39.7067 142.68Z" fill="#6B779C"/>
<path d="M97.8818 155.032C98.21 156.544 98.8794 156.852 101.19 157.838C103.815 158.953 110.956 161.054 111.691 158.069C111.688 158.035 111.688 158 111.691 157.966C108.291 160.747 102.03 157.095 97.8818 155.032Z" fill="#6B779C"/>
<path d="M104.314 155.122C104.302 155.163 104.299 155.207 104.308 155.25C104.316 155.293 104.334 155.333 104.36 155.368C104.387 155.402 104.422 155.431 104.461 155.45C104.501 155.47 104.545 155.48 104.589 155.48C105.193 155.48 105.731 154.929 106.256 154.673C106.504 154.568 106.758 154.478 107.018 154.404C106.707 154.222 106.428 153.993 106.191 153.725L106.007 153.802C105.429 153.994 104.419 154.391 104.314 155.122Z" fill="#6B779C"/>
<path d="M103.434 154.135C103.996 153.895 104.532 153.603 105.036 153.264C105.243 153.163 105.458 153.077 105.679 153.007C105.535 152.79 105.43 152.585 105.311 152.38L104.721 152.559C104.053 152.742 103.487 153.175 103.146 153.763C103.054 153.956 103.198 154.212 103.434 154.135Z" fill="#6B779C"/>
</g>
<path d="M35.0684 188.782C34.8177 188.782 34.599 188.766 34.4121 188.734C34.2207 188.707 34.0566 188.668 33.9199 188.618V187.244C34.0658 187.281 34.223 187.312 34.3916 187.34C34.5602 187.367 34.7402 187.381 34.9316 187.381C35.1823 187.381 35.4102 187.333 35.6152 187.237C35.8203 187.142 35.9821 186.968 36.1006 186.718C36.2236 186.467 36.2852 186.114 36.2852 185.658V176.006H37.9258V185.604C37.9258 186.346 37.8073 186.95 37.5703 187.415C37.3333 187.884 37.0007 188.229 36.5723 188.447C36.1439 188.671 35.6426 188.782 35.0684 188.782ZM46.9424 178.433V186H45.6777L45.459 184.981H45.3701C45.2106 185.241 45.0078 185.458 44.7617 185.631C44.5156 185.799 44.2422 185.925 43.9414 186.007C43.6406 186.093 43.3239 186.137 42.9912 186.137C42.4215 186.137 41.9339 186.041 41.5283 185.85C41.1273 185.654 40.8197 185.353 40.6055 184.947C40.3913 184.542 40.2842 184.018 40.2842 183.375V178.433H41.8975V183.074C41.8975 183.662 42.016 184.102 42.2529 184.394C42.4945 184.685 42.8682 184.831 43.374 184.831C43.8617 184.831 44.249 184.731 44.5361 184.53C44.8232 184.33 45.026 184.034 45.1445 183.642C45.2676 183.25 45.3291 182.769 45.3291 182.199V178.433H46.9424ZM57.7979 178.289C58.6455 178.289 59.2835 178.508 59.7119 178.945C60.1449 179.383 60.3613 180.085 60.3613 181.051V186H58.7549V181.338C58.7549 180.764 58.6432 180.331 58.4199 180.039C58.1966 179.747 57.8571 179.602 57.4014 179.602C56.7633 179.602 56.3031 179.807 56.0205 180.217C55.7425 180.622 55.6035 181.213 55.6035 181.987V186H53.9971V181.338C53.9971 180.955 53.9469 180.636 53.8467 180.381C53.751 180.121 53.6029 179.927 53.4023 179.8C53.2018 179.668 52.9489 179.602 52.6436 179.602C52.2015 179.602 51.8483 179.702 51.584 179.902C51.3242 180.103 51.1374 180.399 51.0234 180.791C50.9095 181.178 50.8525 181.655 50.8525 182.22V186H49.2461V178.433H50.4971L50.7227 179.451H50.8115C50.9665 179.187 51.1579 178.97 51.3857 178.802C51.6182 178.629 51.8757 178.501 52.1582 178.419C52.4408 178.332 52.7347 178.289 53.04 178.289C53.6051 178.289 54.0814 178.389 54.4688 178.59C54.8561 178.786 55.1455 179.087 55.3369 179.492H55.46C55.6969 179.082 56.0273 178.779 56.4512 178.583C56.875 178.387 57.3239 178.289 57.7979 178.289ZM66.4863 178.289C67.3841 178.289 68.1042 178.617 68.6465 179.273C69.1934 179.93 69.4668 180.905 69.4668 182.199C69.4668 183.056 69.3392 183.778 69.084 184.366C68.8333 184.95 68.4801 185.392 68.0244 185.692C67.5732 185.989 67.0469 186.137 66.4453 186.137C66.0625 186.137 65.7298 186.087 65.4473 185.986C65.1647 185.886 64.9232 185.756 64.7227 185.597C64.5221 185.433 64.3535 185.255 64.2168 185.063H64.1211C64.1439 185.246 64.1644 185.449 64.1826 185.672C64.2054 185.891 64.2168 186.091 64.2168 186.273V189.356H62.6035V178.433H63.916L64.1416 179.479H64.2168C64.3581 179.264 64.529 179.066 64.7295 178.884C64.9346 178.701 65.1807 178.558 65.4678 178.453C65.7594 178.344 66.099 178.289 66.4863 178.289ZM66.0557 179.602C65.6136 179.602 65.2581 179.69 64.9893 179.868C64.7249 180.041 64.5312 180.303 64.4082 180.654C64.2897 181.005 64.2259 181.445 64.2168 181.974V182.199C64.2168 182.76 64.2738 183.236 64.3877 183.628C64.5062 184.015 64.6999 184.312 64.9688 184.517C65.2422 184.717 65.6113 184.817 66.0762 184.817C66.4681 184.817 66.7917 184.71 67.0469 184.496C67.3066 184.282 67.5003 183.977 67.6279 183.58C67.7555 183.184 67.8193 182.716 67.8193 182.179C67.8193 181.363 67.6735 180.729 67.3818 180.278C67.0947 179.827 66.6527 179.602 66.0557 179.602ZM77.9365 176.006C78.7979 176.006 79.5088 176.111 80.0693 176.32C80.6344 176.53 81.0537 176.849 81.3271 177.277C81.6051 177.706 81.7441 178.25 81.7441 178.911C81.7441 179.403 81.653 179.823 81.4707 180.169C81.2884 180.515 81.0492 180.802 80.7529 181.03C80.4567 181.258 80.14 181.44 79.8027 181.577L82.6396 186H80.7871L78.374 181.994H76.7676V186H75.127V176.006H77.9365ZM77.8271 177.373H76.7676V180.641H77.9023C78.6634 180.641 79.2148 180.499 79.5566 180.217C79.903 179.934 80.0762 179.517 80.0762 178.966C80.0762 178.387 79.8916 177.977 79.5225 177.735C79.1579 177.494 78.5928 177.373 77.8271 177.373ZM90.6035 182.199C90.6035 182.828 90.5215 183.386 90.3574 183.874C90.1934 184.362 89.9541 184.774 89.6396 185.111C89.3252 185.444 88.9469 185.699 88.5049 185.877C88.0628 186.05 87.5638 186.137 87.0078 186.137C86.4883 186.137 86.012 186.05 85.5791 185.877C85.1462 185.699 84.7702 185.444 84.4512 185.111C84.1367 184.774 83.8929 184.362 83.7197 183.874C83.5465 183.386 83.46 182.828 83.46 182.199C83.46 181.365 83.6035 180.659 83.8906 180.08C84.1823 179.497 84.597 179.052 85.1348 178.747C85.6725 178.442 86.3128 178.289 87.0557 178.289C87.7529 178.289 88.3682 178.442 88.9014 178.747C89.4346 179.052 89.8516 179.497 90.1523 180.08C90.4531 180.663 90.6035 181.37 90.6035 182.199ZM85.1143 182.199C85.1143 182.751 85.1803 183.222 85.3125 183.614C85.4492 184.006 85.6589 184.307 85.9414 184.517C86.224 184.722 86.5885 184.824 87.0352 184.824C87.4818 184.824 87.8464 184.722 88.1289 184.517C88.4115 184.307 88.6188 184.006 88.751 183.614C88.8831 183.222 88.9492 182.751 88.9492 182.199C88.9492 181.648 88.8831 181.181 88.751 180.798C88.6188 180.41 88.4115 180.117 88.1289 179.916C87.8464 179.711 87.4795 179.608 87.0283 179.608C86.363 179.608 85.8776 179.832 85.5723 180.278C85.2669 180.725 85.1143 181.365 85.1143 182.199ZM96.332 178.289C97.2298 178.289 97.9499 178.617 98.4922 179.273C99.0391 179.93 99.3125 180.905 99.3125 182.199C99.3125 183.056 99.1849 183.778 98.9297 184.366C98.679 184.95 98.3258 185.392 97.8701 185.692C97.4189 185.989 96.8926 186.137 96.291 186.137C95.9082 186.137 95.5755 186.087 95.293 185.986C95.0104 185.886 94.7689 185.756 94.5684 185.597C94.3678 185.433 94.1992 185.255 94.0625 185.063H93.9668C93.9896 185.246 94.0101 185.449 94.0283 185.672C94.0511 185.891 94.0625 186.091 94.0625 186.273V189.356H92.4492V178.433H93.7617L93.9873 179.479H94.0625C94.2038 179.264 94.3747 179.066 94.5752 178.884C94.7803 178.701 95.0264 178.558 95.3135 178.453C95.6051 178.344 95.9447 178.289 96.332 178.289ZM95.9014 179.602C95.4593 179.602 95.1038 179.69 94.835 179.868C94.5706 180.041 94.377 180.303 94.2539 180.654C94.1354 181.005 94.0716 181.445 94.0625 181.974V182.199C94.0625 182.76 94.1195 183.236 94.2334 183.628C94.3519 184.015 94.5456 184.312 94.8145 184.517C95.0879 184.717 95.457 184.817 95.9219 184.817C96.3138 184.817 96.6374 184.71 96.8926 184.496C97.1523 184.282 97.346 183.977 97.4736 183.58C97.6012 183.184 97.665 182.716 97.665 182.179C97.665 181.363 97.5192 180.729 97.2275 180.278C96.9404 179.827 96.4984 179.602 95.9014 179.602ZM104.187 178.289C104.861 178.289 105.44 178.428 105.923 178.706C106.406 178.984 106.777 179.378 107.037 179.889C107.297 180.399 107.427 181.01 107.427 181.721V182.582H102.375C102.393 183.316 102.589 183.881 102.963 184.277C103.341 184.674 103.87 184.872 104.549 184.872C105.032 184.872 105.465 184.826 105.848 184.735C106.235 184.64 106.634 184.501 107.044 184.318V185.624C106.666 185.802 106.281 185.932 105.889 186.014C105.497 186.096 105.027 186.137 104.48 186.137C103.738 186.137 103.084 185.993 102.519 185.706C101.958 185.414 101.518 184.981 101.199 184.407C100.885 183.833 100.728 183.12 100.728 182.268C100.728 181.42 100.871 180.7 101.158 180.107C101.445 179.515 101.849 179.064 102.368 178.754C102.888 178.444 103.494 178.289 104.187 178.289ZM104.187 179.499C103.681 179.499 103.271 179.663 102.956 179.991C102.646 180.319 102.464 180.8 102.409 181.434H105.854C105.85 181.055 105.786 180.72 105.663 180.429C105.545 180.137 105.362 179.909 105.116 179.745C104.875 179.581 104.565 179.499 104.187 179.499Z" fill="#6F7684"/>
<path d="M245.132 176.006L242.521 186H240.729L239.062 180.012C239.021 179.866 238.975 179.693 238.925 179.492C238.875 179.292 238.825 179.087 238.774 178.877C238.729 178.667 238.688 178.476 238.651 178.303C238.619 178.125 238.597 177.988 238.583 177.893C238.574 177.988 238.553 178.123 238.521 178.296C238.49 178.469 238.451 178.66 238.405 178.87C238.364 179.075 238.319 179.28 238.269 179.485C238.218 179.686 238.173 179.864 238.132 180.019L236.491 186H234.707L232.103 176.006H233.75L235.192 181.864C235.238 182.051 235.284 182.254 235.329 182.473C235.379 182.687 235.425 182.903 235.466 183.122C235.511 183.341 235.552 183.555 235.589 183.765C235.625 183.97 235.655 184.157 235.678 184.325C235.701 184.152 235.73 183.961 235.767 183.751C235.803 183.537 235.842 183.32 235.883 183.102C235.928 182.878 235.974 182.664 236.02 182.459C236.07 182.254 236.12 182.069 236.17 181.905L237.797 176.006H239.396L241.058 181.926C241.108 182.094 241.156 182.284 241.201 182.493C241.251 182.703 241.299 182.917 241.345 183.136C241.39 183.354 241.431 183.566 241.468 183.771C241.504 183.977 241.534 184.161 241.557 184.325C241.589 184.102 241.63 183.847 241.68 183.56C241.73 183.272 241.787 182.981 241.851 182.685C241.914 182.388 241.978 182.115 242.042 181.864L243.478 176.006H245.132ZM249.397 178.289C250.072 178.289 250.651 178.428 251.134 178.706C251.617 178.984 251.988 179.378 252.248 179.889C252.508 180.399 252.638 181.01 252.638 181.721V182.582H247.586C247.604 183.316 247.8 183.881 248.174 184.277C248.552 184.674 249.081 184.872 249.76 184.872C250.243 184.872 250.676 184.826 251.059 184.735C251.446 184.64 251.845 184.501 252.255 184.318V185.624C251.877 185.802 251.492 185.932 251.1 186.014C250.708 186.096 250.238 186.137 249.691 186.137C248.949 186.137 248.295 185.993 247.729 185.706C247.169 185.414 246.729 184.981 246.41 184.407C246.096 183.833 245.938 183.12 245.938 182.268C245.938 181.42 246.082 180.7 246.369 180.107C246.656 179.515 247.06 179.064 247.579 178.754C248.099 178.444 248.705 178.289 249.397 178.289ZM249.397 179.499C248.892 179.499 248.481 179.663 248.167 179.991C247.857 180.319 247.675 180.8 247.62 181.434H251.065C251.061 181.055 250.997 180.72 250.874 180.429C250.756 180.137 250.573 179.909 250.327 179.745C250.086 179.581 249.776 179.499 249.397 179.499ZM256.056 178.433V186H254.449V178.433H256.056ZM255.263 175.534C255.509 175.534 255.721 175.6 255.898 175.732C256.081 175.865 256.172 176.092 256.172 176.416C256.172 176.735 256.081 176.963 255.898 177.1C255.721 177.232 255.509 177.298 255.263 177.298C255.007 177.298 254.791 177.232 254.613 177.1C254.44 176.963 254.354 176.735 254.354 176.416C254.354 176.092 254.44 175.865 254.613 175.732C254.791 175.6 255.007 175.534 255.263 175.534ZM260.52 189.363C259.494 189.363 258.708 189.179 258.161 188.81C257.614 188.44 257.341 187.923 257.341 187.258C257.341 186.793 257.487 186.399 257.778 186.075C258.07 185.756 258.487 185.535 259.029 185.412C258.824 185.321 258.646 185.18 258.496 184.988C258.35 184.792 258.277 184.576 258.277 184.339C258.277 184.056 258.357 183.815 258.517 183.614C258.676 183.414 258.915 183.22 259.234 183.033C258.838 182.865 258.519 182.591 258.277 182.213C258.04 181.83 257.922 181.381 257.922 180.866C257.922 180.319 258.038 179.854 258.271 179.472C258.503 179.084 258.842 178.79 259.289 178.59C259.736 178.385 260.276 178.282 260.909 178.282C261.046 178.282 261.194 178.291 261.354 178.31C261.518 178.323 261.668 178.341 261.805 178.364C261.946 178.382 262.053 178.403 262.126 178.426H264.744V179.321L263.459 179.561C263.582 179.734 263.68 179.932 263.753 180.155C263.826 180.374 263.862 180.613 263.862 180.873C263.862 181.657 263.591 182.274 263.049 182.726C262.511 183.172 261.768 183.396 260.82 183.396C260.592 183.386 260.371 183.368 260.157 183.341C259.993 183.441 259.868 183.553 259.781 183.676C259.695 183.794 259.651 183.929 259.651 184.079C259.651 184.202 259.695 184.302 259.781 184.38C259.868 184.453 259.995 184.507 260.164 184.544C260.337 184.58 260.547 184.599 260.793 184.599H262.099C262.928 184.599 263.562 184.774 263.999 185.125C264.437 185.476 264.655 185.991 264.655 186.67C264.655 187.531 264.3 188.194 263.589 188.659C262.878 189.129 261.855 189.363 260.52 189.363ZM260.581 188.235C261.142 188.235 261.613 188.181 261.996 188.071C262.379 187.962 262.668 187.805 262.864 187.6C263.06 187.399 263.158 187.16 263.158 186.882C263.158 186.636 263.097 186.447 262.974 186.314C262.851 186.182 262.666 186.091 262.42 186.041C262.174 185.991 261.868 185.966 261.504 185.966H260.314C260.018 185.966 259.756 186.011 259.528 186.103C259.3 186.198 259.123 186.335 258.995 186.513C258.872 186.69 258.811 186.905 258.811 187.155C258.811 187.502 258.963 187.768 259.269 187.955C259.578 188.142 260.016 188.235 260.581 188.235ZM260.896 182.343C261.365 182.343 261.714 182.215 261.941 181.96C262.169 181.7 262.283 181.336 262.283 180.866C262.283 180.356 262.165 179.973 261.928 179.718C261.695 179.463 261.349 179.335 260.889 179.335C260.438 179.335 260.093 179.465 259.856 179.725C259.624 179.984 259.508 180.369 259.508 180.88C259.508 181.34 259.624 181.7 259.856 181.96C260.093 182.215 260.44 182.343 260.896 182.343ZM267.731 175.363V178.036C267.731 178.314 267.722 178.585 267.704 178.85C267.69 179.114 267.674 179.319 267.656 179.465H267.745C267.905 179.201 268.101 178.984 268.333 178.815C268.565 178.642 268.825 178.512 269.112 178.426C269.404 178.339 269.714 178.296 270.042 178.296C270.621 178.296 271.113 178.394 271.519 178.59C271.924 178.781 272.234 179.08 272.448 179.485C272.667 179.891 272.776 180.417 272.776 181.064V186H271.17V181.365C271.17 180.777 271.049 180.338 270.808 180.046C270.566 179.75 270.192 179.602 269.687 179.602C269.199 179.602 268.812 179.704 268.524 179.909C268.242 180.11 268.039 180.408 267.916 180.805C267.793 181.197 267.731 181.675 267.731 182.24V186H266.125V175.363H267.731ZM277.842 184.838C278.051 184.838 278.259 184.82 278.464 184.783C278.669 184.742 278.856 184.694 279.024 184.64V185.856C278.847 185.934 278.617 186 278.334 186.055C278.051 186.109 277.757 186.137 277.452 186.137C277.024 186.137 276.639 186.066 276.297 185.925C275.955 185.779 275.684 185.531 275.483 185.18C275.283 184.829 275.183 184.343 275.183 183.724V179.656H274.15V178.938L275.258 178.371L275.784 176.751H276.796V178.433H278.963V179.656H276.796V183.703C276.796 184.086 276.892 184.371 277.083 184.558C277.274 184.744 277.527 184.838 277.842 184.838ZM285.648 183.84C285.648 184.337 285.528 184.756 285.286 185.098C285.045 185.439 284.691 185.699 284.227 185.877C283.766 186.05 283.201 186.137 282.531 186.137C282.003 186.137 281.547 186.098 281.164 186.021C280.786 185.948 280.428 185.834 280.091 185.679V184.291C280.451 184.46 280.854 184.605 281.301 184.729C281.752 184.852 282.178 184.913 282.579 184.913C283.108 184.913 283.488 184.831 283.721 184.667C283.953 184.498 284.069 184.275 284.069 183.997C284.069 183.833 284.021 183.687 283.926 183.56C283.835 183.427 283.661 183.293 283.406 183.156C283.156 183.015 282.786 182.846 282.299 182.65C281.82 182.459 281.417 182.268 281.089 182.076C280.761 181.885 280.512 181.655 280.344 181.386C280.175 181.112 280.091 180.764 280.091 180.34C280.091 179.67 280.355 179.162 280.884 178.815C281.417 178.465 282.121 178.289 282.996 178.289C283.461 178.289 283.898 178.337 284.309 178.433C284.723 178.524 285.129 178.658 285.525 178.836L285.02 180.046C284.678 179.896 284.334 179.772 283.987 179.677C283.646 179.576 283.297 179.526 282.941 179.526C282.527 179.526 282.21 179.59 281.991 179.718C281.777 179.845 281.67 180.028 281.67 180.265C281.67 180.442 281.722 180.593 281.827 180.716C281.932 180.839 282.112 180.962 282.367 181.085C282.627 181.208 282.987 181.361 283.447 181.543C283.898 181.716 284.288 181.898 284.616 182.09C284.949 182.277 285.204 182.507 285.382 182.78C285.56 183.054 285.648 183.407 285.648 183.84Z" fill="#6F7684"/>
<defs>
<clipPath id="clip0_93_2466">
<rect width="233.221" height="165" fill="white" transform="translate(143)"/>
</clipPath>
<clipPath id="clip1_93_2466">
<rect width="143.088" height="164.95" fill="white"/>
</clipPath>
</defs>
</svg>
