<svg width="20" height="19" viewBox="0 0 20 19" fill="none" xmlns="http://www.w3.org/2000/svg">
<path fill-rule="evenodd" clip-rule="evenodd" d="M19.5001 9.49982C19.5001 7.65964 19.48 6.38598 19.4398 5.67884C19.3594 4.00741 18.8612 2.71366 17.9452 1.79759C17.0291 0.881514 15.7353 0.3833 14.0639 0.302943C13.3568 0.262765 12.0831 0.242676 10.2429 0.242676C8.40274 0.242676 7.12908 0.262765 6.42194 0.302943C4.75051 0.3833 3.45676 0.881514 2.54069 1.79759C1.62462 2.71366 1.1264 4.00741 1.04605 5.67884C1.00587 6.38598 0.985779 7.65964 0.985779 9.49982C0.985779 11.34 1.00587 12.6137 1.04605 13.3208C1.1264 14.9922 1.62462 16.286 2.54069 17.202C3.45676 18.1181 4.75051 18.6163 6.42194 18.6967C7.12908 18.7369 8.40274 18.757 10.2429 18.757C12.0831 18.757 13.3568 18.7369 14.0639 18.6967C15.7353 18.6163 17.0291 18.1181 17.9452 17.202C18.8612 16.286 19.3594 14.9922 19.4398 13.3208C19.48 12.6137 19.5001 11.34 19.5001 9.49982ZM11.159 1.90607H10.2429C10.1867 1.90607 9.87931 1.90406 9.32082 1.90004C8.76234 1.89602 8.33846 1.89602 8.04917 1.90004C7.75989 1.90406 7.37216 1.91611 6.886 1.9362C6.39984 1.95629 5.986 1.99647 5.64448 2.05674C5.30297 2.11701 5.01569 2.19134 4.78265 2.27973C4.38087 2.44044 4.0273 2.67348 3.72194 2.97884C3.41658 3.28419 3.18355 3.63776 3.02283 4.03955C2.93444 4.27259 2.86011 4.55986 2.79984 4.90138C2.73957 5.2429 2.69939 5.65674 2.67931 6.1429C2.65922 6.62906 2.64716 7.01678 2.64314 7.30607C2.63913 7.59535 2.63913 8.01924 2.64314 8.57772C2.64716 9.1362 2.64917 9.44357 2.64917 9.49982C2.64917 9.55607 2.64716 9.86343 2.64314 10.4219C2.63913 10.9804 2.63913 11.4043 2.64314 11.6936C2.64716 11.9829 2.65922 12.3706 2.67931 12.8567C2.69939 13.3429 2.73957 13.7567 2.79984 14.0983C2.86011 14.4398 2.93444 14.727 3.02283 14.9601C3.18355 15.3619 3.41658 15.7154 3.72194 16.0208C4.0273 16.3262 4.38087 16.5592 4.78265 16.7199C5.01569 16.8083 5.30297 16.8826 5.64448 16.9429C5.986 17.0032 6.39984 17.0433 6.886 17.0634C7.37216 17.0835 7.75989 17.0956 8.04917 17.0996C8.33846 17.1036 8.76234 17.1036 9.32082 17.0996C9.87931 17.0956 10.1867 17.0936 10.2429 17.0936C10.2992 17.0936 10.6065 17.0956 11.165 17.0996C11.7235 17.1036 12.1474 17.1036 12.4367 17.0996C12.726 17.0956 13.1137 17.0835 13.5998 17.0634C14.086 17.0433 14.4998 17.0032 14.8414 16.9429C15.1829 16.8826 15.4702 16.8083 15.7032 16.7199C16.105 16.5592 16.4585 16.3262 16.7639 16.0208C17.0693 15.7154 17.3023 15.3619 17.463 14.9601C17.5514 14.727 17.6257 14.4398 17.686 14.0983C17.7463 13.7567 17.7864 13.3429 17.8065 12.8567C17.8266 12.3706 17.8387 11.9829 17.8427 11.6936C17.8467 11.4043 17.8467 10.9804 17.8427 10.4219C17.8387 9.86343 17.8367 9.55607 17.8367 9.49982C17.8367 9.44357 17.8387 9.1362 17.8427 8.57772C17.8467 8.01924 17.8467 7.59535 17.8427 7.30607C17.8387 7.01678 17.8266 6.62906 17.8065 6.1429C17.7864 5.65674 17.7463 5.2429 17.686 4.90138C17.6257 4.55986 17.5514 4.27259 17.463 4.03955C17.3023 3.63776 17.0693 3.28419 16.7639 2.97884C16.4585 2.67348 16.105 2.44044 15.7032 2.27973C15.4702 2.19134 15.1829 2.11701 14.8414 2.05674C14.4998 1.99647 14.086 1.95629 13.5998 1.9362C13.1137 1.91611 12.726 1.90406 12.4367 1.90004C12.1474 1.89602 11.7215 1.89803 11.159 1.90607ZM16.2938 4.55785C16.2938 4.2525 16.1853 3.99134 15.9684 3.77437C15.7514 3.55741 15.4902 3.44893 15.1849 3.44893C14.8795 3.44893 14.6184 3.55741 14.4014 3.77437C14.1844 3.99134 14.076 4.2525 14.076 4.55785C14.076 4.86321 14.1844 5.12437 14.4014 5.34134C14.6184 5.5583 14.8795 5.66678 15.1849 5.66678C15.4902 5.66678 15.7514 5.5583 15.9684 5.34134C16.1853 5.12437 16.2938 4.86321 16.2938 4.55785ZM13.6059 6.13687C14.53 7.06098 14.992 8.18196 14.992 9.49982C14.992 10.8177 14.53 11.9387 13.6059 12.8628C12.6818 13.7869 11.5608 14.2489 10.2429 14.2489C8.92506 14.2489 7.80408 13.7869 6.87997 12.8628C5.95587 11.9387 5.49381 10.8177 5.49381 9.49982C5.49381 8.18196 5.95587 7.06098 6.87997 6.13687C7.80408 5.21276 8.92506 4.75071 10.2429 4.75071C11.5608 4.75071 12.6818 5.21276 13.6059 6.13687ZM12.4246 11.6815C13.0273 11.0788 13.3286 10.3516 13.3286 9.49982C13.3286 8.64803 13.0273 7.9208 12.4246 7.31812C11.8219 6.71544 11.0947 6.4141 10.2429 6.4141C9.39114 6.4141 8.6639 6.71544 8.06122 7.31812C7.45855 7.9208 7.15721 8.64803 7.15721 9.49982C7.15721 10.3516 7.45855 11.0788 8.06122 11.6815C8.6639 12.2842 9.39114 12.5855 10.2429 12.5855C11.0947 12.5855 11.8219 12.2842 12.4246 11.6815Z" fill="black"/>
</svg>
