<svg width="19" height="19" viewBox="0 0 19 19" fill="none" xmlns="http://www.w3.org/2000/svg">
<path fill-rule="evenodd" clip-rule="evenodd" d="M4.83599 2.90234C4.8438 3.47265 4.64653 3.94921 4.24419 4.33202C3.84185 4.71483 3.31255 4.90624 2.65631 4.90624H2.63287C1.99224 4.90624 1.47662 4.71483 1.086 4.33202C0.695373 3.94921 0.500061 3.47265 0.500061 2.90234C0.500061 2.32421 0.701232 1.8457 1.10357 1.4668C1.50592 1.08789 2.03131 0.898438 2.67974 0.898438C3.32818 0.898438 3.84771 1.08789 4.23833 1.4668C4.62896 1.8457 4.82818 2.32421 4.83599 2.90234ZM4.58987 6.48833V18.1016H0.72269V6.48833H4.58987ZM18.5 18.1014V11.4451C18.5 9.7342 18.0938 8.43538 17.2813 7.54866C16.4688 6.66194 15.3945 6.21859 14.0586 6.21859C13.5664 6.21859 13.1192 6.27913 12.7168 6.40023C12.3145 6.52132 11.9746 6.69124 11.6973 6.90999C11.4199 7.12874 11.1992 7.33186 11.0352 7.51936C10.8793 7.6975 10.727 7.90384 10.5781 8.13839V6.48812H6.72269L6.73441 7.05061C6.74222 7.42561 6.74613 8.58186 6.74613 10.5194C6.74613 12.4569 6.73831 14.9842 6.72269 18.1014H10.5781V11.6209C10.5781 11.2225 10.6211 10.9061 10.7071 10.6717C10.8711 10.2733 11.1192 9.93928 11.4512 9.66975C11.7832 9.40022 12.1953 9.26545 12.6875 9.26545C13.3594 9.26545 13.8535 9.49787 14.1699 9.96272C14.4863 10.4276 14.6445 11.0701 14.6445 11.8904V18.1014H18.5Z" fill="black"/>
</svg>
