<svg width="142" height="20" viewBox="0 0 142 20" fill="none" xmlns="http://www.w3.org/2000/svg">
<path d="M2.98291 19H0.0898438V1.15332H10.1606V3.61914H2.98291V9.19775H9.70898V11.6758H2.98291V19ZM15.959 19H13.0903V5.49902H15.959V19ZM12.9194 1.92236C12.9194 1.40967 13.0578 1.01497 13.3345 0.738281C13.6193 0.461589 14.0221 0.323242 14.543 0.323242C15.0475 0.323242 15.4382 0.461589 15.7148 0.738281C15.9997 1.01497 16.1421 1.40967 16.1421 1.92236C16.1421 2.41064 15.9997 2.7972 15.7148 3.08203C15.4382 3.35872 15.0475 3.49707 14.543 3.49707C14.0221 3.49707 13.6193 3.35872 13.3345 3.08203C13.0578 2.7972 12.9194 2.41064 12.9194 1.92236ZM25.1021 16.9248C25.8019 16.9248 26.5018 16.8149 27.2017 16.5952V18.7559C26.8843 18.8942 26.4733 19.0081 25.9688 19.0977C25.4723 19.1953 24.9556 19.2441 24.4185 19.2441C21.7004 19.2441 20.3413 17.8118 20.3413 14.9473V7.67188H18.498V6.40234L20.4756 5.35254L21.4521 2.49609H23.2222V5.49902H27.0674V7.67188H23.2222V14.8984C23.2222 15.5902 23.3931 16.1029 23.7349 16.4365C24.0848 16.762 24.5405 16.9248 25.1021 16.9248ZM41.7891 19H38.9082V10.6992C38.9082 9.65755 38.6966 8.88037 38.2734 8.36768C37.8584 7.85498 37.1951 7.59863 36.2837 7.59863C35.0711 7.59863 34.1841 7.95671 33.6226 8.67285C33.061 9.389 32.7803 10.5894 32.7803 12.2739V19H29.9116V5.49902H32.1577L32.5605 7.26904H32.707C33.1139 6.62614 33.6917 6.12972 34.4404 5.77979C35.1891 5.42985 36.0192 5.25488 36.9307 5.25488C40.1696 5.25488 41.7891 6.90283 41.7891 10.1987V19ZM51.6768 19.2441C49.5771 19.2441 47.9333 18.6338 46.7451 17.4131C45.5651 16.1842 44.9751 14.4956 44.9751 12.3472C44.9751 10.1418 45.5244 8.40837 46.623 7.14697C47.7217 5.88558 49.2313 5.25488 51.1519 5.25488C52.9341 5.25488 54.342 5.79606 55.3755 6.87842C56.409 7.96077 56.9258 9.45003 56.9258 11.3462V12.8965H47.9292C47.9699 14.2067 48.3239 15.2158 48.9912 15.9238C49.6585 16.6237 50.5985 16.9736 51.811 16.9736C52.6086 16.9736 53.3491 16.9004 54.0327 16.7539C54.7244 16.5993 55.465 16.347 56.2544 15.9971V18.3286C55.5545 18.6623 54.8465 18.8983 54.1304 19.0366C53.4142 19.175 52.5964 19.2441 51.6768 19.2441ZM51.1519 7.42773C50.2404 7.42773 49.508 7.71663 48.9546 8.29443C48.4093 8.87223 48.0838 9.71452 47.978 10.8213H54.106C54.0897 9.70638 53.8211 8.8641 53.3003 8.29443C52.7795 7.71663 52.0633 7.42773 51.1519 7.42773ZM69.2549 15.1548C69.2549 16.4731 68.7747 17.4863 67.8145 18.1943C66.8542 18.8942 65.4788 19.2441 63.6885 19.2441C61.89 19.2441 60.4455 18.9715 59.355 18.4263V15.9482C60.9419 16.6807 62.4189 17.0469 63.7861 17.0469C65.5521 17.0469 66.4351 16.5138 66.4351 15.4478C66.4351 15.106 66.3374 14.8211 66.1421 14.5933C65.9468 14.3654 65.6253 14.1294 65.1777 13.8853C64.7301 13.6411 64.1076 13.3644 63.3101 13.0552C61.7557 12.453 60.7018 11.8507 60.1484 11.2485C59.6032 10.6463 59.3306 9.86507 59.3306 8.90479C59.3306 7.74919 59.7944 6.854 60.7222 6.21924C61.658 5.57633 62.9276 5.25488 64.5308 5.25488C66.1177 5.25488 67.6191 5.57633 69.0352 6.21924L68.1074 8.37988C66.6507 7.77767 65.4259 7.47656 64.4331 7.47656C62.9194 7.47656 62.1626 7.90788 62.1626 8.77051C62.1626 9.19368 62.3579 9.55176 62.7485 9.84473C63.1473 10.1377 64.0099 10.5405 65.3364 11.0532C66.4513 11.4845 67.2611 11.8792 67.7656 12.2373C68.2702 12.5954 68.6445 13.0104 68.8887 13.4824C69.1328 13.9463 69.2549 14.5037 69.2549 15.1548ZM81.4375 15.1548C81.4375 16.4731 80.9574 17.4863 79.9971 18.1943C79.0368 18.8942 77.6615 19.2441 75.8711 19.2441C74.0726 19.2441 72.6281 18.9715 71.5376 18.4263V15.9482C73.1245 16.6807 74.6016 17.0469 75.9688 17.0469C77.7347 17.0469 78.6177 16.5138 78.6177 15.4478C78.6177 15.106 78.52 14.8211 78.3247 14.5933C78.1294 14.3654 77.8079 14.1294 77.3604 13.8853C76.9128 13.6411 76.2902 13.3644 75.4927 13.0552C73.9383 12.453 72.8844 11.8507 72.3311 11.2485C71.7858 10.6463 71.5132 9.86507 71.5132 8.90479C71.5132 7.74919 71.9771 6.854 72.9048 6.21924C73.8407 5.57633 75.1102 5.25488 76.7134 5.25488C78.3003 5.25488 79.8018 5.57633 81.2178 6.21924L80.29 8.37988C78.8333 7.77767 77.6086 7.47656 76.6157 7.47656C75.1021 7.47656 74.3452 7.90788 74.3452 8.77051C74.3452 9.19368 74.5405 9.55176 74.9312 9.84473C75.3299 10.1377 76.1925 10.5405 77.519 11.0532C78.634 11.4845 79.4437 11.8792 79.9482 12.2373C80.4528 12.5954 80.8271 13.0104 81.0713 13.4824C81.3154 13.9463 81.4375 14.5037 81.4375 15.1548ZM98.9424 3.39941C97.266 3.39941 95.9476 3.99349 94.9873 5.18164C94.027 6.36979 93.5469 8.0096 93.5469 10.1011C93.5469 12.2902 94.0067 13.9463 94.9263 15.0693C95.854 16.1924 97.1927 16.7539 98.9424 16.7539C99.6992 16.7539 100.432 16.6807 101.14 16.5342C101.848 16.3796 102.584 16.1842 103.349 15.9482V18.4507C101.949 18.9797 100.362 19.2441 98.5884 19.2441C95.9761 19.2441 93.9701 18.4548 92.5703 16.876C91.1706 15.2891 90.4707 13.0226 90.4707 10.0767C90.4707 8.22119 90.8084 6.59766 91.4839 5.20605C92.1675 3.81445 93.1522 2.74837 94.438 2.00781C95.7238 1.26725 97.2334 0.896973 98.9668 0.896973C100.79 0.896973 102.474 1.27946 104.021 2.04443L102.971 4.47363C102.368 4.1888 101.73 3.94059 101.054 3.729C100.387 3.50928 99.6829 3.39941 98.9424 3.39941ZM109.758 19H106.889V0.00585938H109.758V19ZM123.393 19L122.99 17.23H122.844C122.445 17.8566 121.875 18.349 121.135 18.707C120.402 19.0651 119.564 19.2441 118.62 19.2441C116.984 19.2441 115.764 18.8372 114.958 18.0234C114.152 17.2096 113.75 15.9767 113.75 14.3247V5.49902H116.643V13.8242C116.643 14.8577 116.854 15.6349 117.277 16.1558C117.701 16.6685 118.364 16.9248 119.267 16.9248C120.472 16.9248 121.354 16.5667 121.916 15.8506C122.486 15.1263 122.771 13.9178 122.771 12.2251V5.49902H125.651V19H123.393ZM136.638 5.25488C138.322 5.25488 139.632 5.86523 140.568 7.08594C141.512 8.30664 141.984 10.0197 141.984 12.2251C141.984 14.4386 141.508 16.1639 140.556 17.4009C139.604 18.6297 138.282 19.2441 136.589 19.2441C134.88 19.2441 133.553 18.6297 132.609 17.4009H132.414L131.889 19H129.741V0.00585938H132.609V4.52246C132.609 4.85612 132.593 5.35254 132.561 6.01172C132.528 6.6709 132.504 7.09001 132.487 7.26904H132.609C133.521 5.92627 134.864 5.25488 136.638 5.25488ZM135.893 7.59863C134.737 7.59863 133.903 7.94043 133.391 8.62402C132.886 9.29948 132.626 10.4347 132.609 12.0298V12.2251C132.609 13.869 132.87 15.0612 133.391 15.8018C133.911 16.5342 134.762 16.9004 135.942 16.9004C136.959 16.9004 137.728 16.4976 138.249 15.6919C138.778 14.8862 139.042 13.7225 139.042 12.2007C139.042 9.13265 137.993 7.59863 135.893 7.59863Z" fill="black"/>
</svg>
