<svg width="162" height="40" viewBox="0 0 162 40" fill="none" xmlns="http://www.w3.org/2000/svg">
<g clip-path="url(#clip0_3_179)">
<path d="M36.6477 23.8335C36.1023 26.638 31.7654 29.707 26.784 30.3018C24.1863 30.6121 21.629 30.8966 18.9019 30.7717C14.4418 30.5674 10.9227 29.707 10.9227 29.707C10.9227 30.1413 10.9495 30.5547 11.0029 30.9413C11.5828 35.3426 15.3675 35.6065 18.9525 35.7294C22.5708 35.8532 25.7924 34.8371 25.7924 34.8371L25.9413 38.1087C25.9413 38.1087 23.4103 39.4676 18.9019 39.7174C16.4156 39.8541 13.3288 39.6549 9.73305 38.7035C1.93521 36.6393 0.594128 28.3272 0.388982 19.893C0.326251 17.3889 0.364963 15.0274 0.364963 13.0528C0.364963 4.42817 6.01554 1.90029 6.01554 1.90029C8.86471 0.591704 13.7538 0.041538 18.8364 0H18.9613C24.0439 0.041538 28.936 0.591704 31.7852 1.90029C31.7852 1.90029 37.4358 4.42817 37.4358 13.0528C37.4358 13.0528 37.5064 19.4158 36.6477 23.8335Z" fill="#CECECE"/>
<path d="M8.18773 10.9624C8.18773 9.70697 9.20555 8.68943 10.4607 8.68943C11.7162 8.68943 12.7337 9.70697 12.7337 10.9624C12.7337 12.2176 11.7162 13.2354 10.4607 13.2354C9.20555 13.2354 8.18773 12.2176 8.18773 10.9624ZM40.7868 13.7216V24.1643H36.6497V14.0285C36.6497 11.8917 35.7505 10.8075 33.9522 10.8075C31.9643 10.8075 30.9677 12.094 30.9677 14.6377V20.1854H26.8549V14.6377C26.8549 12.094 25.8583 10.8075 23.8704 10.8075C22.0721 10.8075 21.1729 11.8917 21.1729 14.0285V24.1643H17.0358V13.7216C17.0358 11.5874 17.5792 9.89137 18.6708 8.63647C19.7965 7.38186 21.2707 6.73873 23.1004 6.73873C25.2177 6.73873 26.821 7.55225 27.8806 9.17986L28.9114 10.9075L29.942 9.17986C31.0019 7.55225 32.6049 6.73873 34.7225 6.73873C36.5522 6.73873 38.0261 7.38186 39.1518 8.63647C40.2434 9.89137 40.7868 11.5874 40.7868 13.7216ZM55.0392 18.9128C55.8929 18.0108 56.304 16.8749 56.304 15.505C56.304 14.1351 55.8929 12.9991 55.0392 12.1305C54.2172 11.2282 53.1734 10.7942 51.9086 10.7942C50.6436 10.7942 49.6 11.2282 48.778 12.1305C47.9557 12.9991 47.5446 14.1351 47.5446 15.505C47.5446 16.8749 47.9557 18.0108 48.778 18.9128C49.6 19.7814 50.6436 20.2157 51.9086 20.2157C53.1734 20.2157 54.2172 19.7814 55.0392 18.9128ZM56.304 7.15216H60.3835V23.8578H56.304V21.8863C55.0709 23.5235 53.363 24.3254 51.1496 24.3254C49.0309 24.3254 47.2284 23.4901 45.7104 21.786C44.2244 20.0821 43.4654 17.9772 43.4654 15.505C43.4654 13.0661 44.2244 10.9609 45.7104 9.25703C47.2284 7.55312 49.0309 6.6845 51.1496 6.6845C53.363 6.6845 55.0709 7.48644 56.304 9.12337V7.15216ZM74.1087 15.2043C75.3102 16.1063 75.9112 17.3759 75.8795 18.9795C75.8795 20.6836 75.2785 22.0199 74.0454 22.9555C72.812 23.8578 71.3259 24.3254 69.5234 24.3254C66.2662 24.3254 64.0525 22.9889 62.8824 20.3494L66.4244 18.2448C66.8986 19.6811 67.9421 20.4163 69.5234 20.4163C70.9778 20.4163 71.7054 19.9484 71.7054 18.9795C71.7054 18.2778 70.7565 17.6432 68.8277 17.1422C68.1001 16.9416 67.4993 16.7412 67.0252 16.5739C66.3611 16.3069 65.792 16.006 65.3176 15.6386C64.1475 14.7367 63.5467 13.5335 63.5467 11.9968C63.5467 10.3596 64.1158 9.05669 65.2543 8.12109C66.4244 7.15216 67.8472 6.6845 69.555 6.6845C72.2745 6.6845 74.2669 7.85378 75.5631 10.226L72.0849 12.2305C71.5788 11.0949 70.7252 10.5269 69.555 10.5269C68.3216 10.5269 67.7209 10.9946 67.7209 11.8965C67.7209 12.5982 68.6695 13.2328 70.5986 13.7341C72.0849 14.0681 73.2547 14.5694 74.1087 15.2043ZM87.0746 11.2952H83.5013V18.2448C83.5013 19.0801 83.8177 19.5811 84.4185 19.8147C84.8613 19.982 85.7466 20.0154 87.0746 19.9484V23.8578C84.3238 24.1918 82.3314 23.9245 81.1613 23.0222C79.9914 22.1536 79.4221 20.55 79.4221 18.2448V11.2952H76.6709V7.15216H79.4221V3.77769L83.5013 2.47475V7.15216H87.0746V11.2952ZM100.073 18.8126C100.895 17.9437 101.306 16.8411 101.306 15.5048C101.306 14.1685 100.895 13.066 100.073 12.1973C99.2502 11.3284 98.2384 10.8944 97.0049 10.8944C95.7718 10.8944 94.7599 11.3284 93.9376 12.1973C93.147 13.0993 92.7359 14.2019 92.7359 15.5048C92.7359 16.808 93.147 17.9106 93.9376 18.8126C94.7599 19.6812 95.7718 20.1155 97.0049 20.1155C98.2384 20.1155 99.2502 19.6812 100.073 18.8126ZM91.0599 21.7861C89.4473 20.0822 88.6567 18.0107 88.6567 15.5048C88.6567 13.0323 89.4473 10.9611 91.0599 9.25717C92.6726 7.55327 94.665 6.68464 97.0049 6.68464C99.3452 6.68464 101.337 7.55327 102.95 9.25717C104.563 10.9611 105.385 13.066 105.385 15.5048C105.385 17.9773 104.563 20.0822 102.95 21.7861C101.337 23.4903 99.3768 24.3253 97.0049 24.3253C94.6333 24.3253 92.6726 23.4903 91.0599 21.7861ZM119.015 18.9128C119.838 18.0108 120.248 16.8749 120.248 15.505C120.248 14.1351 119.838 12.9991 119.015 12.1305C118.193 11.2282 117.149 10.7942 115.885 10.7942C114.62 10.7942 113.576 11.2282 112.722 12.1305C111.9 12.9991 111.489 14.1351 111.489 15.505C111.489 16.8749 111.9 18.0108 112.722 18.9128C113.576 19.7814 114.651 20.2157 115.885 20.2157C117.149 20.2157 118.193 19.7814 119.015 18.9128ZM120.248 0.46991H124.328V23.8578H120.248V21.8863C119.047 23.5235 117.339 24.3254 115.126 24.3254C113.007 24.3254 111.173 23.4901 109.655 21.786C108.169 20.0821 107.41 17.9772 107.41 15.505C107.41 13.0661 108.169 10.9609 109.655 9.25703C111.173 7.55312 113.007 6.6845 115.126 6.6845C117.339 6.6845 119.047 7.48644 120.248 9.12337V0.46991ZM138.654 18.8126C139.476 17.9437 139.887 16.8411 139.887 15.5048C139.887 14.1685 139.476 13.066 138.654 12.1973C137.832 11.3284 136.82 10.8944 135.586 10.8944C134.353 10.8944 133.341 11.3284 132.519 12.1973C131.728 13.0993 131.317 14.2019 131.317 15.5048C131.317 16.808 131.728 17.9106 132.519 18.8126C133.341 19.6812 134.353 20.1155 135.586 20.1155C136.82 20.1155 137.832 19.6812 138.654 18.8126ZM129.641 21.7861C128.028 20.0822 127.238 18.0107 127.238 15.5048C127.238 13.0323 128.028 10.9611 129.641 9.25717C131.254 7.55327 133.246 6.68464 135.586 6.68464C137.927 6.68464 139.919 7.55327 141.532 9.25717C143.145 10.9611 143.967 13.066 143.967 15.5048C143.967 17.9773 143.145 20.0822 141.532 21.7861C139.919 23.4903 137.958 24.3253 135.586 24.3253C133.215 24.3253 131.254 23.4903 129.641 21.7861ZM161.613 13.6005V23.8575H157.533V14.1351C157.533 13.0325 157.249 12.1972 156.68 11.5626C156.142 10.9946 155.383 10.6937 154.403 10.6937C152.094 10.6937 150.924 12.0636 150.924 14.8367V23.8575H146.845V7.15221H150.924V9.02312C151.905 7.45287 153.454 6.68456 155.636 6.68456C157.375 6.68456 158.799 7.28587 159.905 8.52212C161.044 9.75837 161.613 11.4289 161.613 13.6005Z" fill="#CECECE"/>
</g>
<defs>
<clipPath id="clip0_3_179">
<rect width="161.26" height="40" fill="white" transform="translate(0.353149)"/>
</clipPath>
</defs>
</svg>
