<svg width="196" height="40" viewBox="0 0 196 40" fill="none" xmlns="http://www.w3.org/2000/svg">
<g clip-path="url(#clip0_3_183)">
<path d="M35.4994 21.3862L35.5253 21.3882L38.2212 21.6701C38.4105 21.6905 38.5843 21.7828 38.7071 21.9272L38.7271 21.9518L38.7015 21.9645C38.8275 22.1236 38.8831 22.3271 38.8552 22.5281C38.2662 27.2109 36.0466 31.5367 32.5861 34.7461C28.9955 38.0764 24.2791 39.9267 19.3818 39.9267C17.0032 39.9305 14.6449 39.4926 12.4268 38.6355L12.3059 38.5883C12.1244 38.5212 11.9785 38.3831 11.9013 38.2067L11.8897 38.1785C11.814 38.0028 11.8098 37.805 11.8771 37.6269L12.9412 35.0307C13.0854 34.6637 13.494 34.4788 13.8631 34.6089L13.8876 34.618C19.3269 36.7183 25.4874 35.5354 29.7621 31.57C32.483 29.0698 34.2375 25.6922 34.7184 22.0285C34.7694 21.6502 35.0976 21.375 35.4737 21.3851L35.4994 21.3862ZM99.1706 10.3677C101.469 10.3677 103.267 11.0691 104.415 12.416L104.454 12.4617V11.3218C104.469 11.0037 104.715 10.7465 105.03 10.7155L105.056 10.7134H108.123C108.438 10.7353 108.69 10.9837 108.717 11.2963L108.719 11.3218V28.349C108.818 30.7499 108.08 33.1108 106.631 35.0279C104.979 37.0387 102.469 38.0568 99.1706 38.0568C94.5858 38.0568 90.9676 35.156 90.3721 31.0128C90.3426 30.7137 90.5248 30.4356 90.808 30.3418L90.8332 30.334L93.8301 29.6297C93.8457 29.6261 93.8614 29.6232 93.8772 29.6209C94.2062 29.5726 94.5118 29.8002 94.5601 30.1292C94.8338 32.4532 96.8313 34.1871 99.1706 34.1314C102.715 34.1314 104.382 32.3301 104.415 28.566L104.415 28.4514V26.9594C103.087 28.4493 101.166 29.2726 99.1706 29.207C94.0734 29.207 90.3786 25.2496 90.3786 19.8065C90.3319 17.3576 91.1942 14.978 92.7991 13.1276C94.4291 11.3368 96.7494 10.3318 99.1706 10.3677ZM6.85718 31.0768L6.89518 31.0765L6.93333 31.0768C8.15687 31.0908 9.142 32.0802 9.1553 33.2992L9.1554 33.3374C9.1554 33.35 9.15525 33.3628 9.15503 33.3754C9.13372 34.6236 8.1047 35.6184 6.85645 35.5972C5.6082 35.5759 4.61355 34.5469 4.63464 33.2986C4.65551 32.0758 5.64339 31.0963 6.85718 31.0768ZM152.266 10.1308L152.424 10.1319C157.903 10.2076 161.298 14.0218 161.298 20.1267C161.298 20.4497 161.281 20.7725 161.247 21.0937C161.219 21.389 160.977 21.6168 160.683 21.6308L160.658 21.6315H147.633C147.713 24.3671 149.975 26.5316 152.712 26.4918C154.832 26.6252 156.765 25.2763 157.373 23.2389C157.484 22.9464 157.799 22.7891 158.098 22.873L158.122 22.8803L160.722 23.796C160.865 23.8422 160.983 23.944 161.049 24.0779L161.061 24.1034C161.132 24.2444 161.145 24.4083 161.094 24.558C159.886 28.1334 156.483 30.4991 152.712 30.3853C150.238 30.4099 147.858 29.4437 146.103 27.7022C144.186 25.6861 143.164 22.983 143.266 20.2036C143.266 13.9592 147.754 10.2063 152.136 10.1319L152.266 10.1308ZM78.5639 10.1308H78.5702C84.1479 10.1308 87.6122 13.9601 87.6122 20.1267C87.6118 20.4497 87.5947 20.7725 87.561 21.0937C87.5351 21.3906 87.2919 21.62 86.9965 21.6311L86.9718 21.6315H73.9469C74.0272 24.3747 76.3003 26.5422 79.0442 26.4919C81.1667 26.6276 83.101 25.2778 83.706 23.2389C83.8145 22.9441 84.1322 22.7856 84.431 22.8727L84.4552 22.8803L87.0551 23.796C87.2071 23.8451 87.3306 23.957 87.3944 24.1034C87.4553 24.2488 87.4553 24.4126 87.3944 24.558C86.1878 28.1311 82.7883 30.4962 79.0186 30.3853C76.5413 30.4133 74.1562 29.4469 72.3972 27.7022C70.4837 25.6846 69.4615 22.9826 69.5604 20.2036C69.5604 13.8961 74.139 10.1308 78.5639 10.1308ZM58.8408 10.1243C61.3446 10.1243 63.3681 10.7327 64.8666 11.9301C65.8798 12.7376 66.6307 13.8272 67.0246 15.0615L67.0258 15.0665C67.0772 15.2793 66.9522 15.4936 66.7447 15.5553L66.7237 15.5609L63.6179 16.5856C63.4801 16.6401 63.3266 16.6401 63.1889 16.5856C63.0713 16.5306 62.9827 16.4281 62.9455 16.3038L62.929 16.2427C62.6461 15.2315 61.7213 13.6079 58.8408 13.6079C56.7917 13.6079 55.5622 14.7862 55.5622 15.926L55.5627 15.9711C55.5781 16.7123 55.9811 17.6427 57.7484 17.9964L57.8035 18.0071L61.223 18.6475C65.0013 19.4083 67.1792 21.4618 67.2224 24.3237L67.2231 24.4107L67.2103 24.3596L67.2095 24.4464C67.1545 27.3153 64.3796 30.334 59.2698 30.334C53.2825 30.334 50.9324 26.9465 50.4969 24.9487C50.4685 24.7397 50.596 24.5422 50.7955 24.4808L50.8171 24.4748L54.0189 23.4758C54.0762 23.4665 54.1346 23.4665 54.1918 23.4758C54.2732 23.4744 54.3537 23.4916 54.4271 23.5261L54.4543 23.5399C54.572 23.5962 54.6587 23.7017 54.6912 23.8279C55.0948 25.7491 56.8301 26.8954 59.3275 26.8954C61.652 26.8954 62.7086 25.6786 62.7086 24.5772C62.7086 23.4879 61.7878 22.6804 60.2003 22.3469L60.1472 22.336L56.5548 21.638C53.2056 21.004 51.1181 18.9228 51.1181 16.2141C51.1181 12.9163 54.6593 10.1243 58.8408 10.1243ZM187.989 4.79016H190.787C191.117 4.80998 191.376 5.07777 191.389 5.40577L191.389 5.43048V10.6879H194.757C195.084 10.7109 195.34 10.9775 195.353 11.303L195.353 11.3282V14.1202L195.353 14.1445C195.344 14.4575 195.095 14.7117 194.782 14.7277L194.757 14.7285H191.389V24.0713C191.389 25.621 192.003 26.2614 193.585 26.2614C193.905 26.2558 194.225 26.2315 194.542 26.1886L194.661 26.1717C194.836 26.1421 195.014 26.1914 195.148 26.3062C195.269 26.4184 195.341 26.5726 195.352 26.7365L195.353 26.7673V29.3991C195.355 29.6673 195.181 29.9049 194.924 29.9819C194.186 30.1883 193.425 30.292 192.659 30.2901L192.555 30.2892C189.213 30.2892 187.128 28.1616 187.087 24.7203L187.086 24.6157V14.7669H184.172C183.854 14.7482 183.599 14.499 183.572 14.1842L183.57 14.1586V11.3538C183.569 11.0229 183.821 10.7475 184.148 10.7154L184.172 10.7134L184.955 10.7134L185.039 10.7119C185.953 10.6856 187.358 10.315 187.386 8.2739L187.387 8.20959V5.43048C187.386 5.09959 187.638 4.82421 187.964 4.79211L187.989 4.79016ZM133.6 10.1279L133.673 10.1308H133.667C136.963 10.1308 140.291 12.4278 140.358 17.4444L140.359 17.5972V29.4568C140.344 29.7749 140.096 30.032 139.782 30.0631L139.757 30.0651H136.689C136.372 30.0463 136.117 29.7972 136.089 29.4824L136.087 29.4568V17.9815L136.087 17.8932C136.068 16.431 135.571 14.0817 132.559 14.0817C130.334 14.0817 128.748 15.814 128.717 18.3339L128.716 18.4105V29.4568C128.701 29.7749 128.455 30.032 128.14 30.0631L128.114 30.0651H125.009C124.691 30.0463 124.437 29.7972 124.409 29.4824L124.408 29.4568V17.9815L124.407 17.8932C124.388 16.431 123.891 14.0817 120.879 14.0817C118.565 14.0817 116.998 15.8014 116.967 18.3709L116.966 18.449V29.4568C116.95 29.7749 116.704 30.032 116.39 30.0631L116.365 30.0651H113.297C112.981 30.0433 112.73 29.7948 112.703 29.4823L112.702 29.4568V11.2834C112.717 10.9675 112.96 10.7112 113.271 10.6773L113.297 10.675H116.249C116.567 10.6937 116.822 10.943 116.849 11.2577L116.851 11.2834V12.3784C118.179 10.9225 120.067 10.1044 122.037 10.1308C124.32 10.0639 126.449 11.2705 127.564 13.262C128.892 11.2335 131.181 10.0467 133.6 10.1279ZM179.529 12.3911C180.705 13.9393 181.31 15.8434 181.248 17.7842L181.245 17.8662V29.4568C181.23 29.7727 180.987 30.0289 180.675 30.0629L180.65 30.0651H177.545C177.226 30.0463 176.972 29.7972 176.944 29.4824L176.942 29.4568V18.4874C176.942 15.6186 175.591 14.1586 173.03 14.1586C171.898 14.122 170.816 14.626 170.116 15.5161C169.438 16.4931 169.088 17.6592 169.115 18.8466L169.117 18.9164V29.4568C169.101 29.7749 168.855 30.032 168.541 30.0631L168.515 30.0651H165.416C165.098 30.0463 164.843 29.7972 164.816 29.4824L164.814 29.4568V11.2705C164.829 10.9524 165.076 10.6953 165.39 10.6642L165.416 10.6622H168.445C168.761 10.684 169.012 10.9325 169.039 11.245L169.04 11.2705V12.5513C170.34 10.9772 172.289 10.0852 174.33 10.1308C176.318 10.0458 178.236 10.8793 179.529 12.3911ZM1.04837 22.1631H23.096C23.5011 22.1665 23.8284 22.4909 23.8386 22.893L23.8389 22.9187V25.6787C23.8423 26.0839 23.5234 26.4166 23.1217 26.4336L23.0959 26.4343H1.04837C0.643141 26.4308 0.315943 26.1063 0.305542 25.7044V25.6786V22.9186V22.8929C0.315726 22.4997 0.629168 22.1807 1.02206 22.1638L1.04837 22.1631ZM99.7022 14.197C96.6797 14.197 94.7586 16.3486 94.7586 19.8065C94.7586 23.2645 96.654 25.4096 99.7022 25.4096C102.609 25.4096 104.569 23.1557 104.569 19.8065C104.569 16.451 102.609 14.197 99.7022 14.197ZM74.0832 17.9384L74.075 18.0071H83.1873C82.9655 15.5728 81.2498 14.0547 78.6804 14.0246L78.6023 14.0241C76.3383 13.9873 74.4103 15.6432 74.0924 17.8707L74.0832 17.9384ZM147.795 17.9384L147.787 18.0071H156.899C156.678 15.5728 154.962 14.0547 152.392 14.0246L152.314 14.0241C150.05 13.9873 148.122 15.6432 147.804 17.8707L147.795 17.9384ZM25.8559 1.10164C26.0468 1.1705 26.2015 1.31372 26.2849 1.49868C26.3615 1.6854 26.3615 1.89474 26.2849 2.08135L25.3244 4.64287C25.1913 5.02267 24.776 5.22312 24.3959 5.0911C19.3638 3.33509 13.7801 4.33281 9.66762 7.72292C7.10467 9.86817 5.28485 12.7683 4.46791 16.0092C4.38334 16.3365 4.08866 16.5653 3.7507 16.5663H3.58419L0.945896 15.9324C0.749185 15.8861 0.580262 15.761 0.478447 15.5865H0.465596C0.358839 15.4121 0.328744 15.2013 0.382453 15.0039C1.43015 10.8552 3.77442 7.14926 7.07414 4.42507C12.3211 0.105451 19.4453 -1.15521 25.8559 1.10164ZM16.0904 12.1671H38.138C38.5332 12.1703 38.8561 12.4794 38.8797 12.8708L38.8808 12.897V15.657C38.8842 16.0623 38.5655 16.395 38.1637 16.412L38.138 16.4127H16.0904C15.6879 16.4058 15.3644 16.0826 15.3542 15.6832L15.3539 15.657V12.9226C15.3505 12.5201 15.6653 12.1885 16.0643 12.168L16.0904 12.1671ZM31.3957 3.74627L31.4337 3.74597L31.4719 3.7463C32.6954 3.76033 33.6806 4.74967 33.6939 5.96861L33.694 6.00678C33.694 6.01952 33.6938 6.03226 33.6936 6.04489C33.6724 7.29314 32.6433 8.28779 31.395 8.26659C30.1467 8.24539 29.1521 7.21626 29.1733 5.96812C29.1941 4.74523 30.182 3.76581 31.3957 3.74627Z" fill="#CECECE"/>
</g>
<defs>
<clipPath id="clip0_3_183">
<rect width="195.048" height="40" fill="white" transform="translate(0.305542)"/>
</clipPath>
</defs>
</svg>
