<svg width="478" height="480" viewBox="0 0 478 480" fill="none" xmlns="http://www.w3.org/2000/svg">
<path d="M81.4608 71.7024H56.1459V82.4448H81.4608V71.7024Z" fill="#EBEBEB"/>
<path d="M67.3406 58.1567H42.0258V68.8991H67.3406V58.1567Z" fill="#EBEBEB"/>
<path d="M95.5809 58.1567H70.266V68.8991H95.5809V58.1567Z" fill="#EBEBEB"/>
<path d="M421.854 58.1567H396.539V68.8991H421.854V58.1567Z" fill="#EBEBEB"/>
<path d="M421.854 348.029H396.539V358.771H421.854V348.029Z" fill="#EBEBEB"/>
<path d="M435.974 334.483H410.659V345.226H435.974V334.483Z" fill="#EBEBEB"/>
<path d="M67.3406 348.019H42.0258V358.762H67.3406V348.019Z" fill="#EBEBEB"/>
<path d="M111.776 230.947H137.09V220.205H111.776V230.947Z" fill="#EBEBEB"/>
<path d="M125.896 244.493H151.211V233.75H125.896V244.493Z" fill="#EBEBEB"/>
<path d="M80.7342 0H79.6061V104.784H80.7342V0Z" fill="#C7C7C7"/>
<path d="M113.085 136.646L110.437 142.493H49.8936L47.2551 136.646L73.0288 118.733H87.3115L113.085 136.646Z" fill="#EBEBEB"/>
<path d="M89.0992 101.472L87.3115 118.733H73.0288L71.2411 101.472H89.0992Z" fill="#DBDBDB"/>
<path d="M113.085 136.656L110.437 142.493H49.8936L47.2551 136.656H113.085Z" fill="#DBDBDB"/>
<path d="M160.34 0H159.212V85.9296H160.34V0Z" fill="#C7C7C7"/>
<path d="M192.691 117.792L190.043 123.638H129.5L126.861 117.792L152.635 99.8784H166.918L192.691 117.792Z" fill="#EBEBEB"/>
<path d="M168.705 82.6176L166.918 99.8783H152.635L150.847 82.6176H168.705Z" fill="#DBDBDB"/>
<path d="M192.691 117.802L190.043 123.638H129.5L126.861 117.802H192.691Z" fill="#DBDBDB"/>
<path d="M407.294 75.3984H345.164V137.789H407.294V75.3984Z" fill="white"/>
<path d="M341.932 72.1536V141.034H410.525V72.1536H341.932ZM407.256 137.789H345.116V75.3888H407.256V137.789Z" fill="#DBDBDB"/>
<path d="M402.83 125.702V104.131H354.408V125.702H402.83Z" fill="#EBEBEB"/>
<path d="M388.633 119.05V94.1376H363.825V119.05H388.633Z" fill="#C7C7C7"/>
<path d="M413.174 72.1536H410.525V141.034H413.174V72.1536Z" fill="#C7C7C7"/>
<path d="M407.294 163.987H345.164V226.378H407.294V163.987Z" fill="white"/>
<path d="M372.066 173.971H355.842V221.03H372.066V173.971Z" fill="#C7C7C7"/>
<path d="M341.932 160.742V229.622H410.525V160.742H341.932ZM407.256 226.378H345.116V163.978H407.256V226.378Z" fill="#DBDBDB"/>
<path d="M388.633 182.726H363.825V207.638H388.633V182.726Z" fill="#EBEBEB"/>
<path d="M413.174 160.742H410.525V229.622H413.174V160.742Z" fill="#C7C7C7"/>
<path d="M407.294 252.576H345.164V314.966H407.294V252.576Z" fill="white"/>
<path d="M386.148 261.082H352.057V281.549H386.148V261.082Z" fill="#EBEBEB"/>
<path d="M341.932 249.331V318.211H410.525V249.331H341.932ZM407.256 314.966H345.116V252.566H407.256V314.966Z" fill="#DBDBDB"/>
<path d="M388.633 271.315H363.825V296.227H388.633V271.315Z" fill="#C7C7C7"/>
<path d="M413.174 249.331H410.525V318.211H413.174V249.331Z" fill="#C7C7C7"/>
<path d="M314.247 442.791C377.61 442.791 428.976 436.924 428.976 429.687C428.976 422.449 377.61 416.583 314.247 416.583C250.883 416.583 199.517 422.449 199.517 429.687C199.517 436.924 250.883 442.791 314.247 442.791Z" fill="#EBEBEB"/>
<path d="M29.3205 414.72L81.738 414.49L134.165 414.403L239 414.24L343.835 414.403L396.262 414.48L448.679 414.72L396.262 414.95L343.835 415.037L239 415.2L134.165 415.037L81.738 414.95L29.3205 414.72Z" fill="#263238"/>
<path d="M259.191 414.72H176.114C173.495 386.438 170.866 357.456 168.782 334.349C168.715 333.581 168.638 332.813 168.572 332.054C166.22 305.914 164.623 287.846 164.623 287.846H243.015C243.021 287.926 243.021 288.006 243.015 288.086C243.598 292.368 251.581 354.845 259.191 414.72Z" fill="#37474F"/>
<path d="M188.705 414.72H187.376C183.753 384.096 180.808 353.414 178.131 322.694C177.979 320.858 177.819 319.018 177.653 317.174C177.118 310.867 176.583 304.531 176.067 298.214C176.067 298.022 176.344 298.022 176.372 298.214C176.959 303.814 177.526 309.402 178.074 314.976C178.079 314.992 178.079 315.008 178.074 315.024C178.265 317.059 178.476 319.085 178.676 321.13C180.808 342.326 182.921 363.504 185.235 384.672C186.337 394.701 187.494 404.717 188.705 414.72Z" fill="#263238"/>
<path d="M231.696 287.846L221.18 357.658L220.807 360.019L219.851 366.307L219.775 366.749L219.526 368.438L212.528 414.72H167.902C163.323 388.8 158.639 362.227 154.757 340.176C154.671 339.677 154.585 339.216 154.499 338.717C149.27 309.043 145.532 287.837 145.532 287.837L231.696 287.846Z" fill="#263238"/>
<path d="M243.092 287.779C243.092 287.779 243.092 287.875 243.044 288.086C242.422 292.157 235.673 335.808 224.459 364.454C224.383 364.694 224.297 364.915 224.192 365.165C224.192 365.165 222.614 365.654 219.765 366.787C218.656 367.229 217.337 367.747 215.846 368.419L214.22 369.149C210.932 370.627 206.945 372.566 202.395 375.043C201.955 375.274 201.525 375.514 201.095 375.754C201.095 375.754 201.095 375.936 201.095 376.272C200.865 379.277 199.699 394.694 198.227 414.672H119.968C125.991 352.339 132.607 287.731 132.607 287.731L243.092 287.779Z" fill="#37474F"/>
<path d="M141.364 299.923C139.136 329.165 137.004 358.406 134.672 387.61C133.945 396.646 133.199 405.683 132.435 414.72H131.287C134.595 376.461 137.74 338.201 140.723 299.942C140.742 299.52 141.392 299.52 141.364 299.923Z" fill="#263238"/>
<path d="M228.149 363.11C218.783 366.534 209.731 370.767 201.095 375.763C201.058 375.78 201.024 375.803 200.996 375.833C200.968 375.862 200.946 375.897 200.932 375.934C200.917 375.972 200.91 376.013 200.911 376.053C200.912 376.094 200.921 376.134 200.937 376.171C200.953 376.208 200.977 376.242 201.006 376.27C201.035 376.298 201.07 376.32 201.107 376.335C201.145 376.35 201.185 376.357 201.226 376.356C201.266 376.355 201.306 376.346 201.343 376.33C210.454 372.394 219.746 368.65 228.637 364.205C228.781 364.14 228.894 364.02 228.951 363.871C229.007 363.723 229.003 363.558 228.938 363.413C228.873 363.268 228.754 363.154 228.606 363.098C228.458 363.041 228.294 363.045 228.149 363.11Z" fill="#263238"/>
<path d="M231.046 300.307C231.046 299.99 230.463 299.923 230.472 300.307C230.539 311.174 229.851 320.726 228.943 330.883C228.513 335.597 224.737 361.651 216.601 359.75C215.234 359.434 214.536 358.089 214.326 356.025C214.068 353.549 214.995 350.506 215.406 348.038C216.362 342.576 217.041 337.104 217.5 331.603C218.448 321.344 218.339 311.014 217.175 300.777C217.163 300.716 217.13 300.661 217.082 300.621C217.034 300.581 216.974 300.559 216.912 300.559C216.849 300.559 216.789 300.581 216.741 300.621C216.693 300.661 216.66 300.716 216.649 300.777C216.649 315.014 216.285 329.222 214.163 343.325C213.15 350.102 209.746 360.307 216.811 361.344C223.876 362.381 228.647 345.322 229.526 340.646C231.973 327.59 232.069 313.507 231.046 300.307Z" fill="#263238"/>
<path d="M216.811 360.413C216.089 362.173 215.479 363.979 214.985 365.817C214.459 367.235 214.199 368.739 214.221 370.253C214.233 370.313 214.262 370.369 214.305 370.412C214.348 370.456 214.402 370.487 214.462 370.5C214.522 370.513 214.584 370.509 214.641 370.487C214.699 370.465 214.748 370.427 214.785 370.378C215.635 369.043 216.28 367.586 216.697 366.057C217.318 364.387 217.968 362.726 218.542 361.037C218.556 360.828 218.501 360.621 218.388 360.447C218.274 360.272 218.106 360.14 217.911 360.069C217.715 359.999 217.502 359.994 217.304 360.056C217.105 360.118 216.933 360.243 216.811 360.413Z" fill="#263238"/>
<path d="M179.977 308.832C179.992 307.696 179.876 306.562 179.632 305.453C179.623 305.415 179.602 305.382 179.572 305.357C179.541 305.333 179.504 305.32 179.465 305.32C179.427 305.32 179.389 305.333 179.359 305.357C179.328 305.382 179.307 305.415 179.298 305.453C179.07 306.396 178.945 307.362 178.925 308.333C178.81 309.456 178.657 310.57 178.543 311.693C178.299 313.986 177.9 316.26 177.348 318.499C176.32 322.734 174.173 326.611 171.134 329.722C168.11 332.701 164.539 335.062 160.618 336.672C156.249 338.534 151.641 339.226 147.128 340.56C146.937 340.608 146.995 340.886 147.128 340.896C152.139 340.883 157.101 339.905 161.746 338.016C165.849 336.467 169.584 334.073 172.711 330.989C175.85 327.808 178.059 323.823 179.097 319.469C179.619 317.229 179.914 314.942 179.977 312.643C180.052 311.374 180.052 310.101 179.977 308.832Z" fill="#263238"/>
<path d="M209.488 187.2C215.788 201.37 261.648 267.014 298.501 274.944C304.715 276.278 323.998 282.403 335.155 266.4C350.231 244.79 359.848 203.405 357.735 181.334C355.986 163.094 306.322 176.774 303.396 187.162C301.188 195.024 297.259 220.819 295.653 220.406C285.213 217.699 254.114 190.646 223.121 173.99C208.752 166.214 204.641 176.246 209.488 187.2Z" fill="#F5A784"/>
<path d="M292.603 231.619C292.818 230.005 293.115 228.403 293.492 226.819C294.283 223.767 295.351 220.794 296.685 217.939C296.742 217.814 296.972 217.891 296.924 218.035C295.968 220.982 295.27 224.045 294.486 227.05C294.104 228.547 293.741 230.035 293.406 231.542C293.071 233.05 292.651 234.614 292.393 236.17C292.393 236.256 292.221 236.246 292.23 236.17C292.335 234.624 292.393 233.126 292.603 231.619Z" fill="#263238"/>
<path d="M357.965 184.704C357.965 184.704 357.143 160.8 348.605 144.902C342.707 133.91 327.21 111.437 290.127 109.997C281.332 109.661 268.55 115.44 282.718 121.229C292.785 125.347 300.404 124.906 305.824 128.371C305.824 128.371 290.442 137.664 290.442 146.525C290.442 150.49 289.859 159.072 291.255 167.462C291.255 167.462 293.999 169.872 296.437 169.766C296.437 169.766 296.704 178.061 305.997 186.624L357.965 184.704Z" fill="#F5A784"/>
<path d="M244.736 134.832C240.224 137.885 237.757 145.094 241.39 151.949C245.023 158.803 254.22 157.93 258.598 154.925C262.976 151.92 266.676 144.422 262.938 138.029C259.774 132.48 252.68 129.485 244.736 134.832Z" fill="#2AAF74"/>
<path opacity="0.1" d="M244.736 134.832C240.224 137.885 237.757 145.094 241.39 151.949C245.023 158.803 254.22 157.93 258.598 154.925C262.976 151.92 266.676 144.422 262.938 138.029C259.774 132.48 252.68 129.485 244.736 134.832Z" fill="black"/>
<path d="M246.113 136.627C242.432 139.114 240.424 145.008 243.388 150.605C246.352 156.202 253.904 155.491 257.46 153.034C261.017 150.576 264.066 144.461 261.017 139.229C258.378 134.698 252.585 132.259 246.113 136.627Z" fill="#2AAF74"/>
<path d="M253.818 139.738C254.143 139.997 255.309 139.018 254.669 138.557C254.028 138.096 253.397 139.411 253.818 139.738Z" fill="white"/>
<path d="M256.543 146.16C256.38 146.534 257.613 147.427 257.9 146.688C258.187 145.949 256.763 145.661 256.543 146.16Z" fill="white"/>
<path d="M259.277 143.664C259.344 144.067 260.864 144.134 260.701 143.357C260.539 142.579 259.191 143.126 259.277 143.664Z" fill="white"/>
<path d="M253.742 136.925C254.143 136.858 254.22 135.341 253.445 135.494C252.671 135.648 253.206 137.011 253.742 136.925Z" fill="white"/>
<path d="M246.466 142.243C246.572 141.85 245.214 141.158 245.042 141.936C244.87 142.714 246.323 142.771 246.466 142.243Z" fill="white"/>
<path d="M249.717 150.72C249.382 150.48 248.264 151.507 248.923 151.939C249.583 152.371 250.157 151.046 249.717 150.72Z" fill="white"/>
<path d="M252.384 150.211C251.982 150.144 251.428 151.565 252.212 151.661C252.996 151.757 252.919 150.298 252.384 150.211Z" fill="white"/>
<path d="M249.583 144.202C249.87 143.914 249.028 142.637 248.503 143.242C247.977 143.846 249.201 144.586 249.583 144.202Z" fill="white"/>
<path d="M241.4 145.258C241.4 145.258 248.809 144.432 249.784 145.939C250.759 147.446 245.491 154.07 244.621 153.485C243.751 152.899 240.597 147.773 241.4 145.258Z" fill="#2AAF74"/>
<path opacity="0.1" d="M241.4 145.258C241.4 145.258 248.809 144.432 249.784 145.939C250.759 147.446 245.491 154.07 244.621 153.485C243.751 152.899 240.597 147.773 241.4 145.258Z" fill="black"/>
<path d="M254.067 155.126C254.067 155.126 251.877 147.965 253.178 146.726C254.478 145.488 261.925 149.443 261.523 150.413C261.122 151.382 256.676 155.443 254.067 155.126Z" fill="#2AAF74"/>
<path opacity="0.1" d="M254.067 155.126C254.067 155.126 251.877 147.965 253.178 146.726C254.478 145.488 261.925 149.443 261.523 150.413C261.122 151.382 256.676 155.443 254.067 155.126Z" fill="black"/>
<path d="M263.502 141.936C263.502 141.936 256.256 143.702 255.099 142.33C253.942 140.957 258.321 133.69 259.258 134.189C260.195 134.688 263.971 139.334 263.502 141.936Z" fill="#2AAF74"/>
<path opacity="0.1" d="M263.502 141.936C263.502 141.936 256.256 143.702 255.099 142.33C253.942 140.957 258.321 133.69 259.258 134.189C260.195 134.688 263.971 139.334 263.502 141.936Z" fill="black"/>
<path d="M251.218 133.229C251.218 133.229 252.986 140.506 251.619 141.667C250.252 142.829 243.015 138.432 243.503 137.491C243.99 136.55 248.636 132.749 251.218 133.229Z" fill="#2AAF74"/>
<path opacity="0.1" d="M251.218 133.229C251.218 133.229 252.986 140.506 251.619 141.667C250.252 142.829 243.015 138.432 243.503 137.491C243.99 136.55 248.636 132.749 251.218 133.229Z" fill="black"/>
<path d="M266.447 145.43C262.957 146.765 246.256 150.106 246.256 150.106L246.581 149.309L264.487 143.712C264.616 143.662 264.721 143.565 264.781 143.44C264.842 143.316 264.853 143.172 264.812 143.04C264.791 142.97 264.757 142.906 264.711 142.85C264.665 142.794 264.608 142.748 264.543 142.715C264.479 142.681 264.409 142.662 264.337 142.657C264.264 142.651 264.192 142.661 264.124 142.685L247.384 147.293L247.91 146.016L266.227 140.006C266.304 139.992 266.378 139.962 266.442 139.918C266.507 139.873 266.562 139.815 266.603 139.748C266.643 139.68 266.67 139.605 266.679 139.527C266.689 139.449 266.682 139.369 266.659 139.294C266.636 139.219 266.597 139.149 266.545 139.09C266.493 139.031 266.429 138.983 266.357 138.951C266.286 138.918 266.208 138.902 266.13 138.901C266.051 138.901 265.974 138.918 265.902 138.95L248.761 143.962L249.267 142.742L268.005 136.272C268.075 136.252 268.141 136.219 268.197 136.173C268.254 136.127 268.301 136.07 268.335 136.005C268.369 135.94 268.39 135.869 268.395 135.796C268.401 135.723 268.392 135.65 268.368 135.581C268.349 135.511 268.316 135.447 268.27 135.391C268.225 135.335 268.169 135.289 268.105 135.256C268.042 135.223 267.972 135.203 267.901 135.198C267.829 135.192 267.757 135.202 267.69 135.226L250.099 140.707L250.529 139.67C250.529 139.67 268.158 132.835 270.242 132.432C273.999 131.693 271.733 143.414 266.447 145.43Z" fill="#455A64"/>
<path d="M270.328 135.734C272.775 134.611 282.823 130.166 284.008 129.706C285.385 129.168 334.074 110.15 336.015 110.093C337.956 110.035 337.076 116.726 335.958 118.138C334.839 119.549 288.712 132.307 284.066 134.15C279.2 136.07 270.051 139.91 270.051 139.91L270.328 135.734Z" fill="#455A64"/>
<path d="M345.938 143.664C340.651 139.824 329.294 131.942 317.765 128.717C304.964 125.136 279.343 121.709 276.81 131.222C274.946 138.202 284.62 140.381 284.62 140.381C284.62 140.381 273.732 141.197 273.426 147.869C273.148 153.955 280.72 155.184 280.72 155.184C280.72 155.184 274.2 156.826 275.06 162.739C276.093 169.843 289.582 165.235 296.819 171.533C298.444 172.944 345.938 143.664 345.938 143.664Z" fill="#F5A784"/>
<path d="M316.254 142.934C310.7 140.16 296.446 137.117 284.812 140.16C284.544 140.227 284.458 140.467 284.706 140.458C295.287 140.025 305.882 140.889 316.254 143.03C316.293 143.04 316.321 142.963 316.254 142.934Z" fill="#263238"/>
<path d="M312.287 155.808C307.239 153.888 292.412 151.43 280.739 154.944C280.471 155.021 280.404 155.261 280.653 155.242C291.183 154.268 301.789 154.496 312.268 155.923C312.325 155.942 312.344 155.827 312.287 155.808Z" fill="#263238"/>
<path d="M241.103 234.826L289.668 208.8C289.668 208.8 241.533 179.347 219.326 170.88C196.181 162.019 187.424 168.538 208.265 193.978C228.79 218.995 241.103 234.826 241.103 234.826Z" fill="#2AAF74"/>
<path d="M285.681 206.4C284.753 206.648 283.845 206.969 282.966 207.36C281.662 207.926 280.442 208.673 279.343 209.578C280.747 209.368 282.115 208.96 283.406 208.368C284.417 207.931 285.379 207.388 286.274 206.746C286.073 206.65 285.844 206.525 285.681 206.4ZM234.516 213.667C233.211 214.226 231.994 214.973 230.903 215.885C232.304 215.671 233.669 215.261 234.956 214.666C236.264 214.11 237.485 213.366 238.579 212.458C237.173 212.658 235.804 213.066 234.516 213.667ZM257.518 218.045C256.961 216.736 256.22 215.514 255.319 214.416C255.525 215.827 255.93 217.2 256.523 218.496C257.077 219.803 257.818 221.023 258.722 222.115C258.52 220.707 258.114 219.336 257.518 218.045ZM216.056 197.04C215.492 195.736 214.748 194.518 213.848 193.421C214.058 194.828 214.467 196.199 215.062 197.491C215.613 198.803 216.354 200.026 217.261 201.12C217.055 199.709 216.649 198.335 216.056 197.04ZM204.584 177.033C203.267 176.517 201.882 176.193 200.473 176.073C201.611 176.922 202.863 177.604 204.192 178.099C205.511 178.61 206.895 178.934 208.303 179.059C207.165 178.21 205.913 177.528 204.584 177.033ZM237.977 191.434C236.659 190.9 235.271 190.561 233.857 190.426C234.997 191.279 236.252 191.964 237.585 192.461C238.904 192.972 240.288 193.295 241.696 193.421C240.58 192.573 239.351 191.887 238.044 191.386L237.977 191.434ZM226.171 173.76C225.663 175.035 225.341 176.377 225.215 177.744C226.019 176.666 226.664 175.476 227.127 174.211L226.171 173.76ZM259.267 198.95C258.758 200.275 258.436 201.664 258.311 203.078C259.979 200.765 261.017 198.055 261.323 195.216C260.466 196.347 259.774 197.595 259.267 198.922V198.95Z" fill="white"/>
<path d="M239.956 224.64C241.036 223.891 242.241 223.286 243.379 222.634C244.516 221.981 245.73 221.299 246.906 220.627C249.296 219.274 251.686 217.958 254.114 216.653C258.894 214.051 263.741 211.421 268.607 208.906C269.946 208.205 271.284 207.523 272.642 206.861C273.999 206.198 275.51 205.574 276.963 204.883C276.979 204.882 276.995 204.885 277.009 204.894C277.023 204.902 277.034 204.914 277.04 204.929C277.047 204.944 277.048 204.961 277.045 204.977C277.041 204.993 277.032 205.007 277.02 205.018C275.854 205.699 274.726 206.486 273.559 207.168C272.393 207.85 271.141 208.57 269.927 209.242C267.53 210.566 265.118 211.869 262.69 213.149C257.91 215.683 253.13 218.237 248.35 220.666L244.258 222.72C242.853 223.43 241.457 224.227 239.985 224.803C239.956 224.832 239.841 224.726 239.956 224.64Z" fill="#263238"/>
<path d="M208.265 193.92C228.79 218.986 241.103 234.806 241.103 234.806L256.619 226.493L198.303 168.49C194.278 171.59 196.754 179.875 208.265 193.92Z" fill="#263238"/>
<path d="M252.164 330.47L123.448 338.63C123.448 338.63 135.37 214.08 180.158 168.874C185.693 163.296 198.991 163.642 207.882 167.405C211.066 168.739 223.102 183.581 227.174 198.125C231.247 212.669 252.48 330.01 252.164 330.47Z" fill="#2AAF74"/>
<path d="M167.529 205.44C166.224 206.001 165.004 206.744 163.906 207.648C165.315 207.436 166.684 207.016 167.969 206.4C169.277 205.844 170.498 205.101 171.592 204.192C170.186 204.413 168.818 204.833 167.529 205.44ZM231.056 215.808C231.001 215.844 230.949 215.886 230.903 215.933C230.957 215.938 231.011 215.938 231.065 215.933C231.065 215.933 231.056 215.789 231.056 215.76V215.808ZM198.848 237.331C197.542 237.89 196.322 238.634 195.225 239.539C196.629 239.329 197.997 238.922 199.288 238.33C200.591 237.771 201.808 237.027 202.901 236.122C201.498 236.323 200.133 236.73 198.848 237.331ZM184.699 291.994C183.396 292.556 182.179 293.303 181.086 294.211C182.491 294.009 183.86 293.601 185.149 293.002C186.451 292.437 187.667 291.69 188.762 290.784C187.357 290.991 185.989 291.398 184.699 291.994ZM152.903 256.474C151.603 257.039 150.386 257.782 149.289 258.682C150.695 258.479 152.064 258.072 153.352 257.472C154.654 256.91 155.871 256.167 156.966 255.264C155.558 255.486 154.19 255.91 152.903 256.522V256.474ZM131.173 332.63C129.868 333.188 128.651 333.931 127.559 334.838C128.965 334.636 130.334 334.229 131.622 333.629C132.926 333.066 134.142 332.319 135.236 331.411C133.827 331.631 132.458 332.058 131.173 332.678V332.63ZM187.73 324.365C186.426 324.923 185.209 325.666 184.116 326.573C185.521 326.366 186.889 325.959 188.179 325.363C189.481 324.797 190.697 324.05 191.793 323.146C190.383 323.362 189.013 323.789 187.73 324.413V324.365ZM251.428 325.651C250.524 325.897 249.641 326.218 248.789 326.611C247.49 327.178 246.274 327.921 245.176 328.819C246.581 328.616 247.95 328.208 249.239 327.61C250.038 327.252 250.811 326.838 251.552 326.371C251.495 326.122 251.428 325.882 251.428 325.651ZM222.356 288.144C221.05 288.707 219.83 289.453 218.733 290.362C220.121 290.149 221.472 289.741 222.748 289.152C224.056 288.592 225.276 287.845 226.371 286.934C224.976 287.141 223.617 287.549 222.337 288.144H222.356ZM179.537 184.598C178.979 183.288 178.235 182.066 177.328 180.97C177.538 182.376 177.943 183.747 178.533 185.04C179.091 186.353 179.835 187.578 180.741 188.678C180.538 187.267 180.132 185.893 179.537 184.598ZM160.293 331.046C159.738 329.734 158.997 328.508 158.094 327.408C158.297 328.819 158.703 330.194 159.298 331.488C159.855 332.8 160.596 334.025 161.497 335.126C161.303 333.713 160.897 332.338 160.293 331.046ZM152.386 295.382C151.822 294.076 151.076 292.857 150.168 291.763C150.379 293.17 150.784 294.54 151.373 295.834C151.933 297.145 152.68 298.368 153.591 299.462C153.38 298.053 152.975 296.68 152.386 295.382ZM200.014 270.883C199.452 269.574 198.712 268.35 197.816 267.245C198.014 268.657 198.42 270.032 199.02 271.325C199.573 272.638 200.314 273.864 201.219 274.963C201.01 273.553 200.604 272.18 200.014 270.883ZM179.785 225.763C179.225 224.451 178.481 223.226 177.577 222.125C177.776 223.537 178.182 224.912 178.782 226.205C179.34 227.518 180.083 228.743 180.99 229.843C180.782 228.448 180.377 227.091 179.785 225.811V225.763ZM210.119 329.597C210.29 330.779 210.612 331.934 211.075 333.034L212.222 332.957C211.667 331.766 210.96 330.653 210.119 329.645V329.597ZM244.918 300.48C244.356 299.17 243.609 297.947 242.7 296.851C242.916 298.256 243.321 299.626 243.904 300.922C244.466 302.23 245.21 303.452 246.113 304.55C245.91 303.143 245.507 301.773 244.918 300.48ZM216.056 197.04C215.492 195.736 214.748 194.518 213.848 193.421C214.058 194.829 214.467 196.199 215.062 197.491C215.613 198.803 216.354 200.026 217.261 201.12C217.055 199.709 216.649 198.335 216.056 197.04ZM204.584 177.034C203.267 176.517 201.882 176.193 200.473 176.074C201.611 176.922 202.863 177.604 204.192 178.099C205.511 178.611 206.895 178.934 208.303 179.059C207.165 178.211 205.913 177.529 204.584 177.034ZM168.543 276.528C167.23 275.99 165.844 275.65 164.432 275.52C165.573 276.372 166.828 277.057 168.16 277.555C169.48 278.063 170.864 278.386 172.271 278.515C171.144 277.676 169.901 277.007 168.581 276.528H168.543ZM137.377 312.317C136.059 311.785 134.671 311.445 133.257 311.309C135.562 312.986 138.265 314.029 141.096 314.333C139.97 313.491 138.731 312.812 137.415 312.317H137.377ZM224.937 315.197C223.619 314.665 222.231 314.325 220.817 314.189C223.123 315.866 225.825 316.909 228.656 317.213C227.529 316.372 226.29 315.694 224.976 315.197H224.937ZM218.809 261.955C217.493 261.435 216.108 261.112 214.699 260.995C215.834 261.847 217.087 262.53 218.417 263.021C219.735 263.545 221.118 263.884 222.528 264.029C221.409 263.16 220.169 262.461 218.848 261.955H218.809ZM207.108 217.181C205.792 216.659 204.407 216.335 202.997 216.221C204.133 217.07 205.386 217.749 206.716 218.237C208.031 218.769 209.415 219.108 210.827 219.245C209.708 218.378 208.468 217.683 207.146 217.181H207.108ZM154.872 233.098C154.354 234.419 154.032 235.81 153.916 237.226C155.572 234.902 156.608 232.193 156.927 229.354C156.062 230.493 155.369 231.754 154.872 233.098ZM202.299 304.819C201.781 306.141 201.459 307.532 201.343 308.947C202.191 307.805 202.874 306.548 203.37 305.213C203.875 303.887 204.196 302.498 204.326 301.085C203.479 302.225 202.803 303.483 202.318 304.819H202.299ZM224.345 237.456C223.826 238.784 223.504 240.181 223.389 241.603C225.057 239.283 226.095 236.567 226.4 233.722C225.547 234.862 224.861 236.12 224.364 237.456H224.345ZM170.206 310.694C169.688 312.019 169.366 313.413 169.25 314.832C170.093 313.681 170.772 312.418 171.267 311.078C171.778 309.754 172.1 308.365 172.223 306.95C171.381 308.095 170.708 309.356 170.225 310.694H170.206ZM134.433 276.835C133.922 278.163 133.601 279.555 133.477 280.973C134.327 279.83 135.007 278.569 135.494 277.229C136.014 275.908 136.336 274.517 136.45 273.101C135.617 274.248 134.945 275.505 134.452 276.835H134.433ZM178.772 253.853C178.25 255.176 177.927 256.571 177.816 257.99C179.483 255.673 180.52 252.96 180.827 250.118C179.964 251.255 179.271 252.514 178.772 253.853ZM192.232 200.266C191.729 201.595 191.407 202.987 191.276 204.403C192.126 203.262 192.809 202.004 193.303 200.669C193.812 199.341 194.134 197.948 194.259 196.531C193.416 197.675 192.737 198.932 192.242 200.266H192.232Z" fill="white"/>
<path d="M182.022 172.464C185.16 179.667 190.136 185.909 196.448 190.56C199.53 192.944 203.136 194.55 206.964 195.245C208.978 195.644 211.064 195.433 212.959 194.64C214.717 193.682 216.201 192.287 217.27 190.589C218.512 188.71 219.46 186.651 220.081 184.483C220.809 182.059 221.362 179.586 221.735 177.082C221.73 177.07 221.729 177.057 221.73 177.045C221.732 177.033 221.737 177.021 221.744 177.011C221.751 177.001 221.76 176.992 221.771 176.987C221.782 176.981 221.794 176.978 221.806 176.978C221.819 176.978 221.831 176.981 221.842 176.987C221.853 176.992 221.862 177.001 221.869 177.011C221.876 177.021 221.881 177.033 221.882 177.045C221.884 177.057 221.882 177.07 221.878 177.082C221.534 179.453 221.381 181.882 220.855 184.186C220.422 186.267 219.715 188.282 218.752 190.176C217.827 191.995 216.523 193.593 214.928 194.861C213.21 196.128 211.111 196.765 208.982 196.666C204.831 196.471 200.82 195.1 197.414 192.71C194.025 190.469 191.006 187.709 188.466 184.531C185.583 180.928 183.321 176.865 181.774 172.512C181.768 172.479 181.775 172.445 181.793 172.417C181.812 172.389 181.841 172.369 181.874 172.363C181.907 172.357 181.941 172.364 181.969 172.383C181.997 172.402 182.016 172.431 182.022 172.464Z" fill="#263238"/>
<path d="M210.129 190.915C202.596 192.182 190.598 179.952 186.171 170.39C185.875 169.738 187.271 163.123 188.6 155.03C189.384 150.106 190.148 144.605 190.512 139.536C190.579 138.49 221.677 149.347 221.677 149.347C221.677 149.347 217.853 159.773 217.337 168.614C217.307 169.313 217.336 170.013 217.423 170.707C217.429 170.822 217.429 170.938 217.423 171.053C217.786 175.037 217.414 189.677 210.129 190.915Z" fill="#F5A784"/>
<path d="M214.144 171.005C215.229 171.1 216.319 171.1 217.404 171.005C217.404 170.87 217.404 170.755 217.404 170.659C217.31 169.966 217.285 169.265 217.328 168.566C217.853 159.725 221.649 149.309 221.649 149.309C221.649 149.309 196.41 140.486 191.363 139.507C191.946 145.459 195.502 169.354 214.144 171.005Z" fill="#263238"/>
<path d="M185.999 104.842C182.692 116.16 189.011 148.8 197.099 155.933C208.819 166.349 227.824 167.136 236.591 153.053C245.09 139.382 236.103 97.0848 227.088 90.576C213.819 80.9568 190.875 88.0896 185.999 104.842Z" fill="#F5A784"/>
<path d="M216.878 124.646C216.878 124.56 216.735 124.781 216.754 124.867C217.232 127.056 217.423 129.667 215.588 130.742C215.53 130.742 215.588 130.886 215.588 130.858C217.968 130.061 217.691 126.634 216.878 124.646Z" fill="#263238"/>
<path d="M214.498 122.726C210.932 123.13 211.993 130.262 215.301 129.888C218.609 129.514 217.49 122.39 214.498 122.726Z" fill="#263238"/>
<path d="M230.339 122.323C230.339 122.237 230.53 122.4 230.539 122.486C230.798 124.714 231.495 127.21 233.57 127.642C233.637 127.642 233.646 127.766 233.57 127.766C231.084 127.795 230.233 124.464 230.339 122.323Z" fill="#263238"/>
<path d="M231.964 119.712C235.463 118.915 236.801 126 233.56 126.749C230.32 127.498 229.029 120.384 231.964 119.712Z" fill="#263238"/>
<path d="M211.209 119.885C212.098 119.465 212.966 119 213.809 118.493C214.794 118.133 215.634 117.459 216.199 116.573C216.323 116.259 216.34 115.913 216.249 115.589C216.157 115.265 215.962 114.979 215.693 114.778C214.479 113.99 213.102 114.355 211.869 114.96C210.609 115.534 209.609 116.562 209.068 117.84C208.967 118.136 208.952 118.454 209.026 118.758C209.1 119.061 209.259 119.337 209.485 119.552C209.71 119.768 209.993 119.914 210.298 119.973C210.604 120.031 210.92 120.001 211.209 119.885Z" fill="#263238"/>
<path d="M234.22 115.709C233.237 115.659 232.257 115.556 231.285 115.402C230.239 115.434 229.211 115.12 228.36 114.509C228.127 114.265 227.982 113.951 227.948 113.615C227.913 113.28 227.991 112.942 228.169 112.656C229 111.475 230.415 111.293 231.773 111.389C233.148 111.454 234.451 112.025 235.434 112.992C235.642 113.227 235.779 113.518 235.826 113.829C235.874 114.14 235.831 114.458 235.703 114.745C235.574 115.032 235.366 115.276 235.103 115.447C234.84 115.618 234.533 115.709 234.22 115.709Z" fill="#263238"/>
<path d="M217.968 144.72C218.57 145.152 219.211 145.786 220.014 145.738C220.831 145.598 221.609 145.287 222.299 144.826C222.313 144.815 222.33 144.809 222.347 144.81C222.364 144.81 222.381 144.816 222.394 144.827C222.408 144.839 222.417 144.854 222.42 144.871C222.424 144.888 222.421 144.906 222.413 144.922C222.164 145.405 221.789 145.811 221.327 146.097C220.866 146.383 220.336 146.537 219.794 146.544C219.328 146.494 218.887 146.306 218.528 146.003C218.168 145.7 217.907 145.297 217.777 144.845C217.71 144.73 217.872 144.653 217.968 144.72Z" fill="#263238"/>
<path d="M219.287 137.75C219.976 138.543 220.821 139.183 221.769 139.631C222.717 140.079 223.747 140.324 224.794 140.352C225.708 140.385 226.622 140.288 227.509 140.064C227.679 140.035 227.845 139.99 228.006 139.93C228.169 139.93 228.312 139.843 228.484 139.786C228.598 139.744 228.695 139.666 228.761 139.564C228.826 139.462 228.857 139.34 228.847 139.219C228.838 139.143 228.819 139.069 228.79 138.998V138.806C228.58 137.098 228.025 134.534 228.025 134.534C228.694 134.746 232.059 135.706 231.849 134.822C230.32 127.526 228.618 119.462 225.549 112.483C225.534 112.431 225.499 112.387 225.451 112.361C225.404 112.335 225.348 112.329 225.296 112.344C225.244 112.359 225.2 112.395 225.174 112.442C225.148 112.49 225.142 112.546 225.157 112.598C226.352 119.664 228.78 126.48 230.1 133.555C228.897 133.202 227.652 133.018 226.4 133.008C226.171 133.114 227.557 137.942 227.585 138.72C227.592 138.748 227.592 138.778 227.585 138.806C224.794 139.594 222.519 139.056 219.469 137.549C219.278 137.424 219.134 137.597 219.287 137.75Z" fill="#263238"/>
<path d="M226.381 139.354C225.628 140.71 224.542 141.851 223.226 142.666C222.496 143.084 221.653 143.262 220.817 143.174C218.991 142.982 218.714 141.37 218.828 139.93C218.893 139.168 219.051 138.416 219.297 137.693C221.421 138.992 223.903 139.574 226.381 139.354Z" fill="#263238"/>
<path d="M223.226 142.666C222.496 143.084 221.653 143.262 220.817 143.174C218.991 142.982 218.714 141.37 218.828 139.93C220.74 139.843 222.796 140.842 223.226 142.666Z" fill="#FF97B8"/>
<path d="M222.748 98.2463C221.829 100.105 220.453 101.698 218.75 102.874C217.047 104.049 215.073 104.77 213.016 104.966C208.934 105.312 204.364 103.565 202.003 100.099C201.936 99.9935 201.773 100.099 201.84 100.205C204.364 103.91 208.532 106.445 213.083 105.965C215.25 105.69 217.308 104.85 219.05 103.527C220.793 102.205 222.16 100.447 223.016 98.4287C223.073 98.1983 222.824 98.0735 222.748 98.2463Z" fill="#263238"/>
<path d="M205.205 75.5999C199.995 75.4079 195.158 79.0271 193.188 83.7504C192.069 86.5799 191.687 89.6496 192.08 92.6688C192.08 92.6942 192.09 92.7186 192.108 92.7366C192.125 92.7546 192.15 92.7648 192.175 92.7648C192.2 92.7648 192.225 92.7546 192.243 92.7366C192.261 92.7186 192.271 92.6942 192.271 92.6688C192.041 87.8688 193.858 82.4544 197.682 79.344C199.398 77.8423 201.537 76.9151 203.802 76.6914C206.067 76.4677 208.346 76.9587 210.32 78.0959C212.509 79.3739 214.196 81.366 215.1 83.7408C215.124 83.788 215.165 83.8248 215.214 83.8445C215.263 83.8642 215.318 83.8654 215.368 83.8479C215.418 83.8303 215.46 83.7953 215.486 83.7492C215.512 83.703 215.521 83.6489 215.511 83.5968C214.824 81.3597 213.464 79.3906 211.62 77.9591C209.775 76.5276 207.535 75.7036 205.205 75.5999Z" fill="#263238"/>
<path d="M244.736 78.4415C242.889 75.5163 240.072 73.3403 236.782 72.2975C232.222 70.8383 227.844 72.2975 223.522 73.8815C223.408 73.8815 223.475 74.1023 223.589 74.0639C227.27 72.7487 231.075 71.6255 234.994 72.5375C238.219 73.2856 241.087 75.1307 243.111 77.7599C245.118 80.4797 246.081 83.8352 245.823 87.2104C245.564 90.5857 244.103 93.7542 241.706 96.1343C240.289 97.4669 238.616 98.4948 236.79 99.1551C234.963 99.8154 233.022 100.094 231.084 99.9743C230.931 99.9743 230.874 100.195 231.037 100.205C233.684 100.469 236.353 99.9882 238.744 98.8164C241.135 97.6446 243.154 95.8278 244.576 93.5694C245.998 91.311 246.765 88.6999 246.794 86.0283C246.822 83.3566 246.11 80.7297 244.736 78.4415Z" fill="#263238"/>
<path d="M185.34 107.75C185.34 107.75 183.695 98.0736 185.493 94.5792C187.29 91.0848 192.577 89.1456 192.577 89.1456C192.577 89.1456 193.905 80.3136 201.458 78C208.236 75.9264 214.307 80.9472 214.307 80.9472C214.307 80.9472 221.649 69.216 233.799 72.096C245.329 74.8128 247.661 90.9504 238.809 98.3328C232.595 103.517 221.477 99.6 221.477 99.6C220.587 99.9552 212.538 107.981 203.313 101.28C203.313 101.28 198.035 107.846 193.494 105.12C193.523 105.158 189.106 108.682 185.34 107.75Z" fill="#263238"/>
<path opacity="0.2" d="M190.617 96.2976C191.391 101.261 193.485 115.421 192.385 118.886C191.286 122.352 188.915 131.29 187.338 132.25C185.11 121.69 184.326 110.563 185.999 104.842C186.924 101.699 188.497 98.7882 190.617 96.2976Z" fill="#263238"/>
<path d="M191.774 131.04C191.774 131.04 184.126 120.73 179.413 123.504C174.699 126.278 180.732 141.408 186.401 143.318C187.11 143.615 187.871 143.765 188.639 143.758C189.407 143.751 190.165 143.588 190.868 143.279C191.572 142.969 192.205 142.519 192.73 141.957C193.256 141.395 193.662 140.731 193.925 140.006L191.774 131.04Z" fill="#F5A784"/>
<path d="M181.239 127.795C181.218 127.795 181.199 127.803 181.184 127.818C181.17 127.832 181.162 127.852 181.162 127.872C181.162 127.892 181.17 127.912 181.184 127.926C181.199 127.941 181.218 127.949 181.239 127.949C185.206 129.418 187.395 133.008 188.953 136.752C187.749 135.331 186.133 134.582 184.231 136.042C184.126 136.118 184.231 136.272 184.346 136.243C185.028 136.002 185.769 135.978 186.465 136.176C187.162 136.373 187.781 136.783 188.236 137.347C188.979 138.301 189.62 139.331 190.148 140.419C190.34 140.765 190.971 140.563 190.827 140.16C190.826 140.128 190.826 140.096 190.827 140.064C190.741 135.043 186.63 128.131 181.239 127.795Z" fill="#263238"/>
<path d="M272.766 244.042C267.671 245.002 269.028 238.234 264.305 237.792C259.583 237.35 258.168 242.592 255.262 241.843C252.355 241.094 254.439 235.862 248.656 235.814C242.872 235.766 241.553 243.763 238.054 245.606C234.555 247.45 227.031 244.32 226.132 250.723C225.234 257.126 238.149 259.258 247.422 263.741C256.696 268.224 266.724 275.04 275.089 274.56C284.056 273.994 287.957 268.128 294.821 267.197C301.685 266.266 317.459 270.528 324.18 264.49C330.9 258.451 341.751 253.584 341.913 247.037C342.076 240.49 333.51 243.37 330.766 243.053C328.023 242.736 328.281 235.507 323.004 234.499C317.727 233.491 316.426 236.774 311.838 237.101C307.249 237.427 305.28 228.461 298.846 230.074C292.412 231.686 294.066 235.334 291.284 236.928C288.502 238.522 283.091 234.902 279.334 236.563C275.577 238.224 277.307 243.226 272.766 244.042Z" fill="#455A64"/>
<path d="M293.559 248.333C298.874 248.592 296.637 242.083 301.398 241.037C306.159 239.99 308.262 245.021 311.14 243.917C314.017 242.813 311.216 237.888 317.105 237.091C322.994 236.294 325.355 244.08 329.16 245.453C332.965 246.826 340.24 242.765 341.98 249.005C343.72 255.245 330.795 259.008 321.904 264.643C313.014 270.278 303.654 278.323 295.05 278.87C285.834 279.456 281.102 274.128 274.018 274.07C266.934 274.013 251.342 280.272 243.723 275.136C236.103 270 224.431 266.573 223.427 260.102C222.423 253.632 231.534 255.379 234.287 254.717C237.04 254.054 235.874 246.912 241.122 245.242C246.371 243.571 248.12 246.653 252.843 246.394C257.566 246.134 258.435 237.005 265.204 237.754C271.972 238.502 270.73 242.362 273.808 243.581C276.886 244.8 281.915 240.528 285.949 241.661C289.983 242.794 288.827 248.102 293.559 248.333Z" fill="#37474F"/>
<path d="M235.262 248.016C230.75 251.069 228.283 258.278 231.916 265.133C235.549 271.987 244.746 271.114 249.124 268.109C253.503 265.104 257.202 257.606 253.464 251.213C250.262 245.664 243.168 242.669 235.262 248.016Z" fill="#2AAF74"/>
<path opacity="0.1" d="M235.262 248.016C230.75 251.069 228.283 258.278 231.916 265.133C235.549 271.987 244.746 271.114 249.124 268.109C253.503 265.104 257.202 257.606 253.464 251.213C250.262 245.664 243.168 242.669 235.262 248.016Z" fill="black"/>
<path d="M236.6 249.811C232.92 252.298 230.864 258.192 233.876 263.789C236.887 269.386 244.392 268.675 247.948 266.218C251.504 263.76 254.554 257.645 251.504 252.413C248.866 247.882 243.073 245.443 236.6 249.811Z" fill="#2AAF74"/>
<path d="M244.306 252.922C244.631 253.181 245.797 252.202 245.157 251.741C244.516 251.28 243.885 252.595 244.306 252.922Z" fill="white"/>
<path d="M247.03 259.344C246.868 259.718 248.101 260.611 248.388 259.872C248.675 259.133 247.25 258.845 247.03 259.344Z" fill="white"/>
<path d="M249.765 256.848C249.832 257.251 251.352 257.318 251.189 256.541C251.027 255.763 249.679 256.32 249.765 256.848Z" fill="white"/>
<path d="M244.229 250.109C244.631 250.042 244.707 248.525 243.933 248.678C243.159 248.832 243.694 250.195 244.229 250.109Z" fill="white"/>
<path d="M236.954 255.427C237.059 255.034 235.702 254.342 235.53 255.12C235.358 255.897 236.811 255.955 236.954 255.427Z" fill="white"/>
<path d="M240.205 263.914C239.87 263.674 238.751 264.701 239.411 265.133C240.071 265.565 240.644 264.23 240.205 263.914Z" fill="white"/>
<path d="M242.872 263.395C242.47 263.328 241.916 264.749 242.7 264.845C243.484 264.941 243.407 263.482 242.872 263.395Z" fill="white"/>
<path d="M240.071 257.386C240.358 257.098 239.516 255.821 238.99 256.426C238.465 257.03 239.688 257.77 240.071 257.386Z" fill="white"/>
<path d="M231.887 258.442C231.887 258.442 239.296 257.616 240.271 259.123C241.247 260.63 235.979 267.254 235.109 266.669C234.239 266.083 231.084 260.957 231.887 258.442Z" fill="#2AAF74"/>
<path opacity="0.1" d="M231.887 258.442C231.887 258.442 239.296 257.616 240.271 259.123C241.247 260.63 235.979 267.254 235.109 266.669C234.239 266.083 231.084 260.957 231.887 258.442Z" fill="black"/>
<path d="M244.554 268.31C244.554 268.31 242.365 261.149 243.665 259.91C244.965 258.672 252.413 262.627 252.011 263.597C251.61 264.566 247.164 268.627 244.554 268.31Z" fill="#2AAF74"/>
<path opacity="0.1" d="M244.554 268.31C244.554 268.31 242.365 261.149 243.665 259.91C244.965 258.672 252.413 262.627 252.011 263.597C251.61 264.566 247.164 268.627 244.554 268.31Z" fill="black"/>
<path d="M253.99 255.12C253.99 255.12 246.744 256.886 245.587 255.514C244.43 254.141 248.809 246.873 249.745 247.373C250.682 247.872 254.458 252.48 253.99 255.12Z" fill="#2AAF74"/>
<path opacity="0.1" d="M253.99 255.12C253.99 255.12 246.744 256.886 245.587 255.514C244.43 254.141 248.809 246.873 249.745 247.373C250.682 247.872 254.458 252.48 253.99 255.12Z" fill="black"/>
<path d="M241.706 246.413C241.706 246.413 243.474 253.69 242.107 254.851C240.74 256.013 233.503 251.616 233.991 250.675C234.478 249.734 239.124 245.933 241.706 246.413Z" fill="#2AAF74"/>
<path opacity="0.1" d="M241.706 246.413C241.706 246.413 243.474 253.69 242.107 254.851C240.74 256.013 233.503 251.616 233.991 250.675C234.478 249.734 239.124 245.933 241.706 246.413Z" fill="black"/>
<path d="M274.162 231.11C268.846 229.939 261.954 233.126 259.525 240.499C257.097 247.872 264.076 253.939 269.286 255.072C274.496 256.205 282.422 253.69 284.458 246.557C286.217 240.384 283.473 233.165 274.162 231.11Z" fill="#2AAF74"/>
<path opacity="0.1" d="M274.162 231.11C268.846 229.939 261.954 233.126 259.525 240.499C257.097 247.872 264.076 253.939 269.286 255.072C274.496 256.205 282.422 253.69 284.458 246.557C286.217 240.384 283.473 233.165 274.162 231.11Z" fill="black"/>
<path d="M273.798 233.28C269.468 232.32 263.837 234.931 261.848 240.96C259.86 246.989 265.567 251.952 269.821 252.864C274.076 253.776 280.557 251.741 282.249 245.914C283.655 240.893 281.408 234.998 273.798 233.28Z" fill="#2AAF74"/>
<path d="M276.877 241.066C276.877 241.478 278.425 241.651 278.32 240.864C278.215 240.077 276.819 240.528 276.877 241.066Z" fill="white"/>
<path d="M274.143 247.478C273.751 247.622 273.961 249.13 274.687 248.832C275.414 248.534 274.64 247.296 274.143 247.478Z" fill="white"/>
<path d="M277.823 247.738C277.575 248.074 278.569 249.216 279.018 248.563C279.467 247.91 278.139 247.306 277.823 247.738Z" fill="white"/>
<path d="M278.846 239.04C279.171 239.299 280.328 238.301 279.678 237.85C279.028 237.398 278.416 238.733 278.846 239.04Z" fill="white"/>
<path d="M269.994 237.456C270.357 237.254 269.908 235.795 269.238 236.208C268.569 236.621 269.525 237.715 269.994 237.456Z" fill="white"/>
<path d="M266.131 245.683C266.074 245.27 264.554 245.165 264.697 245.942C264.841 246.72 266.198 246.211 266.131 245.683Z" fill="white"/>
<path d="M268.34 247.258C268.11 246.912 266.705 247.498 267.173 248.131C267.642 248.765 268.636 247.68 268.34 247.258Z" fill="white"/>
<path d="M270.73 241.075C271.141 241.075 271.475 239.587 270.73 239.606C269.984 239.626 270.194 241.066 270.73 241.075Z" fill="white"/>
<path d="M264.324 235.853C264.324 235.853 270.06 240.653 269.63 242.419C269.2 244.186 260.806 244.915 260.625 243.878C260.443 242.842 261.944 237.014 264.324 235.853Z" fill="#2AAF74"/>
<path opacity="0.1" d="M264.324 235.853C264.324 235.853 270.06 240.653 269.63 242.419C269.2 244.186 260.806 244.915 260.625 243.878C260.443 242.842 261.944 237.014 264.324 235.853Z" fill="black"/>
<path d="M265.969 251.875C265.969 251.875 269.611 245.338 271.399 245.424C273.187 245.51 275.481 253.661 274.506 254.064C273.531 254.467 267.537 253.997 265.969 251.875Z" fill="#2AAF74"/>
<path opacity="0.1" d="M265.969 251.875C265.969 251.875 269.611 245.338 271.399 245.424C273.187 245.51 275.481 253.661 274.506 254.064C273.531 254.467 267.537 253.997 265.969 251.875Z" fill="black"/>
<path d="M282.02 249.6C282.02 249.6 275.739 245.549 275.93 243.763C276.122 241.977 284.362 240.163 284.668 241.161C284.974 242.16 284.181 248.169 282.02 249.6Z" fill="#2AAF74"/>
<path opacity="0.1" d="M282.02 249.6C282.02 249.6 275.739 245.549 275.93 243.763C276.122 241.977 284.362 240.163 284.668 241.161C284.974 242.16 284.181 248.169 282.02 249.6Z" fill="black"/>
<path d="M279.773 234.682C279.773 234.682 275.749 240.989 273.97 240.797C272.192 240.605 270.385 232.339 271.38 232.022C272.374 231.706 278.33 232.474 279.773 234.682Z" fill="#2AAF74"/>
<path opacity="0.1" d="M279.773 234.682C279.773 234.682 275.749 240.989 273.97 240.797C272.192 240.605 270.385 232.339 271.38 232.022C272.374 231.706 278.33 232.474 279.773 234.682Z" fill="black"/>
<path d="M289.152 266.266C293.157 269.962 300.71 270.682 306.503 265.536C312.297 260.39 309.295 251.606 305.356 248.016C301.417 244.426 293.301 242.582 287.976 247.718C283.368 252.173 282.125 259.795 289.152 266.266Z" fill="#2AAF74"/>
<path opacity="0.1" d="M289.152 266.266C293.157 269.962 300.71 270.682 306.503 265.536C312.297 260.39 309.295 251.606 305.356 248.016C301.417 244.426 293.301 242.582 287.976 247.718C283.368 252.173 282.125 259.795 289.152 266.266Z" fill="black"/>
<path d="M290.567 264.538C293.836 267.552 300.012 268.138 304.744 263.942C309.476 259.747 307.029 252.566 303.788 249.619C300.547 246.672 293.941 245.184 289.592 249.379C285.844 253.018 284.831 259.248 290.567 264.538Z" fill="#2AAF74"/>
<path d="M291.79 256.32C291.962 255.946 290.739 255.034 290.442 255.763C290.146 256.493 291.58 256.781 291.79 256.32Z" fill="white"/>
<path d="M297.364 252.125C297.765 252.202 298.32 250.79 297.555 250.675C296.79 250.56 296.829 252.029 297.364 252.125Z" fill="white"/>
<path d="M294.305 250.041C294.687 249.888 294.4 248.39 293.683 248.726C292.966 249.062 293.817 250.253 294.305 250.041Z" fill="white"/>
<path d="M289.075 257.03C288.922 256.646 287.431 256.925 287.756 257.645C288.081 258.365 289.286 257.52 289.075 257.03Z" fill="white"/>
<path d="M295.93 262.886C295.519 262.886 295.175 264.355 295.93 264.346C296.685 264.336 296.465 262.896 295.93 262.886Z" fill="white"/>
<path d="M303.387 257.722C303.234 258.106 304.486 258.96 304.754 258.221C305.021 257.482 303.587 257.222 303.387 257.722Z" fill="white"/>
<path d="M302.259 255.245C302.259 255.658 303.798 255.859 303.702 255.072C303.606 254.285 302.22 254.707 302.259 255.245Z" fill="white"/>
<path d="M297.096 259.382C296.742 259.171 295.71 260.294 296.408 260.669C297.106 261.043 297.565 259.661 297.096 259.382Z" fill="white"/>
<path d="M300.031 267.13C300.031 267.13 297.498 260.083 298.731 258.778C299.964 257.472 307.603 261.072 307.249 262.051C306.895 263.03 302.66 267.322 300.031 267.13Z" fill="#2AAF74"/>
<path opacity="0.1" d="M300.031 267.13C300.031 267.13 297.498 260.083 298.731 258.778C299.964 257.472 307.603 261.072 307.249 262.051C306.895 263.03 302.66 267.322 300.031 267.13Z" fill="black"/>
<path d="M306.627 252.48C306.627 252.48 300.203 256.32 298.702 255.312C297.201 254.304 299.285 246.134 300.318 246.307C301.35 246.48 306.322 249.821 306.627 252.48Z" fill="#2AAF74"/>
<path opacity="0.1" d="M306.627 252.48C306.627 252.48 300.203 256.32 298.702 255.312C297.201 254.304 299.285 246.134 300.318 246.307C301.35 246.48 306.322 249.821 306.627 252.48Z" fill="black"/>
<path d="M291.647 246.326C291.647 246.326 295.05 252.989 293.999 254.438C292.947 255.888 284.907 253.296 285.137 252.278C285.366 251.261 289.028 246.47 291.647 246.326Z" fill="#2AAF74"/>
<path opacity="0.1" d="M291.647 246.326C291.647 246.326 295.05 252.989 293.999 254.438C292.947 255.888 284.907 253.296 285.137 252.278C285.366 251.261 289.028 246.47 291.647 246.326Z" fill="black"/>
<path d="M286.083 260.342C286.083 260.342 292.727 256.925 294.171 257.99C295.614 259.056 293.033 267.12 292.01 266.89C290.987 266.659 286.226 262.982 286.083 260.342Z" fill="#2AAF74"/>
<path opacity="0.1" d="M286.083 260.342C286.083 260.342 292.727 256.925 294.171 257.99C295.614 259.056 293.033 267.12 292.01 266.89C290.987 266.659 286.226 262.982 286.083 260.342Z" fill="black"/>
<path d="M318.348 254.198C322.354 257.894 329.906 258.605 335.699 253.459C341.493 248.314 338.491 239.539 334.552 235.939C330.614 232.339 322.497 230.506 317.172 235.642C312.612 240.096 311.321 247.68 318.348 254.198Z" fill="#2AAF74"/>
<path opacity="0.1" d="M318.348 254.198C322.354 257.894 329.906 258.605 335.699 253.459C341.493 248.314 338.491 239.539 334.552 235.939C330.614 232.339 322.497 230.506 317.172 235.642C312.612 240.096 311.321 247.68 318.348 254.198Z" fill="black"/>
<path d="M319.763 252.48C323.032 255.494 329.208 256.08 333.94 251.875C338.673 247.67 336.225 240.499 332.984 237.562C329.744 234.624 323.138 233.117 318.788 237.322C315.04 240.96 314.027 247.171 319.763 252.48Z" fill="#2AAF74"/>
<path d="M320.987 244.214C321.159 243.84 319.935 242.937 319.639 243.667C319.342 244.397 320.757 244.704 320.987 244.214Z" fill="white"/>
<path d="M326.56 240.058C326.962 240.125 327.516 238.714 326.751 238.608C325.986 238.502 325.996 240 326.56 240.058Z" fill="white"/>
<path d="M323.501 237.974C323.883 237.811 323.596 236.314 322.879 236.65C322.162 236.986 323.013 238.186 323.501 237.974Z" fill="white"/>
<path d="M318.272 244.954C318.119 244.57 316.627 244.858 316.952 245.568C317.277 246.278 318.482 245.453 318.272 244.954Z" fill="white"/>
<path d="M325.126 250.81C324.715 250.81 324.371 252.288 325.126 252.269C325.881 252.25 325.661 250.829 325.126 250.81Z" fill="white"/>
<path d="M332.583 245.654C332.43 246.038 333.682 246.893 333.95 246.144C334.218 245.395 332.784 245.155 332.583 245.654Z" fill="white"/>
<path d="M331.455 243.168C331.455 243.581 332.994 243.782 332.898 243.005C332.803 242.227 331.417 242.63 331.455 243.168Z" fill="white"/>
<path d="M326.292 247.315C325.939 247.104 324.906 248.218 325.604 248.602C326.302 248.986 326.761 247.594 326.292 247.315Z" fill="white"/>
<path d="M329.227 255.053C329.227 255.053 326.694 248.006 327.927 246.71C329.16 245.414 336.799 248.995 336.445 249.984C336.091 250.973 331.856 255.245 329.227 255.053Z" fill="#2AAF74"/>
<path opacity="0.1" d="M329.227 255.053C329.227 255.053 326.694 248.006 327.927 246.71C329.16 245.414 336.799 248.995 336.445 249.984C336.091 250.973 331.856 255.245 329.227 255.053Z" fill="black"/>
<path d="M335.824 240.374C335.824 240.374 329.399 244.214 327.898 243.254C326.397 242.294 328.482 234.077 329.514 234.24C330.547 234.403 335.556 237.754 335.824 240.374Z" fill="#2AAF74"/>
<path opacity="0.1" d="M335.824 240.374C335.824 240.374 329.399 244.214 327.898 243.254C326.397 242.294 328.482 234.077 329.514 234.24C330.547 234.403 335.556 237.754 335.824 240.374Z" fill="black"/>
<path d="M320.843 234.24C320.843 234.24 324.247 240.902 323.195 242.352C322.143 243.802 314.103 241.219 314.333 240.192C314.562 239.165 318.224 234.394 320.843 234.24Z" fill="#2AAF74"/>
<path opacity="0.1" d="M320.843 234.24C320.843 234.24 324.247 240.902 323.195 242.352C322.143 243.802 314.103 241.219 314.333 240.192C314.562 239.165 318.224 234.394 320.843 234.24Z" fill="black"/>
<path d="M315.279 248.275C315.279 248.275 321.923 244.858 323.367 245.914C324.811 246.97 322.229 255.043 321.206 254.813C320.184 254.582 315.423 250.915 315.279 248.275Z" fill="#2AAF74"/>
<path opacity="0.1" d="M315.279 248.275C315.279 248.275 321.923 244.858 323.367 245.914C324.811 246.97 322.229 255.043 321.206 254.813C320.184 254.582 315.423 250.915 315.279 248.275Z" fill="black"/>
<path d="M220.846 260.573L248.837 298.867L321.933 294.24L344.915 252.72L220.846 260.573Z" fill="#EBEBEB"/>
<path d="M162.453 196.627C144.968 243.35 130.666 294.25 141.488 304.406C150.226 312.595 222.796 324.566 238.675 323.482C245.424 323.04 252.279 270.682 240.587 268.848C237.26 268.33 185.139 267.13 184.623 265.968C182.912 262.378 184.279 236.995 184.919 206.745C185.722 167.865 169.853 176.851 162.453 196.627Z" fill="#F5A784"/>
<path d="M235.08 323.04C253.98 325.286 277.374 329.242 297.039 320.573C299.245 319.661 301.083 318.031 302.259 315.946C311.14 312.221 312.058 306.883 312.058 306.883C319.266 300.864 319.457 295.286 319.457 295.286C319.457 295.286 329.83 290.794 328.166 284.045C326.321 276.461 312.105 284.256 301.685 283.747C277.785 282.566 240.635 273.984 233.809 272.957L235.08 323.04Z" fill="#F5A784"/>
<path d="M275.816 300.144C282.852 300.346 289.764 300.739 296.79 299.981C304.505 299.155 311.79 297.101 319.256 295.123C319.279 295.116 319.304 295.113 319.328 295.115C319.353 295.117 319.376 295.123 319.398 295.134C319.42 295.146 319.439 295.161 319.455 295.18C319.471 295.198 319.483 295.22 319.49 295.243C319.498 295.266 319.501 295.291 319.499 295.315C319.497 295.34 319.49 295.364 319.479 295.386C319.468 295.407 319.453 295.427 319.434 295.443C319.416 295.459 319.394 295.471 319.371 295.478C306.408 301.142 289.735 302.803 275.796 300.461C275.462 300.413 275.462 300.134 275.816 300.144Z" fill="#263238"/>
<path d="M273.015 314.525C279.869 314.342 291.924 313.949 312.01 306.634C312.077 306.634 312.134 306.71 312.067 306.749C299.639 313.238 286.877 315.648 273.024 314.851C272.594 314.822 272.556 314.534 273.015 314.525Z" fill="#263238"/>
<path d="M271.647 322.272C283.301 321.523 290.548 319.565 302.239 315.878C302.297 315.878 302.354 315.965 302.287 315.994C289.448 321.59 284.123 322.157 271.619 322.714C271.189 322.694 271.189 322.301 271.647 322.272Z" fill="#263238"/>
<path d="M272.986 280.493C269.936 279.101 270.634 277.488 276.427 276.067C282.221 274.646 306.312 273.946 305.356 265.507C304.4 257.069 270.787 260.15 260.959 261.667C250.647 263.423 240.878 267.547 232.413 273.715C239.086 274.771 259.917 278.285 272.986 280.493Z" fill="#F5A784"/>
<path d="M186.085 254.784L135.236 266.15C135.236 266.15 152.625 212.342 163.916 191.357C175.77 169.488 186.649 168.71 187.376 201.6C188.017 234.086 186.085 254.784 186.085 254.784Z" fill="#2AAF74"/>
<path d="M141.784 256.08C143.027 255.658 144.346 255.408 145.608 255.12L149.547 254.16C152.214 253.517 154.891 252.922 157.568 252.336C162.912 251.174 168.266 249.984 173.629 248.909C175.111 248.621 176.583 248.323 178.065 248.074C179.546 247.824 181.21 247.642 182.768 247.373C182.864 247.373 182.873 247.498 182.768 247.517C181.449 247.843 180.158 248.285 178.839 248.621C177.52 248.957 176.143 249.293 174.786 249.581C172.109 250.182 169.432 250.768 166.755 251.338C161.478 252.442 156.239 253.574 150.905 254.563L146.459 255.389C144.92 255.677 143.352 256.061 141.784 256.205C141.737 256.224 141.698 256.109 141.784 256.08Z" fill="#263238"/>
<path d="M146.822 235.267C148.046 231.802 149.165 228.317 150.341 224.842C151.669 220.896 152.874 216.912 154.165 212.947C154.165 212.851 154.021 212.794 153.983 212.89C152.386 217.114 146.947 231.187 146.086 233.578C143.572 240.538 141.058 247.498 138.601 254.477C137.224 258.394 135.733 262.915 134.375 266.832C134.28 267.12 138.362 266.006 140.503 265.363C140.618 265.363 140.695 264.931 140.551 264.97C138.524 265.43 135.771 265.728 135.465 265.805C138.075 259.181 140.58 252.509 143.037 245.818C144.318 242.31 145.58 238.794 146.822 235.267Z" fill="#263238"/>
<path d="M178.772 253.853C178.425 254.743 178.153 255.662 177.959 256.598L178.791 256.416C179.166 255.716 179.501 254.994 179.795 254.256C180.301 252.931 180.623 251.542 180.751 250.128C179.915 251.267 179.248 252.521 178.772 253.853ZM154.872 233.098C154.354 234.419 154.032 235.81 153.916 237.226C155.572 234.902 156.608 232.193 156.927 229.354C156.062 230.493 155.369 231.754 154.872 233.098ZM179.728 225.811C179.168 224.499 178.424 223.274 177.52 222.173C177.718 223.585 178.124 224.96 178.724 226.253C179.282 227.566 180.026 228.791 180.933 229.891C180.748 228.483 180.361 227.109 179.785 225.811H179.728ZM179.479 184.598C178.921 183.288 178.177 182.066 177.271 180.97C177.48 182.376 177.886 183.747 178.476 185.04C179.034 186.353 179.778 187.579 180.684 188.678C180.499 187.27 180.113 185.896 179.537 184.598H179.479ZM152.845 256.522C151.545 257.087 150.329 257.83 149.232 258.73C150.637 258.527 152.006 258.12 153.295 257.52C154.597 256.958 155.813 256.215 156.908 255.312C155.523 255.524 154.175 255.931 152.903 256.522H152.845ZM167.529 205.44C166.224 206.001 165.004 206.744 163.906 207.648C165.315 207.436 166.684 207.016 167.969 206.4C169.277 205.844 170.498 205.101 171.592 204.192C170.186 204.413 168.818 204.833 167.529 205.44Z" fill="white"/>
<path opacity="0.8" d="M250.472 425.069C250.472 429.091 215.731 429.043 215.741 425.011L215.913 384.288C216.662 384.23 217.395 384.045 218.083 383.741C218.191 383.693 218.283 383.614 218.348 383.514C218.412 383.414 218.446 383.298 218.446 383.179C218.446 383.06 218.412 382.944 218.348 382.844C218.283 382.745 218.191 382.666 218.083 382.618C217.391 382.292 216.657 382.062 215.903 381.936V379.747C216.655 379.693 217.391 379.511 218.083 379.21C218.189 379.155 218.278 379.072 218.341 378.969C218.403 378.867 218.436 378.749 218.436 378.629C218.436 378.509 218.403 378.391 218.341 378.289C218.278 378.186 218.189 378.103 218.083 378.048C217.381 377.756 216.65 377.54 215.903 377.405V375.216C216.654 375.154 217.391 374.969 218.083 374.669C218.19 374.616 218.279 374.533 218.342 374.432C218.405 374.33 218.438 374.213 218.438 374.093C218.438 373.973 218.405 373.856 218.342 373.754C218.279 373.652 218.19 373.57 218.083 373.517C217.384 373.214 216.653 372.995 215.903 372.864V370.646C216.65 370.577 217.384 370.402 218.083 370.128C218.19 370.075 218.279 369.993 218.342 369.891C218.405 369.789 218.438 369.672 218.438 369.552C218.438 369.432 218.405 369.315 218.342 369.213C218.279 369.111 218.19 369.029 218.083 368.976C217.379 368.684 216.649 368.459 215.903 368.304V359.098C215.903 355.862 226.61 345.581 228.264 344.006L228.484 343.805V341.299H238.149V343.805C238.149 343.805 250.692 355.632 250.692 359.165V368.362C249.946 368.522 249.217 368.75 248.512 369.043C248.408 369.084 248.321 369.158 248.264 369.254C248.184 369.375 248.147 369.52 248.159 369.665C248.171 369.809 248.232 369.945 248.331 370.051C248.375 370.116 248.439 370.167 248.512 370.195C249.208 370.47 249.938 370.644 250.682 370.714V372.931C249.961 373.058 249.256 373.264 248.579 373.546H248.503C248.396 373.599 248.306 373.681 248.243 373.783C248.18 373.885 248.147 374.002 248.147 374.122C248.147 374.241 248.18 374.359 248.243 374.46C248.306 374.562 248.396 374.644 248.503 374.698L248.675 374.765C249.318 375.032 249.998 375.198 250.692 375.254V377.443C250.088 377.55 249.496 377.714 248.923 377.933L248.512 378.086C248.405 378.14 248.316 378.222 248.253 378.324C248.19 378.425 248.157 378.543 248.157 378.662C248.157 378.782 248.19 378.899 248.253 379.001C248.316 379.103 248.405 379.185 248.512 379.238C248.673 379.321 248.843 379.386 249.019 379.43C249.558 379.625 250.121 379.745 250.692 379.786V381.974C250.191 382.061 249.699 382.19 249.22 382.358C248.962 382.454 248.723 382.56 248.522 382.656C248.414 382.704 248.322 382.783 248.257 382.883C248.192 382.982 248.158 383.099 248.158 383.218C248.158 383.337 248.192 383.453 248.257 383.553C248.322 383.652 248.414 383.731 248.522 383.779C248.788 383.897 249.063 383.993 249.344 384.067C249.786 384.201 250.241 384.288 250.701 384.326V405.446L250.472 425.069Z" fill="white"/>
<path opacity="0.8" d="M247.652 363.648L247.604 401.779L247.489 421.939C247.489 425.242 218.886 425.213 218.895 421.882L219.067 363.994C221.486 364.858 227.126 366.614 232.012 366.096C236.897 365.578 243.13 363.84 247.604 363.466C247.63 363.523 247.646 363.585 247.652 363.648Z" fill="#EBEBEB"/>
<path d="M240.178 335.156L226.507 335.136C226.238 335.136 226.019 335.355 226.019 335.625L226.012 340.809C226.012 341.08 226.23 341.299 226.499 341.3L240.17 341.319C240.439 341.319 240.657 341.1 240.658 340.83L240.665 335.646C240.665 335.375 240.447 335.156 240.178 335.156Z" fill="#2AAF74"/>
<path d="M48.431 392.17C49.6203 392.162 50.783 391.815 51.7834 391.169C52.7837 390.523 53.5806 389.605 54.081 388.522C54.081 388.522 56.6239 391.008 60.773 389.29C64.922 387.571 69.2622 377.107 66.1839 368.4C63.1056 359.693 55.0178 357.638 48.5075 364.445C39.7027 361.21 33.3071 366.634 34.3969 375.811C35.4868 384.989 43.976 392.477 48.431 392.17Z" fill="#2AAF74"/>
<path d="M41.0411 354.518C43.319 355.193 45.3696 356.481 46.9705 358.243C48.5715 360.004 49.6617 362.173 50.1231 364.512C50.5437 366.662 47.2551 367.45 46.7962 365.28C46.0792 361.651 42.9722 360.038 39.4541 358.982C37.3509 358.349 38.9283 353.885 41.0411 354.518Z" fill="#37474F"/>
<path d="M47.8956 366.72C47.8956 366.72 48.5362 356.707 58.1344 355.402C57.7211 358.089 56.5301 360.594 54.7096 362.607C52.8891 364.619 50.5195 366.05 47.8956 366.72Z" fill="#37474F"/>
<path d="M80.6195 390.47C81.3662 391.404 82.363 392.105 83.4927 392.489C84.6223 392.873 85.8377 392.926 86.996 392.64C86.996 392.64 86.6232 396.192 90.5332 398.4C94.4432 400.608 105.323 397.565 110.236 389.76C115.15 381.955 111.756 374.294 102.407 373.354C99.5387 364.406 91.298 362.707 84.7877 369.235C78.2773 375.763 77.6081 387.11 80.6195 390.47Z" fill="#2AAF74"/>
<path d="M105.533 361.363C106.412 363.578 106.671 365.992 106.282 368.345C105.893 370.697 104.87 372.897 103.324 374.707C101.9 376.378 99.2328 374.237 100.667 372.566C103.066 369.754 102.416 366.317 101.059 362.87C100.246 360.826 104.72 359.309 105.533 361.363Z" fill="#37474F"/>
<path d="M100.246 374.285C100.246 374.285 108.487 368.602 115.437 375.379C113.077 376.712 110.379 377.319 107.678 377.124C104.977 376.929 102.393 375.942 100.246 374.285Z" fill="#37474F"/>
<path d="M74.3099 396.653C73.1372 396.456 72.0445 395.927 71.1592 395.13C70.2739 394.333 69.6326 393.3 69.31 392.15C69.31 392.15 66.442 394.205 62.5607 391.853C58.6793 389.501 56.1076 378.47 60.5148 370.358C64.922 362.246 73.2296 361.507 78.5928 369.254C87.799 367.469 93.2578 373.843 90.734 382.694C88.2101 391.546 78.6979 397.661 74.3099 396.653Z" fill="#2AAF74"/>
<path opacity="0.1" d="M74.3099 396.653C73.1372 396.456 72.0445 395.927 71.1592 395.13C70.2739 394.333 69.6326 393.3 69.31 392.15C69.31 392.15 66.442 394.205 62.5607 391.853C58.6793 389.501 56.1076 378.47 60.5148 370.358C64.922 362.246 73.2296 361.507 78.5928 369.254C87.799 367.469 93.2578 373.843 90.734 382.694C88.2101 391.546 78.6979 397.661 74.3099 396.653Z" fill="black"/>
<path d="M87.5409 360.643C85.1899 360.954 82.9679 361.903 81.1147 363.388C79.2615 364.873 77.8473 366.839 77.0249 369.072C76.2697 371.127 79.4245 372.432 80.1893 370.359C81.4608 366.893 84.7781 365.789 88.43 365.309C90.581 365.021 89.7206 360.355 87.5409 360.643Z" fill="#37474F"/>
<path d="M78.8605 371.52C78.8605 371.52 79.8165 361.536 70.5337 358.723C70.5171 361.442 71.2978 364.105 72.7786 366.38C74.2594 368.656 76.3746 370.444 78.8605 371.52Z" fill="#37474F"/>
<path d="M124.873 394.934C123.732 395.275 122.518 395.284 121.372 394.959C120.227 394.634 119.196 393.99 118.401 393.101C118.401 393.101 116.699 396.23 112.215 395.808C107.732 395.386 100.552 386.65 100.963 377.414C101.374 368.179 108.506 363.85 116.718 368.438C124.194 362.765 131.89 366.077 133.515 375.158C135.14 384.24 129.251 393.907 124.873 394.934Z" fill="#2AAF74"/>
<path opacity="0.1" d="M124.873 394.934C123.732 395.275 122.518 395.284 121.372 394.959C120.227 394.634 119.196 393.99 118.401 393.101C118.401 393.101 116.699 396.23 112.215 395.808C107.732 395.386 100.552 386.65 100.963 377.414C101.374 368.179 108.506 363.85 116.718 368.438C124.194 362.765 131.89 366.077 133.515 375.158C135.14 384.24 129.251 393.907 124.873 394.934Z" fill="black"/>
<path d="M120.972 356.755C118.999 358.075 117.422 359.91 116.411 362.064C115.4 364.218 114.994 366.608 115.236 368.976C115.456 371.165 118.86 370.896 118.64 368.736C118.267 365.059 120.762 362.611 123.831 360.557C125.628 359.338 122.808 355.536 120.972 356.755Z" fill="#37474F"/>
<path d="M117.961 370.387C117.961 370.387 114.433 360.998 104.873 362.573C106.051 365.021 107.92 367.066 110.247 368.456C112.574 369.845 115.257 370.517 117.961 370.387Z" fill="#37474F"/>
<path d="M133.343 381.821C133.343 381.821 124.596 414.72 113.152 414.72H52.58C41.108 414.72 32.3989 381.821 32.3989 381.821H133.343Z" fill="#EBEBEB"/>
<path d="M386.884 384.144C395.975 372.624 395.679 370.291 395.555 369.274C395.555 369.005 390.822 342.173 382.343 342.173H365.66C365.718 338.947 365.813 336.47 365.89 335.914C366.225 333.456 367.4 331.114 369.274 331.114C371.148 331.114 371.186 328.8 369.274 328.8H334.447C332.583 328.8 332.583 331.114 334.447 331.114C336.311 331.114 343.271 333.811 344.313 335.174C345.355 336.538 345.651 356.765 345.393 361.354C345.135 365.942 324.084 377.75 321.082 391.584C318.08 405.418 325.403 425.126 355.603 425.126C385.803 425.126 393.117 405.418 390.134 391.584C389.498 388.93 388.397 386.411 386.884 384.144ZM365.852 361.382C365.603 359.539 365.555 353.779 365.603 348.192H382.037C384.704 350.275 388.901 365.136 389.599 369.648C389.035 371.126 386.167 375.274 383.174 379.181C376.014 370.954 366.225 364.435 365.813 361.382H365.852Z" fill="white"/>
<path d="M386.884 384.144C388.566 381.984 390.22 379.795 391.759 377.53C392.524 376.397 393.27 375.245 393.929 374.054C394.642 372.891 395.164 371.62 395.478 370.291C395.538 369.613 395.473 368.93 395.287 368.275L394.866 366.269C394.579 364.925 394.261 363.59 393.91 362.266C393.231 359.616 392.448 356.986 391.539 354.403C390.651 351.819 389.508 349.329 388.126 346.973C387.444 345.804 386.597 344.741 385.612 343.814C385.141 343.348 384.582 342.98 383.969 342.731C383.355 342.482 382.698 342.358 382.037 342.365H365.651H365.431V342.144L365.574 338.17L365.641 336.192C365.685 335.52 365.81 334.856 366.014 334.214C366.205 333.558 366.491 332.933 366.865 332.362C367.241 331.754 367.8 331.283 368.462 331.018C368.63 330.955 368.807 330.916 368.987 330.902H369.475C369.749 330.879 370.006 330.76 370.201 330.566C370.284 330.472 370.344 330.36 370.378 330.239C370.412 330.118 370.418 329.991 370.396 329.868C370.373 329.744 370.324 329.627 370.251 329.525C370.177 329.424 370.082 329.34 369.972 329.28C369.385 329.098 368.766 329.04 368.156 329.107H362.257H354.38H338.625H334.696C334.065 329.107 333.529 329.261 333.386 329.75C333.356 329.87 333.353 329.994 333.376 330.115C333.4 330.236 333.449 330.35 333.521 330.45C333.593 330.55 333.686 330.632 333.793 330.692C333.9 330.752 334.019 330.788 334.141 330.797C334.38 330.797 334.791 330.797 335.097 330.893C335.403 330.989 335.757 331.027 336.053 331.104C336.703 331.277 337.334 331.469 337.965 331.69C339.218 332.119 340.446 332.616 341.646 333.178C342.252 333.465 342.843 333.785 343.414 334.138C343.713 334.321 343.997 334.526 344.265 334.752C344.421 334.888 344.548 335.055 344.638 335.242C344.711 335.411 344.766 335.588 344.801 335.77C345.046 337.083 345.209 338.41 345.288 339.744C345.479 342.384 345.575 345.014 345.651 347.654C345.728 350.294 345.776 352.934 345.785 355.574C345.785 356.89 345.785 358.214 345.785 359.539C345.785 360.202 345.785 360.835 345.709 361.546C345.56 362.257 345.23 362.919 344.753 363.466C343.03 365.488 341.14 367.36 339.103 369.062C337.133 370.81 335.164 372.547 333.262 374.352C329.485 377.971 325.824 381.821 323.338 386.419C322.075 388.697 321.273 391.202 320.977 393.792C320.628 396.381 320.657 399.007 321.063 401.587L321.197 402.547C321.264 402.864 321.35 403.181 321.426 403.507L321.895 405.427L322.583 407.261L322.927 408.173L323.367 409.046L324.266 410.784C324.61 411.331 325.002 411.859 325.365 412.397C326.102 413.472 326.93 414.48 327.841 415.411C328.283 415.887 328.759 416.33 329.266 416.736L330.747 418.003C331.847 418.704 332.898 419.482 334.026 420.125C335.154 420.768 336.34 421.334 337.554 421.805C338.768 422.275 340.001 422.765 341.254 423.091C346.312 424.44 351.538 425.047 356.77 424.896L360.689 424.742C361.989 424.618 363.29 424.416 364.58 424.253C365.87 424.074 367.147 423.815 368.404 423.475C369.035 423.322 369.685 423.197 370.316 423.005L372.161 422.352C377.134 420.69 381.565 417.704 384.981 413.712C385.402 413.213 385.736 412.646 386.119 412.118C386.519 411.599 386.874 411.047 387.18 410.467L388.136 408.73C388.427 408.142 388.679 407.536 388.891 406.915C389.844 404.458 390.411 401.867 390.574 399.235C390.749 396.608 390.562 393.968 390.019 391.392C389.396 388.813 388.335 386.361 386.884 384.144ZM386.884 384.144C388.356 386.337 389.445 388.765 390.105 391.325C390.673 393.908 390.885 396.556 390.736 399.197C390.59 401.842 390.038 404.448 389.102 406.925C388.899 407.554 388.65 408.167 388.356 408.758L387.4 410.525C387.094 411.109 386.742 411.667 386.348 412.195C385.966 412.733 385.631 413.309 385.201 413.818C381.797 417.908 377.334 420.975 372.305 422.678L370.44 423.341C369.809 423.533 369.159 423.658 368.528 423.821C367.27 424.161 365.993 424.427 364.704 424.618C363.395 424.781 362.095 424.992 360.785 425.117L356.837 425.29C351.559 425.453 346.285 424.855 341.177 423.514C339.915 423.139 338.682 422.65 337.43 422.218C336.177 421.786 335.04 421.085 333.845 420.518C332.65 419.952 331.617 419.088 330.499 418.378L328.988 417.082C328.467 416.672 327.978 416.222 327.526 415.738C326.596 414.785 325.745 413.758 324.983 412.666C324.61 412.118 324.218 411.581 323.864 411.024L322.908 409.248L322.449 408.365L322.096 407.405L321.398 405.542L320.901 403.622C320.824 403.296 320.728 402.979 320.662 402.662L320.528 401.702C320.102 399.07 320.064 396.388 320.413 393.744C320.716 391.079 321.534 388.5 322.822 386.15C324.093 383.817 325.616 381.631 327.363 379.632C329.081 377.615 330.907 375.692 332.831 373.872C334.743 372.048 336.713 370.301 338.673 368.544C340.666 366.868 342.518 365.028 344.208 363.043C344.592 362.585 344.863 362.042 345.001 361.459C345.059 360.854 345.059 360.163 345.078 359.539C345.078 358.224 345.078 356.909 345.078 355.594C345.078 352.963 345.078 350.323 344.973 347.693C344.867 345.062 344.81 342.432 344.628 339.811C344.557 338.523 344.407 337.241 344.179 335.971C344.179 335.808 344.093 335.674 344.055 335.549C343.994 335.444 343.917 335.35 343.825 335.27C343.59 335.071 343.341 334.888 343.08 334.723C342.527 334.39 341.955 334.089 341.368 333.821C340.191 333.265 338.984 332.771 337.755 332.342C336.544 331.871 335.273 331.573 333.979 331.459C333.778 331.431 333.585 331.363 333.412 331.259C333.238 331.155 333.086 331.018 332.965 330.854C332.839 330.685 332.753 330.488 332.717 330.28C332.68 330.071 332.693 329.857 332.755 329.654C332.818 329.457 332.922 329.275 333.061 329.121C333.199 328.967 333.369 328.845 333.558 328.762C333.901 328.625 334.27 328.566 334.638 328.589H338.577H354.332H362.209H369.092C369.463 328.568 369.833 328.648 370.163 328.819C370.342 328.916 370.497 329.053 370.615 329.219C370.732 329.386 370.81 329.578 370.842 329.779C370.874 329.979 370.859 330.183 370.799 330.376C370.74 330.57 370.637 330.746 370.498 330.893C370.228 331.171 369.869 331.345 369.484 331.382C369.161 331.378 368.838 331.423 368.528 331.517C367.959 331.74 367.479 332.145 367.161 332.669C366.813 333.202 366.546 333.785 366.368 334.397C366.04 335.649 365.892 336.942 365.928 338.237L365.785 342.163L365.565 341.942H381.951C383.38 341.934 384.754 342.493 385.775 343.498C386.785 344.451 387.652 345.547 388.346 346.752C389.72 349.137 390.851 351.656 391.721 354.269C392.62 356.87 393.375 359.51 394.035 362.179C394.36 363.504 394.665 364.848 394.991 366.192L395.392 368.208C395.576 368.88 395.631 369.58 395.555 370.272C395.236 371.615 394.7 372.896 393.968 374.064C393.289 375.264 392.534 376.406 391.759 377.53C390.249 379.824 388.585 381.994 386.884 384.144Z" fill="#263238"/>
<path d="M365.813 361.383C365.68 360.288 365.651 359.194 365.603 358.09L365.527 354.787V348.192V348.125H365.594L382.027 347.923H382.132L382.19 347.981L382.735 348.528C382.888 348.73 383.021 348.941 383.165 349.143C383.435 349.548 383.684 349.968 383.91 350.4C384.35 351.264 384.733 352.147 385.105 353.031C385.822 354.816 386.453 356.631 387.017 358.455C387.581 360.279 388.155 362.112 388.633 363.965C389.111 365.818 389.589 367.69 389.876 369.6V369.687V369.763C389.466 370.656 388.983 371.513 388.432 372.327C387.907 373.133 387.352 373.92 386.788 374.707C385.666 376.263 384.513 377.799 383.327 379.315L383.165 379.517L382.993 379.325C380.262 376.189 377.341 373.227 374.245 370.455C372.706 369.053 371.148 367.671 369.637 366.24C368.882 365.52 368.136 364.8 367.448 364.013C366.691 363.289 366.128 362.384 365.813 361.383ZM365.813 361.383C366.132 362.377 366.694 363.275 367.448 363.994C368.146 364.771 368.901 365.491 369.657 366.202C371.186 367.613 372.754 368.986 374.303 370.359C377.471 373.055 380.475 375.94 383.299 378.999H382.964C384.111 377.463 385.227 375.907 386.31 374.333C386.845 373.536 387.381 372.739 387.887 371.943C388.411 371.162 388.872 370.34 389.264 369.485V369.648C388.939 367.795 388.471 365.943 387.973 364.099C387.476 362.256 386.951 360.432 386.387 358.608C385.822 356.784 385.201 354.989 384.475 353.223C384.13 352.339 383.748 351.475 383.337 350.621C382.961 349.787 382.451 349.022 381.826 348.355L381.989 348.413L365.555 348.211L365.622 348.144C365.584 350.346 365.584 352.544 365.622 354.739V358.042C365.67 359.184 365.689 360.288 365.813 361.383Z" fill="#263238"/>
<path d="M354.858 420.48C329.466 420.48 323.31 403.91 325.824 392.294C328.338 380.678 349.724 367.661 349.275 363.888C349.198 363.149 349.141 348.355 349.112 346.81H361.76C361.76 348.422 361.856 363.226 361.942 363.888C362.448 367.651 381.358 380.65 383.93 392.294C386.501 403.939 380.249 420.48 354.858 420.48Z" fill="#2AAF74"/>
<path d="M328.606 82.9344C328.069 88.2609 326.064 93.3316 322.816 97.5774C319.569 101.823 315.207 105.076 310.22 106.97C305.234 108.865 299.82 109.326 294.587 108.302C289.354 107.278 284.509 104.81 280.596 101.174L266.256 103.296L273.445 90.816C271.645 86.4231 270.968 81.6477 271.475 76.9248C272.351 69.3816 276.152 62.4889 282.055 57.7414C287.957 52.9939 295.486 50.7743 303.007 51.5638C310.529 52.3534 317.437 56.0884 322.235 61.9591C327.032 67.8298 329.332 75.3629 328.635 82.9248L328.606 82.9344Z" fill="white"/>
<path d="M328.606 82.9345C328.051 88.2533 326.046 93.3156 322.813 97.5648C322.002 98.6203 321.131 99.6269 320.203 100.579C319.246 101.498 318.234 102.358 317.172 103.152C315.052 104.752 312.719 106.044 310.241 106.992C307.761 107.967 305.158 108.591 302.507 108.845C301.178 108.962 299.843 108.987 298.511 108.922C297.177 108.89 295.847 108.752 294.534 108.509C289.235 107.527 284.313 105.083 280.318 101.453L280.662 101.558L266.322 103.776L265.28 103.939L265.806 102.979L272.957 90.4992V90.9889C271.265 86.8576 270.54 82.3917 270.837 77.9347C271.133 73.4777 272.444 69.1485 274.668 65.28C276.909 61.4406 279.984 58.159 283.664 55.68C287.345 53.2353 291.529 51.658 295.903 51.0661C300.277 50.4743 304.728 50.8833 308.922 52.2624C313.078 53.6817 316.866 56.0135 320.011 59.088C323.147 62.1509 325.55 65.8884 327.039 70.019C328.528 74.1497 329.063 78.5657 328.606 82.9345ZM328.606 82.9345C329.062 78.59 328.52 74.1982 327.021 70.0971C325.522 65.9961 323.106 62.2949 319.959 59.2786C316.812 56.2622 313.018 54.011 308.869 52.6981C304.72 51.3852 300.326 51.0457 296.025 51.7056C291.763 52.3513 287.702 53.9632 284.152 56.4192C280.637 58.8934 277.7 62.1072 275.548 65.8368C273.428 69.5781 272.179 73.753 271.896 78.0481C271.63 82.3362 272.322 86.6299 273.923 90.6145L274.028 90.8737L273.884 91.1041L266.657 103.584L266.141 102.826L280.538 100.8H280.739L280.882 100.934C284.72 104.544 289.484 107.008 294.639 108.048C295.925 108.309 297.229 108.469 298.54 108.528C302.486 108.802 306.444 108.219 310.146 106.819C312.628 105.922 314.963 104.661 317.077 103.075C319.229 101.531 321.134 99.6667 322.727 97.5457C325.995 93.3156 328.031 88.2574 328.606 82.9345Z" fill="#263238"/>
<path d="M312.21 85.3728C308.99 89.7248 304.871 93.3269 300.136 95.9328C295.405 93.325 291.29 89.7231 288.071 85.3728C283.827 79.728 284.037 70.8864 290.108 68.976C296.8 66.864 300.136 77.0208 300.136 77.0208C300.136 77.0208 303.492 66.7968 310.174 68.976C316.226 70.9536 316.436 79.728 312.21 85.3728Z" fill="#2AAF74"/>
</svg>
