<svg width="99" height="40" viewBox="0 0 99 40" fill="none" xmlns="http://www.w3.org/2000/svg">
<g clip-path="url(#clip0_3_186)">
<path d="M37.7302 32.9046C35.9192 32.9046 33.7921 32.0713 32.8722 30.6912C32.6713 30.4325 32.5848 30.1454 32.5848 29.829C32.5848 29.0531 33.3036 28.3917 34.0794 28.3917C34.482 28.3917 34.8558 28.5927 35.2293 29.0243C35.8042 29.7425 36.6379 30.0877 37.7302 30.0877C39.6562 30.0877 40.7772 28.9667 40.7772 27.788C40.7772 26.5234 39.5124 25.6609 37.9316 25.0859C36.3506 24.5112 34.6544 23.9649 33.5335 22.5565C32.9874 21.8377 32.6998 20.9757 32.6998 19.912C32.6998 16.9511 35.1719 15.2263 37.9316 15.2263C39.7712 15.2263 41.7833 16.2324 42.7894 17.7561C42.9332 17.986 43.0194 18.2446 43.0194 18.5607C43.0194 19.3656 42.3294 19.9982 41.5245 19.9982C41.0934 19.9982 40.7199 19.768 40.3749 19.3083C39.7712 18.4745 38.9662 18.0434 37.9316 18.0434C36.4365 18.0434 35.5743 18.8771 35.5743 19.912C35.5743 20.9757 36.8391 21.6942 38.4201 22.2691C40.0011 22.8729 41.6971 23.4766 42.8182 24.9997C43.3643 25.7761 43.6517 26.6957 43.6517 27.788C43.6517 30.8638 40.921 32.9046 37.7302 32.9046ZM48.6456 36.9696C48.6456 37.8627 47.9832 38.4098 47.2057 38.4098C46.4281 38.4098 45.7658 37.8627 45.7658 36.9696V21.4181C45.7658 17.991 48.5303 15.2265 51.9574 15.2265C55.3848 15.2265 58.1493 17.991 58.1493 21.4181V26.7462C58.1493 30.1731 55.3848 32.9378 51.9574 32.9378C50.6616 32.9378 49.5672 32.5345 48.6456 31.6996V36.9696ZM48.6456 26.7462C48.6456 28.5892 50.1142 30.0581 51.9574 30.0581C53.8006 30.0581 55.2693 28.5892 55.2693 26.7462V21.4181C55.2693 19.5749 53.8006 18.1062 51.9574 18.1062C50.1142 18.1062 48.6456 19.5749 48.6456 21.4181V26.7462ZM69.2023 19.323C68.8242 19.323 68.4758 19.1775 68.1561 18.858L68.098 18.7999C67.546 18.3642 66.9362 18.1318 66.2098 18.1318C64.4956 18.1318 63.4496 19.323 63.4496 21.6763V31.3511C63.4496 32.2519 62.7815 32.8039 61.9969 32.8039C61.2123 32.8039 60.5442 32.2519 60.5442 31.3511V21.6763C60.5442 18.0446 62.6069 15.2263 66.2098 15.2263C67.6039 15.2263 69.289 15.8654 70.2481 16.8243C70.5386 17.1438 70.6838 17.4636 70.6838 17.841C70.6838 18.6256 69.9867 19.323 69.2023 19.323ZM84.1948 23.4187C84.1948 24.1951 83.5337 24.8559 82.7576 24.8559H74.7088V26.7245C74.7088 28.4491 76.3762 30.0301 78.3022 30.0301C79.4518 30.0301 80.3717 29.6566 81.0904 28.9378C81.4063 28.5065 81.7801 28.2767 82.2401 28.2767C83.0164 28.2767 83.7351 28.9378 83.7351 29.7137C83.7351 30.2889 83.4187 30.6624 83.0738 31.0074C81.8953 32.2722 80.2855 32.9045 78.3022 32.9045C74.939 32.9045 71.8341 30.1453 71.8341 26.7245V21.4066C71.8341 17.986 74.594 15.2263 78.0146 15.2263C81.4351 15.2263 84.1948 17.986 84.1948 21.4066V23.4187ZM81.3204 21.9815V21.4066C81.3204 19.5668 79.8541 18.101 78.0146 18.101C76.1748 18.101 74.7088 19.5668 74.7088 21.4066V21.9815H81.3204ZM98.5505 23.4187C98.5505 24.1951 97.8893 24.8559 97.1132 24.8559H89.0646V26.7245C89.0646 28.4491 90.7318 30.0301 92.6578 30.0301C93.8074 30.0301 94.7276 29.6566 95.446 28.9378C95.7622 28.5065 96.1357 28.2767 96.5959 28.2767C97.372 28.2767 98.0908 28.9378 98.0908 29.7137C98.0908 30.2889 97.7746 30.6624 97.4294 31.0074C96.251 32.2722 94.6414 32.9045 92.6578 32.9045C89.2946 32.9045 86.1897 30.1453 86.1897 26.7245V21.4066C86.1897 17.986 88.9496 15.2263 92.3702 15.2263C95.791 15.2263 98.5505 17.986 98.5505 21.4066V23.4187ZM95.676 21.9815V21.4066C95.676 19.5668 94.2098 18.101 92.3702 18.101C90.5304 18.101 89.0646 19.5668 89.0646 21.4066V21.9815H95.676Z" fill="#CECECE"/>
<path d="M11.6275 30.5826C11.6275 31.6746 10.7425 32.5596 9.65047 32.5596C8.5587 32.5596 7.67366 31.6746 7.67366 30.5826C7.67366 29.4906 8.5587 28.6055 9.65047 28.6055C10.7425 28.6055 11.6275 29.4906 11.6275 30.5826Z" fill="#CECECE"/>
<path d="M19.9389 30.5826C19.9389 31.6746 19.0536 32.5596 17.9618 32.5596C16.8701 32.5596 15.985 31.6746 15.985 30.5826C15.985 29.4906 16.8701 28.6055 17.9618 28.6055C19.0536 28.6055 19.9389 29.4906 19.9389 30.5826Z" fill="#CECECE"/>
<path d="M18.6882 26.6287H8.92447C8.14038 26.6287 7.43376 26.1562 7.13455 25.4314L4.56272 19.2049H2.5496C1.4801 19.2049 0.612976 18.3378 0.612976 17.2683C0.612976 16.1988 1.4801 15.3317 2.5496 15.3317H5.85808C6.64216 15.3317 7.34879 15.8045 7.648 16.529L10.2198 22.7555H17.4057L20.0521 16.5125C20.4696 15.5275 21.6062 15.0686 22.5912 15.4852C23.5757 15.9028 24.0357 17.0393 23.6184 18.0241L20.4713 25.4479C20.1678 26.1637 19.4657 26.6287 18.6882 26.6287Z" fill="#CECECE"/>
<path d="M20.8516 8.90671C20.1106 8.13496 18.8848 8.11027 18.1133 8.85127L15.7024 11.166V1.93681C15.7024 0.867064 14.8355 0.000183105 13.7658 0.000183105C12.6963 0.000183105 11.8292 0.867064 11.8292 1.93681V11.1208L9.50909 8.86071C8.74291 8.11463 7.51679 8.13036 6.77046 8.89678C6.02414 9.66296 6.04012 10.8891 6.80629 11.6354L12.4145 17.0979C12.4402 17.1228 12.4678 17.1449 12.4944 17.1681C12.5084 17.1804 12.522 17.1933 12.5365 17.2054C12.6024 17.2596 12.6709 17.309 12.7418 17.3533C12.7517 17.3593 12.7624 17.3649 12.7725 17.3712C12.8423 17.4128 12.9139 17.4499 12.9873 17.4821C12.994 17.485 12.9999 17.4891 13.0066 17.492C13.0112 17.4939 13.0158 17.4954 13.0202 17.4971C13.0642 17.5155 13.1088 17.5312 13.1538 17.546C13.1703 17.5515 13.1865 17.5581 13.203 17.5632C13.247 17.5762 13.2918 17.5869 13.3363 17.5971C13.3543 17.6012 13.3719 17.6065 13.3898 17.6099C13.4346 17.6188 13.4796 17.6247 13.5247 17.6302C13.5426 17.6324 13.56 17.6363 13.5779 17.6377C13.6385 17.6438 13.699 17.6467 13.7595 17.6467C13.7614 17.6467 13.7634 17.6472 13.7655 17.6472H13.7658C13.7709 17.6472 13.7762 17.6464 13.7813 17.6464C13.8379 17.646 13.8946 17.6435 13.9507 17.6382C13.9841 17.6351 14.0173 17.6288 14.0502 17.6239C14.0781 17.6198 14.1059 17.6169 14.1335 17.6116C14.173 17.6041 14.2119 17.5934 14.2509 17.5835C14.2715 17.5779 14.2925 17.5741 14.3129 17.568C14.3531 17.5561 14.392 17.5416 14.4315 17.5271C14.4504 17.5203 14.4697 17.5145 14.4886 17.5068C14.5262 17.4918 14.5627 17.4741 14.5995 17.4564C14.6196 17.447 14.6399 17.4383 14.6595 17.4281C14.6929 17.4107 14.7254 17.3911 14.7581 17.3714C14.7803 17.3581 14.8031 17.3455 14.8249 17.3313C14.8534 17.3126 14.881 17.2918 14.9089 17.2715C14.9336 17.2533 14.9585 17.2354 14.9825 17.216C15.0067 17.1964 15.0299 17.1751 15.0534 17.1543C15.0713 17.1383 15.09 17.124 15.1074 17.1073L20.7962 11.6451C21.5677 10.9041 21.5924 9.67821 20.8516 8.90671Z" fill="#CECECE"/>
<path d="M14.0649 39.9496C12.1247 39.9496 10.1009 39.2191 7.92537 37.7581C7.03742 37.1619 6.80091 35.9588 7.39715 35.0708C7.99339 34.1831 9.19652 33.9466 10.0847 34.5426C13.4757 36.8198 15.3918 36.2713 17.3848 34.6486C18.2144 33.9735 19.4342 34.0981 20.1094 34.9277C20.7845 35.7573 20.6596 36.9772 19.83 37.6523C17.9486 39.184 16.0507 39.9496 14.0649 39.9496Z" fill="#CECECE"/>
</g>
<defs>
<clipPath id="clip0_3_186">
<rect width="97.9904" height="40" fill="white" transform="translate(0.612976)"/>
</clipPath>
</defs>
</svg>
