<svg width="257" height="204" viewBox="0 0 257 204" fill="none" xmlns="http://www.w3.org/2000/svg">
<path d="M124.797 203.555C156.829 203.555 182.797 177.587 182.797 145.554C182.797 113.522 156.829 87.5542 124.797 87.5542C92.764 87.5542 66.7964 113.522 66.7964 145.554C66.7964 177.587 92.764 203.555 124.797 203.555Z" fill="#0EA245"/>
<path d="M153.354 121.074C154.085 121.672 143.252 136.25 129.161 153.619L120.61 163.987L119.436 165.405L118.195 164.12C107.118 152.755 99.6517 144.336 100.183 143.805C100.715 143.273 109.156 150.783 120.499 161.794L118.106 162.038L126.481 151.559C140.571 134.079 152.601 120.476 153.354 121.074Z" fill="white"/>
<path d="M207.189 122.159C205.461 116.067 197.552 116.665 197.552 116.665L197.751 120.897C202.337 120.099 205.173 125.46 205.173 125.46L207.189 122.159Z" fill="#0EA245"/>
<path d="M39.1701 134.965C37.4642 128.872 29.533 129.448 29.533 129.448L29.7545 133.702C34.3404 132.904 37.1762 138.266 37.1762 138.266L39.1701 134.965Z" fill="#FF725E"/>
<path d="M131.709 50.6673C140.903 53.4587 146.618 42.869 146.618 42.869L141.036 39.6787C138.288 46.17 129.116 45.4167 129.116 45.4167L131.709 50.6673Z" fill="#FF725E"/>
<path d="M80.7312 62.0767C76.4554 62.5419 75.9458 67.9032 75.9458 67.9032L78.8037 68.2356C78.8037 65.0897 82.725 63.8047 82.725 63.8047L80.7312 62.0767Z" fill="#0EA245"/>
<path d="M256.947 101.334C257.568 97.0805 252.517 95.2417 252.517 95.2417L251.475 97.9224C254.533 98.6978 254.821 102.819 254.821 102.819L256.947 101.334Z" fill="#FF725E"/>
<path d="M105.678 6.09246C106.298 1.83882 101.247 0 101.247 0L100.206 2.70284C103.263 3.47824 103.551 7.5768 103.551 7.5768L105.678 6.09246Z" fill="#0EA245"/>
<path d="M0.0456521 74.705C-0.707598 81.3513 8.10986 82.9908 8.10986 82.9908L9.70498 78.5599C4.41007 78.0725 3.6568 71.9136 3.6568 71.9136L0.0456521 74.705Z" fill="#0EA245"/>
<path d="M196.688 50.5345C200.986 50.7782 202.36 45.5719 202.36 45.5719L199.59 44.7744C199.081 47.876 195.004 48.5185 195.004 48.5185L196.688 50.5345Z" fill="#0EA245"/>
<path d="M220.149 68.0361C218.998 68.3591 217.797 68.4717 216.605 68.3684C215.413 68.4742 214.212 68.3616 213.06 68.0361C215.4 67.5635 217.81 67.5635 220.149 68.0361Z" fill="#FF725E"/>
<path d="M223.915 58.3989C224.358 60.7711 224.358 63.2048 223.915 65.577C223.442 63.2076 223.442 60.7683 223.915 58.3989Z" fill="#FF725E"/>
<path d="M227.903 67.7927C229.055 67.4697 230.256 67.3571 231.448 67.4604C232.639 67.3546 233.841 67.4672 234.992 67.7927C232.653 68.2653 230.242 68.2653 227.903 67.7927Z" fill="#FF725E"/>
<path d="M224.159 77.4521C223.687 75.0754 223.687 72.6287 224.159 70.252C224.602 72.6316 224.602 75.0725 224.159 77.4521Z" fill="#FF725E"/>
<path d="M229.875 73.4197C229.742 73.5304 229.055 72.9544 228.346 72.1347C227.637 71.315 227.216 70.5174 227.349 70.4067C227.482 70.2959 228.191 70.8497 228.878 71.6916C229.565 72.5335 230.03 73.176 229.875 73.4197Z" fill="#FF725E"/>
<path d="M229.542 62.3423C229.675 62.4974 229.21 63.1842 228.479 63.9153C227.748 64.6464 227.061 65.1337 226.928 65.0008C226.795 64.8679 227.26 64.159 227.991 63.4279C228.722 62.6968 229.409 62.3423 229.542 62.3423Z" fill="#FF725E"/>
<path d="M221.433 65.156C221.301 65.3111 220.636 64.9566 219.949 64.3806C219.262 63.8046 218.819 63.2286 218.93 63.0956C219.041 62.9627 219.705 63.295 220.392 63.8489C221.079 64.4027 221.544 65.0231 221.433 65.156Z" fill="#FF725E"/>
<path d="M221.101 69.9857C221.256 70.0965 220.835 70.7833 220.171 71.5144C219.506 72.2455 218.864 72.7107 218.731 72.5778C218.598 72.4449 218.997 71.7581 219.661 71.0492C220.326 70.3402 220.968 69.8528 221.101 69.9857Z" fill="#FF725E"/>
<path d="M27.1399 48.2746C24.8004 48.7472 22.39 48.7472 20.0505 48.2746C21.2025 47.9516 22.4033 47.839 23.5952 47.9423C24.7872 47.8365 25.9884 47.9491 27.1399 48.2746Z" fill="#0EA245"/>
<path d="M30.9068 38.6377C31.3795 41.0145 31.3795 43.4611 30.9068 45.8379C30.4341 43.4611 30.4341 41.0145 30.9068 38.6377Z" fill="#0EA245"/>
<path d="M34.9158 48.0527C37.2553 47.5801 39.6657 47.5801 42.0052 48.0527C39.6657 48.5253 37.2553 48.5253 34.9158 48.0527Z" fill="#0EA245"/>
<path d="M31.1499 57.6902C30.6772 55.3209 30.6772 52.8815 31.1499 50.5122C31.6226 52.8815 31.6226 55.3209 31.1499 57.6902Z" fill="#0EA245"/>
<path d="M36.8883 53.4807C36.7332 53.6137 36.0464 53.0377 35.3596 52.1958C34.6728 51.3539 34.2076 50.6007 34.3627 50.4677C34.5178 50.3348 35.1824 50.933 35.8913 51.7527C36.6003 52.5724 37.0212 53.4807 36.8883 53.4807Z" fill="#0EA245"/>
<path d="M36.5556 42.6252C36.6885 42.7581 36.2011 43.467 35.4922 44.1981C34.7832 44.9292 34.0743 45.3945 33.9413 45.2615C33.8084 45.1286 34.2737 44.4418 35.0048 43.7107C35.7359 42.9796 36.4226 42.4036 36.5556 42.6252Z" fill="#0EA245"/>
<path d="M28.4252 45.4169C28.3144 45.5498 27.6497 45.2175 26.963 44.6414C26.2762 44.0654 25.8109 43.4894 25.9438 43.3343C26.0768 43.1793 26.7193 43.5337 27.406 44.1098C28.0928 44.6858 28.5581 45.2618 28.4252 45.4169Z" fill="#0EA245"/>
<path d="M28.1144 50.2243C28.2474 50.3572 27.8264 51.044 27.184 51.7751C26.5415 52.5062 25.8768 52.9714 25.7218 52.8385C25.5667 52.7056 26.0098 52.0188 26.6522 51.3098C27.2947 50.6009 27.9594 50.0913 28.1144 50.2243Z" fill="#0EA245"/>
</svg>
