<svg width="165" height="40" viewBox="0 0 165 40" fill="none" xmlns="http://www.w3.org/2000/svg">
<g clip-path="url(#clip0_3_194)">
<path d="M40.3222 0H62.0481C65.8667 0 69.5341 1.46637 72.2976 4.08733L72.5802 4.36257L80.6366 12.4121C83.3366 15.1123 84.8994 18.7425 85.0006 22.5497L85.0058 22.9441V39.7188H70.1113V25.0006C70.1113 23.7716 69.6497 22.5895 68.8311 21.6804L68.6502 21.4899L63.5056 16.3486C62.6366 15.4797 61.4757 14.9661 60.2542 14.9015L59.9916 14.8945H55.2167V39.7188H40.3222V0ZM104.865 0V24.8242H109.64C110.869 24.8242 112.051 24.3686 112.96 23.5508L113.15 23.37L118.299 18.2288C119.168 17.3598 119.687 16.2018 119.753 14.9807L119.76 14.7182V0H134.654V16.7745C134.654 19.509 133.891 22.1612 132.499 24.4636L132.274 24.8242H139.429C140.658 24.8242 141.84 24.3686 142.749 23.5508L142.94 23.37L148.088 18.2288C148.957 17.3598 149.476 16.2018 149.542 14.9807L149.549 14.7182V0H164.443V16.7745C164.443 20.5932 162.971 24.2606 160.349 27.0239L160.074 27.3065L152.021 35.3562C149.321 38.0564 145.688 39.6128 141.88 39.7136L141.486 39.7188H127.207V30.3833L122.232 35.3562C119.532 38.0564 115.899 39.6128 112.091 39.7136L111.697 39.7188H89.9706V0H104.865ZM35.3573 0V14.8945H25.4276V39.7188H10.5331V14.8945H0.603394V0H35.3573Z" fill="#CECECE"/>
</g>
<defs>
<clipPath id="clip0_3_194">
<rect width="163.84" height="40" fill="white" transform="translate(0.603394)"/>
</clipPath>
</defs>
</svg>
