<svg width="22" height="17" viewBox="0 0 22 17" fill="none" xmlns="http://www.w3.org/2000/svg">
<path fill-rule="evenodd" clip-rule="evenodd" d="M15.0966 0.960491C13.839 0.924331 12.5352 0.90625 11.1852 0.90625C8.16376 0.90625 5.64456 0.978572 3.6276 1.12321C3.61956 1.12321 3.55126 1.12924 3.42268 1.14129C3.29411 1.15335 3.2017 1.1654 3.14545 1.17746C3.0892 1.18951 2.99478 1.20759 2.86219 1.2317C2.7296 1.2558 2.6151 1.28795 2.51867 1.32813C2.42224 1.3683 2.30974 1.42054 2.18117 1.48482C2.0526 1.54911 1.92804 1.62746 1.80751 1.71987C1.68697 1.81228 1.57045 1.91875 1.45795 2.03929L1.2892 2.2442C1.1767 2.3808 1.04813 2.6279 0.903489 2.98549C0.758846 3.34308 0.658399 3.74286 0.602149 4.18482C0.449471 5.35 0.377149 6.51518 0.385185 7.68036V9.31964V9.80179C0.393221 10.1312 0.415319 10.5873 0.45148 11.1699C0.487641 11.7525 0.537864 12.3009 0.602149 12.8152C0.658399 13.2571 0.764873 13.6629 0.921569 14.0326C1.07827 14.4022 1.19478 14.6373 1.27112 14.7377C1.34746 14.8382 1.40974 14.9125 1.45795 14.9607C1.65081 15.1616 1.87782 15.3263 2.13898 15.4549C2.40014 15.5835 2.60505 15.6679 2.75371 15.708C2.90237 15.7482 3.12135 15.7884 3.41063 15.8286L3.84456 15.8768L4.43518 15.925C4.8209 15.9491 5.62648 15.9792 6.85193 16.0154C8.07737 16.0516 9.52179 16.0777 11.1852 16.0937C14.2066 16.0937 16.7258 16.0174 18.7428 15.8647C18.7508 15.8647 18.8171 15.8587 18.9417 15.8467C19.0662 15.8346 19.1586 15.8225 19.2189 15.8105C19.2792 15.7984 19.3756 15.7804 19.5082 15.7562C19.6408 15.7321 19.7553 15.7 19.8517 15.6598C19.9481 15.6196 20.0606 15.5694 20.1892 15.5092C20.3178 15.4489 20.4423 15.3725 20.5629 15.2801C20.6834 15.1877 20.7999 15.0812 20.9124 14.9607L21.0812 14.7558C21.1937 14.6192 21.3222 14.3721 21.4669 14.0145C21.6115 13.6569 21.712 13.2571 21.7682 12.8152C21.9209 11.65 21.9932 10.4848 21.9852 9.31964V7.68036V7.19821C21.9771 6.86875 21.955 6.41272 21.9189 5.83013C21.8827 5.24754 21.8325 4.69911 21.7682 4.18482C21.712 3.74286 21.6055 3.33705 21.4488 2.96741C21.2921 2.59777 21.1756 2.36272 21.0992 2.26228C21.0229 2.16183 20.9606 2.0875 20.9124 2.03929C20.7999 1.91875 20.6834 1.81228 20.5629 1.71987C20.4423 1.62746 20.3178 1.54911 20.1892 1.48482C20.0606 1.42054 19.9481 1.3683 19.8517 1.32813C19.7553 1.28795 19.6408 1.2558 19.5082 1.2317C19.3756 1.20759 19.2812 1.18951 19.2249 1.17746C19.1687 1.1654 19.0763 1.15335 18.9477 1.14129C18.8191 1.12924 18.7508 1.12321 18.7428 1.12321L17.8629 1.075C17.2763 1.03482 16.3542 0.996652 15.0966 0.960491ZM14.7892 8.28304L8.95527 11.2964V5.23348L14.7892 8.28304Z" fill="black"/>
</svg>
